<svg width="654" height="318" viewBox="0 0 654 318" fill="none" xmlns="http://www.w3.org/2000/svg">
<g filter="url(#filter0_d)">
<path d="M147.805 171.668L177.151 173.444L179.721 140.544L150.374 138.769L152.524 111.252L112.397 108.824L110.248 136.34L17.218 130.711L14.8507 161.019L76.5408 246.889L141.622 250.827L147.805 171.668ZM57.969 166.232L107.678 169.24L103.037 228.659L57.969 166.232Z" fill="#484FFA"/>
<path d="M147.805 171.668L145.808 171.548L145.964 169.554L147.96 169.674L147.805 171.668ZM177.151 173.444L179.147 173.565L178.992 175.559L176.995 175.438L177.151 173.444ZM179.721 140.544L179.876 138.55L181.873 138.671L181.717 140.665L179.721 140.544ZM150.374 138.769L150.219 140.763L148.222 140.642L148.378 138.648L150.374 138.769ZM152.524 111.252L152.679 109.258L154.676 109.379L154.52 111.373L152.524 111.252ZM112.397 108.824L110.401 108.703L110.556 106.71L112.553 106.83L112.397 108.824ZM110.248 136.34L112.244 136.461L112.088 138.455L110.092 138.334L110.248 136.34ZM17.218 130.711L15.2216 130.59L15.3774 128.596L17.3737 128.717L17.218 130.711ZM14.8507 161.019L13.2163 162.201L12.7981 161.619L12.8544 160.898L14.8507 161.019ZM76.5408 246.889L76.385 248.883L75.4488 248.826L74.9063 248.071L76.5408 246.889ZM141.622 250.827L143.618 250.948L143.462 252.942L141.466 252.821L141.622 250.827ZM57.969 166.232L56.3372 167.418L53.8551 163.98L58.1248 164.238L57.969 166.232ZM107.678 169.24L107.834 167.246L109.83 167.367L109.674 169.361L107.678 169.24ZM103.037 228.659L105.033 228.78L104.604 234.276L101.405 229.845L103.037 228.659ZM147.96 169.674L177.307 171.45L176.995 175.438L147.649 173.662L147.96 169.674ZM175.155 173.323L177.724 140.424L181.717 140.665L179.147 173.565L175.155 173.323ZM179.565 142.538L150.219 140.763L150.53 136.775L179.876 138.55L179.565 142.538ZM148.378 138.648L150.527 111.132L154.52 111.373L152.371 138.889L148.378 138.648ZM152.368 113.246L112.241 110.818L112.553 106.83L152.679 109.258L152.368 113.246ZM114.393 108.945L112.244 136.461L108.251 136.22L110.401 108.703L114.393 108.945ZM110.092 138.334L17.0622 132.705L17.3737 128.717L110.404 134.347L110.092 138.334ZM19.2143 130.832L16.8471 161.14L12.8544 160.898L15.2216 130.59L19.2143 130.832ZM16.4852 159.837L78.1752 245.707L74.9063 248.071L13.2163 162.201L16.4852 159.837ZM76.6965 244.895L141.778 248.833L141.466 252.821L76.385 248.883L76.6965 244.895ZM139.625 250.706L145.808 171.548L149.801 171.789L143.618 250.948L139.625 250.706ZM58.1248 164.238L107.834 167.246L107.522 171.234L57.8133 168.226L58.1248 164.238ZM109.674 169.361L105.033 228.78L101.041 228.539L105.682 169.119L109.674 169.361ZM101.405 229.845L56.3372 167.418L59.6008 165.047L104.669 227.474L101.405 229.845Z" fill="black"/>
<path d="M239.094 134.019C225.094 146.953 218.094 164.619 218.094 187.019C218.094 209.419 225.094 227.086 239.094 240.019C253.228 252.953 272.028 259.419 295.494 259.419C318.961 259.419 337.694 252.953 351.694 240.019C365.828 227.086 372.894 209.419 372.894 187.019C372.894 164.619 365.828 146.953 351.694 134.019C337.694 121.086 318.961 114.619 295.494 114.619C272.028 114.619 253.228 121.086 239.094 134.019ZM268.494 216.019C261.694 209.219 258.294 199.553 258.294 187.019C258.294 174.486 261.694 164.753 268.494 157.819C275.294 151.019 284.294 147.619 295.494 147.619C306.694 147.619 315.694 151.019 322.494 157.819C329.294 164.753 332.694 174.486 332.694 187.019C332.694 199.553 329.294 209.219 322.494 216.019C315.694 222.953 306.694 226.419 295.494 226.419C284.294 226.419 275.294 222.953 268.494 216.019Z" fill="#484FFA"/>
<path d="M239.094 134.019L237.737 132.55L237.744 132.544L239.094 134.019ZM239.094 240.019L237.744 241.495L237.737 241.488L239.094 240.019ZM351.694 240.019L350.337 238.55L350.344 238.544L351.694 240.019ZM351.694 134.019L350.344 135.495L350.337 135.488L351.694 134.019ZM268.494 216.019L269.909 214.605L269.915 214.612L269.922 214.619L268.494 216.019ZM268.494 157.819L267.066 156.419L267.073 156.412L267.08 156.405L268.494 157.819ZM322.494 157.819L323.909 156.405L323.915 156.412L323.922 156.419L322.494 157.819ZM322.494 216.019L321.066 214.619L321.073 214.612L321.08 214.605L322.494 216.019ZM240.451 135.488C226.934 147.976 220.094 165.071 220.094 187.019H216.094C216.094 164.168 223.255 145.929 237.737 132.55L240.451 135.488ZM220.094 187.019C220.094 208.968 226.934 226.062 240.451 238.55L237.737 241.488C223.255 228.11 216.094 209.871 216.094 187.019H220.094ZM240.445 238.544C254.131 251.068 272.41 257.419 295.494 257.419V261.419C271.646 261.419 252.325 254.837 237.744 241.495L240.445 238.544ZM295.494 257.419C318.58 257.419 336.787 251.068 350.337 238.55L353.051 241.488C338.601 254.838 319.342 261.419 295.494 261.419V257.419ZM350.344 238.544C363.993 226.054 370.894 208.962 370.894 187.019H374.894C374.894 209.877 367.663 228.118 353.045 241.495L350.344 238.544ZM370.894 187.019C370.894 165.077 363.993 147.984 350.344 135.495L353.045 132.544C367.663 145.921 374.894 164.162 374.894 187.019H370.894ZM350.337 135.488C336.787 122.971 318.58 116.619 295.494 116.619V112.619C319.342 112.619 338.601 119.201 353.051 132.55L350.337 135.488ZM295.494 116.619C272.41 116.619 254.131 122.971 240.445 135.495L237.744 132.544C252.325 119.201 271.646 112.619 295.494 112.619V116.619ZM267.08 217.434C259.801 210.155 256.294 199.916 256.294 187.019H260.294C260.294 199.19 263.587 208.284 269.909 214.605L267.08 217.434ZM256.294 187.019C256.294 174.121 259.802 163.826 267.066 156.419L269.922 159.22C263.587 165.679 260.294 174.851 260.294 187.019H256.294ZM267.08 156.405C274.317 149.168 283.858 145.619 295.494 145.619V149.619C284.73 149.619 276.272 152.87 269.909 159.234L267.08 156.405ZM295.494 145.619C307.13 145.619 316.672 149.168 323.909 156.405L321.08 159.234C314.717 152.87 306.258 149.619 295.494 149.619V145.619ZM323.922 156.419C331.187 163.826 334.694 174.121 334.694 187.019H330.694C330.694 174.851 327.402 165.679 321.066 159.22L323.922 156.419ZM334.694 187.019C334.694 199.916 331.187 210.155 323.909 217.434L321.08 214.605C327.401 208.284 330.694 199.19 330.694 187.019H334.694ZM323.922 217.42C316.688 224.796 307.142 228.419 295.494 228.419V224.419C306.247 224.419 314.701 221.109 321.066 214.619L323.922 217.42ZM295.494 228.419C283.847 228.419 274.301 224.796 267.066 217.42L269.922 214.619C276.288 221.109 284.742 224.419 295.494 224.419V228.419Z" fill="black"/>
<path d="M535.575 169.015L564.921 167.239L562.351 134.339L533.005 136.115L530.856 108.599L490.729 111.027L492.878 138.543L399.849 144.172L402.216 174.48L476.677 252.112L541.758 248.174L535.575 169.015ZM445.739 174.451L495.448 171.443L500.089 230.862L445.739 174.451Z" fill="#484FFA"/>
<path d="M535.575 169.015L533.578 169.135L533.423 167.142L535.419 167.021L535.575 169.015ZM564.921 167.239L566.917 167.118L567.073 169.112L565.077 169.233L564.921 167.239ZM562.351 134.339L562.196 132.345L564.192 132.224L564.348 134.218L562.351 134.339ZM533.005 136.115L533.161 138.109L531.164 138.23L531.009 136.236L533.005 136.115ZM530.856 108.599L530.7 106.605L532.696 106.484L532.852 108.478L530.856 108.599ZM490.729 111.027L488.733 111.148L488.577 109.154L490.573 109.033L490.729 111.027ZM492.878 138.543L494.875 138.422L495.031 140.416L493.034 140.537L492.878 138.543ZM399.849 144.172L397.852 144.293L397.697 142.299L399.693 142.178L399.849 144.172ZM402.216 174.48L400.781 175.848L400.276 175.322L400.22 174.601L402.216 174.48ZM476.677 252.112L476.833 254.106L475.896 254.162L475.241 253.48L476.677 252.112ZM541.758 248.174L543.754 248.053L543.91 250.047L541.913 250.168L541.758 248.174ZM445.739 174.451L444.307 175.822L441.314 172.715L445.583 172.457L445.739 174.451ZM495.448 171.443L495.292 169.449L497.289 169.328L497.445 171.322L495.448 171.443ZM500.089 230.862L502.086 230.741L502.515 236.237L498.657 232.233L500.089 230.862ZM535.419 167.021L564.765 165.245L565.077 169.233L535.731 171.009L535.419 167.021ZM562.925 167.36L560.355 134.46L564.348 134.218L566.917 167.118L562.925 167.36ZM562.507 136.333L533.161 138.109L532.849 134.121L562.196 132.345L562.507 136.333ZM531.009 136.236L528.859 108.719L532.852 108.478L535.001 135.994L531.009 136.236ZM531.012 110.593L490.885 113.021L490.573 109.033L530.7 106.605L531.012 110.593ZM492.726 110.906L494.875 138.422L490.882 138.664L488.733 111.148L492.726 110.906ZM493.034 140.537L400.004 146.166L399.693 142.178L492.723 136.549L493.034 140.537ZM401.845 144.051L404.212 174.359L400.22 174.601L397.852 144.293L401.845 144.051ZM403.651 173.112L478.112 250.744L475.241 253.48L400.781 175.848L403.651 173.112ZM476.521 250.118L541.602 246.18L541.913 250.168L476.833 254.106L476.521 250.118ZM539.761 248.294L533.578 169.135L537.571 168.894L543.754 248.053L539.761 248.294ZM445.583 172.457L495.292 169.449L495.604 173.437L445.895 176.445L445.583 172.457ZM497.445 171.322L502.086 230.741L498.093 230.983L493.452 171.564L497.445 171.322ZM498.657 232.233L444.307 175.822L447.171 173.08L501.521 229.491L498.657 232.233Z" fill="black"/>
</g>
<defs>
<filter id="filter0_d" x="12.7979" y="106.484" width="554.275" height="158.935" filterUnits="userSpaceOnUse" color-interpolation-filters="sRGB">
<feFlood flood-opacity="0" result="BackgroundImageFix"/>
<feColorMatrix in="SourceAlpha" type="matrix" values="0 0 0 0 0 0 0 0 0 0 0 0 0 0 0 0 0 0 127 0"/>
<feOffset dy="4"/>
<feColorMatrix type="matrix" values="0 0 0 0 0.7625 0 0 0 0 0.463854 0 0 0 0 0.563403 0 0 0 1 0"/>
<feBlend mode="normal" in2="BackgroundImageFix" result="effect1_dropShadow"/>
<feBlend mode="normal" in="SourceGraphic" in2="effect1_dropShadow" result="shape"/>
</filter>
</defs>
</svg>
