<svg width="289" height="115" viewBox="0 0 289 115" fill="none" xmlns="http://www.w3.org/2000/svg">
<g filter="url(#filter0_d)">
<path d="M79.2318 44.6521L93.1482 46.9937L96.5307 31.5191L82.6144 29.1774L85.4434 16.235L66.4149 13.0331L63.5859 25.9756L19.4701 18.5523L16.354 32.8077L40.231 76.6918L71.0931 81.8849L79.2318 44.6521ZM36.6307 37.4837L60.2033 41.4502L54.0942 69.3983L36.6307 37.4837Z" fill="#484FFA"/>
<path d="M79.2318 44.6521L78.2457 44.4861L78.4592 43.5092L79.4453 43.6751L79.2318 44.6521ZM93.1482 46.9937L94.1343 47.1597L93.9207 48.1366L92.9346 47.9707L93.1482 46.9937ZM96.5307 31.5191L96.7443 30.5422L97.7304 30.7081L97.5169 31.6851L96.5307 31.5191ZM82.6144 29.1774L82.4008 30.1544L81.4147 29.9884L81.6282 29.0115L82.6144 29.1774ZM85.4434 16.235L85.657 15.2581L86.6431 15.424L86.4296 16.401L85.4434 16.235ZM66.4149 13.0331L65.4288 12.8672L65.6423 11.8903L66.6285 12.0562L66.4149 13.0331ZM63.5859 25.9756L64.572 26.1415L64.3585 27.1184L63.3723 26.9525L63.5859 25.9756ZM19.4701 18.5523L18.4839 18.3863L18.6975 17.4094L19.6836 17.5753L19.4701 18.5523ZM16.354 32.8077L15.4593 33.3048L15.2907 32.9949L15.3679 32.6418L16.354 32.8077ZM40.231 76.6918L40.0175 77.6688L39.555 77.5909L39.3363 77.1889L40.231 76.6918ZM71.0931 81.8849L72.0793 82.0509L71.8657 83.0278L70.8796 82.8619L71.0931 81.8849ZM36.6307 37.4837L35.737 37.9827L34.7352 36.1518L36.8442 36.5067L36.6307 37.4837ZM60.2033 41.4502L60.4168 40.4732L61.403 40.6392L61.1894 41.6161L60.2033 41.4502ZM54.0942 69.3983L55.0803 69.5642L54.4917 72.257L53.2005 69.8973L54.0942 69.3983ZM79.4453 43.6751L93.3617 46.0168L92.9346 47.9707L79.0183 45.629L79.4453 43.6751ZM92.162 46.8278L95.5446 31.3532L97.5169 31.6851L94.1343 47.1597L92.162 46.8278ZM96.3172 32.4961L82.4008 30.1544L82.8279 28.2005L96.7443 30.5422L96.3172 32.4961ZM81.6282 29.0115L84.4573 16.0691L86.4296 16.401L83.6005 29.3434L81.6282 29.0115ZM85.2299 17.212L66.2014 14.0101L66.6285 12.0562L85.657 15.2581L85.2299 17.212ZM67.4011 13.1991L64.572 26.1415L62.5997 25.8096L65.4288 12.8672L67.4011 13.1991ZM63.3723 26.9525L19.2565 19.5292L19.6836 17.5753L63.7994 24.9986L63.3723 26.9525ZM20.4562 18.7182L17.3401 32.9736L15.3679 32.6418L18.4839 18.3863L20.4562 18.7182ZM17.2487 32.3106L41.1257 76.1947L39.3363 77.1889L15.4593 33.3048L17.2487 32.3106ZM40.4445 75.7149L71.3067 80.908L70.8796 82.8619L40.0175 77.6688L40.4445 75.7149ZM70.107 81.719L78.2457 44.4861L80.2179 44.818L72.0793 82.0509L70.107 81.719ZM36.8442 36.5067L60.4168 40.4732L59.9898 42.4271L36.4171 38.4606L36.8442 36.5067ZM61.1894 41.6161L55.0803 69.5642L53.108 69.2323L59.2172 41.2842L61.1894 41.6161ZM53.2005 69.8973L35.737 37.9827L37.5244 36.9846L54.9878 68.8992L53.2005 69.8973Z" fill="black"/>
<path d="M116.96 26.7511C110.24 32.9591 106.88 41.4391 106.88 52.1911C106.88 62.9431 110.24 71.4231 116.96 77.6311C123.744 83.8391 132.768 86.9431 144.032 86.9431C155.296 86.9431 164.288 83.8391 171.008 77.6311C177.792 71.4231 181.184 62.9431 181.184 52.1911C181.184 41.4391 177.792 32.9591 171.008 26.7511C164.288 20.5431 155.296 17.4391 144.032 17.4391C132.768 17.4391 123.744 20.5431 116.96 26.7511ZM131.072 66.1111C127.808 62.8471 126.176 58.2071 126.176 52.1911C126.176 46.1751 127.808 41.5031 131.072 38.1751C134.336 34.9111 138.656 33.2791 144.032 33.2791C149.408 33.2791 153.728 34.9111 156.992 38.1751C160.256 41.5031 161.888 46.1751 161.888 52.1911C161.888 58.2071 160.256 62.8471 156.992 66.1111C153.728 69.4391 149.408 71.1031 144.032 71.1031C138.656 71.1031 134.336 69.4391 131.072 66.1111Z" fill="#484FFA"/>
<path d="M116.96 26.7511L116.281 26.0165L116.285 26.0133L116.96 26.7511ZM116.96 77.6311L116.285 78.3688L116.281 78.3656L116.96 77.6311ZM171.008 77.6311L170.329 76.8965L170.333 76.8933L171.008 77.6311ZM171.008 26.7511L170.333 27.4888L170.329 27.4856L171.008 26.7511ZM131.072 66.1111L131.779 65.4039L131.786 65.4109L131.072 66.1111ZM131.072 38.1751L130.358 37.4748L130.365 37.468L131.072 38.1751ZM156.992 38.1751L157.699 37.4679L157.706 37.4749L156.992 38.1751ZM156.992 66.1111L156.278 65.4108L156.285 65.404L156.992 66.1111ZM117.638 27.4856C111.159 33.4709 107.88 41.6647 107.88 52.1911H105.88C105.88 41.2134 109.32 32.4472 116.281 26.0165L117.638 27.4856ZM107.88 52.1911C107.88 62.7174 111.159 70.9112 117.638 76.8965L116.281 78.3656C109.32 71.9349 105.88 63.1687 105.88 52.1911H107.88ZM117.635 76.8933C124.195 82.8967 132.959 85.9431 144.032 85.9431V87.9431C132.577 87.9431 123.292 84.7815 116.285 78.3688L117.635 76.8933ZM144.032 85.9431C155.105 85.9431 163.834 82.8965 170.329 76.8965L171.686 78.3656C164.741 84.7816 155.486 87.9431 144.032 87.9431V85.9431ZM170.333 76.8933C176.874 70.9072 180.184 62.7144 180.184 52.1911H182.184C182.184 63.1717 178.709 71.9389 171.683 78.3688L170.333 76.8933ZM180.184 52.1911C180.184 41.6677 176.874 33.4749 170.333 27.4888L171.683 26.0133C178.709 32.4432 182.184 41.2104 182.184 52.1911H180.184ZM170.329 27.4856C163.834 21.4856 155.105 18.4391 144.032 18.4391V16.4391C155.486 16.4391 164.741 19.6005 171.686 26.0165L170.329 27.4856ZM144.032 18.4391C132.959 18.4391 124.195 21.4855 117.635 27.4888L116.285 26.0133C123.292 19.6006 132.577 16.4391 144.032 16.4391V18.4391ZM130.365 66.8182C126.861 63.3147 125.176 58.3885 125.176 52.1911H127.176C127.176 58.0256 128.754 62.3794 131.779 65.404L130.365 66.8182ZM125.176 52.1911C125.176 45.9925 126.862 41.0396 130.358 37.4749L131.786 38.8753C128.754 41.9665 127.176 46.3577 127.176 52.1911H125.176ZM130.365 37.468C133.847 33.9855 138.438 32.2791 144.032 32.2791V34.2791C138.874 34.2791 134.824 35.8366 131.779 38.8822L130.365 37.468ZM144.032 32.2791C149.626 32.2791 154.216 33.9855 157.699 37.468L156.285 38.8822C153.239 35.8366 149.19 34.2791 144.032 34.2791V32.2791ZM157.706 37.4749C161.202 41.0396 162.888 45.9925 162.888 52.1911H160.888C160.888 46.3577 159.31 41.9665 156.278 38.8753L157.706 37.4749ZM162.888 52.1911C162.888 58.3885 161.202 63.3147 157.699 66.8182L156.285 65.404C159.309 62.3794 160.888 58.0256 160.888 52.1911H162.888ZM157.706 66.8113C154.224 70.3608 149.632 72.1031 144.032 72.1031V70.1031C149.184 70.1031 153.231 68.5174 156.278 65.4109L157.706 66.8113ZM144.032 72.1031C138.432 72.1031 133.839 70.3608 130.358 66.8113L131.786 65.4109C134.832 68.5174 138.88 70.1031 144.032 70.1031V72.1031Z" fill="black"/>
<path d="M257.915 36.5127L271.831 34.171L268.449 18.6964L254.532 21.0381L251.703 8.09568L232.675 11.2976L235.504 24.24L191.388 31.6633L194.504 45.9187L235.192 78.9387L266.054 73.7456L257.915 36.5127ZM215.314 43.6811L238.886 39.7146L244.996 67.6627L215.314 43.6811Z" fill="#484FFA"/>
<path d="M257.915 36.5127L256.929 36.6786L256.715 35.7017L257.701 35.5358L257.915 36.5127ZM271.831 34.171L272.817 34.0051L273.031 34.982L272.045 35.148L271.831 34.171ZM268.449 18.6964L268.235 17.7195L269.221 17.5535L269.435 18.5305L268.449 18.6964ZM254.532 21.0381L254.746 22.015L253.76 22.181L253.546 21.204L254.532 21.0381ZM251.703 8.09568L251.49 7.11875L252.476 6.95282L252.689 7.92975L251.703 8.09568ZM232.675 11.2976L231.689 11.4635L231.475 10.4866L232.461 10.3206L232.675 11.2976ZM235.504 24.24L236.49 24.074L236.704 25.051L235.717 25.2169L235.504 24.24ZM191.388 31.6633L190.402 31.8292L190.188 30.8523L191.175 30.6863L191.388 31.6633ZM194.504 45.9187L193.883 46.6709L193.595 46.4378L193.518 46.0846L194.504 45.9187ZM235.192 78.9387L235.405 79.9156L234.943 79.9934L234.57 79.691L235.192 78.9387ZM266.054 73.7456L267.04 73.5797L267.253 74.5566L266.267 74.7225L266.054 73.7456ZM215.314 43.6811L214.694 44.4349L212.991 43.0591L215.1 42.7042L215.314 43.6811ZM238.886 39.7146L238.673 38.7377L239.659 38.5717L239.873 39.5487L238.886 39.7146ZM244.996 67.6627L245.982 67.4968L246.57 70.1895L244.376 68.4164L244.996 67.6627ZM257.701 35.5358L271.618 33.1941L272.045 35.148L258.129 37.4896L257.701 35.5358ZM270.845 34.337L267.463 18.8624L269.435 18.5305L272.817 34.0051L270.845 34.337ZM268.662 19.6733L254.746 22.015L254.319 20.0612L268.235 17.7195L268.662 19.6733ZM253.546 21.204L250.717 8.26162L252.689 7.92975L255.519 20.8722L253.546 21.204ZM251.917 9.07262L232.888 12.2745L232.461 10.3206L251.49 7.11875L251.917 9.07262ZM233.661 11.1316L236.49 24.074L234.518 24.4059L231.689 11.4635L233.661 11.1316ZM235.717 25.2169L191.602 32.6402L191.175 30.6863L235.29 23.263L235.717 25.2169ZM192.374 31.4973L195.49 45.7527L193.518 46.0846L190.402 31.8292L192.374 31.4973ZM195.126 45.1664L235.813 78.1864L234.57 79.691L193.883 46.6709L195.126 45.1664ZM234.978 77.9618L265.84 72.7687L266.267 74.7225L235.405 79.9156L234.978 77.9618ZM265.068 73.9115L256.929 36.6786L258.901 36.3468L267.04 73.5797L265.068 73.9115ZM215.1 42.7042L238.673 38.7377L239.1 40.6915L215.527 44.658L215.1 42.7042ZM239.873 39.5487L245.982 67.4968L244.009 67.8286L237.9 39.8805L239.873 39.5487ZM244.376 68.4164L214.694 44.4349L215.934 42.9274L245.615 66.909L244.376 68.4164Z" fill="black"/>
</g>
<defs>
<filter id="filter0_d" x="15.291" y="6.95288" width="259.74" height="82.9901" filterUnits="userSpaceOnUse" color-interpolation-filters="sRGB">
<feFlood flood-opacity="0" result="BackgroundImageFix"/>
<feColorMatrix in="SourceAlpha" type="matrix" values="0 0 0 0 0 0 0 0 0 0 0 0 0 0 0 0 0 0 127 0"/>
<feOffset dx="2" dy="2"/>
<feColorMatrix type="matrix" values="0 0 0 0 0.7625 0 0 0 0 0.463854 0 0 0 0 0.563403 0 0 0 1 0"/>
<feBlend mode="normal" in2="BackgroundImageFix" result="effect1_dropShadow"/>
<feBlend mode="normal" in="SourceGraphic" in2="effect1_dropShadow" result="shape"/>
</filter>
</defs>
</svg>
