<svg width="791" height="366" viewBox="0 0 791 366" fill="none" xmlns="http://www.w3.org/2000/svg">
<g filter="url(#filter0_d)">
<path d="M211.394 167.369L253.625 170.344L256.806 122.931L214.575 119.955L217.235 80.3002L159.49 76.2316L156.83 115.886L22.9537 106.454L20.0238 150.132L110.086 274.849L203.742 281.448L211.394 167.369ZM82.1146 158.26L153.649 163.3L147.905 248.931L82.1146 158.26Z" fill="#484FFA"/>
<path d="M211.394 167.369L209.399 167.228L209.533 165.232L211.528 165.373L211.394 167.369ZM253.625 170.344L255.621 170.485L255.487 172.48L253.492 172.34L253.625 170.344ZM256.806 122.931L256.94 120.935L258.935 121.076L258.801 123.071L256.806 122.931ZM214.575 119.955L214.441 121.951L212.446 121.81L212.58 119.815L214.575 119.955ZM217.235 80.3002L217.369 78.3047L219.364 78.4452L219.23 80.4407L217.235 80.3002ZM159.49 76.2316L157.495 76.091L157.629 74.0955L159.624 74.2361L159.49 76.2316ZM156.83 115.886L158.825 116.027L158.691 118.023L156.696 117.882L156.83 115.886ZM22.9537 106.454L20.9586 106.313L21.0925 104.318L23.0876 104.458L22.9537 106.454ZM20.0238 150.132L18.4043 151.3L17.9803 150.712L18.0287 149.991L20.0238 150.132ZM110.086 274.849L109.952 276.845L109.016 276.779L108.466 276.017L110.086 274.849ZM203.742 281.448L205.737 281.589L205.603 283.584L203.608 283.444L203.742 281.448ZM82.1146 158.26L80.4978 159.431L77.9816 155.964L82.2485 156.264L82.1146 158.26ZM153.649 163.3L153.783 161.304L155.778 161.445L155.644 163.44L153.649 163.3ZM147.905 248.931L149.9 249.072L149.531 254.572L146.288 250.103L147.905 248.931ZM211.528 165.373L253.759 168.349L253.492 172.34L211.26 169.364L211.528 165.373ZM251.63 170.203L254.811 122.79L258.801 123.071L255.621 170.485L251.63 170.203ZM256.672 124.926L214.441 121.951L214.709 117.96L256.94 120.935L256.672 124.926ZM212.58 119.815L215.24 80.1596L219.23 80.4407L216.57 120.096L212.58 119.815ZM217.101 82.2957L159.356 78.2271L159.624 74.2361L217.369 78.3047L217.101 82.2957ZM161.485 76.3722L158.825 116.027L154.835 115.746L157.495 76.091L161.485 76.3722ZM156.696 117.882L22.8198 108.449L23.0876 104.458L156.964 113.891L156.696 117.882ZM24.9487 106.594L22.0188 150.272L18.0287 149.991L20.9586 106.313L24.9487 106.594ZM21.6432 148.964L111.705 273.681L108.466 276.017L18.4043 151.3L21.6432 148.964ZM110.22 272.854L203.875 279.453L203.608 283.444L109.952 276.845L110.22 272.854ZM201.747 281.308L209.399 167.228L213.389 167.509L205.737 281.589L201.747 281.308ZM82.2485 156.264L153.783 161.304L153.515 165.295L81.9808 160.255L82.2485 156.264ZM155.644 163.44L149.9 249.072L145.91 248.791L151.654 163.159L155.644 163.44ZM146.288 250.103L80.4978 159.431L83.7314 157.088L149.522 247.76L146.288 250.103Z" fill="black"/>
<path d="M314.216 108.48C294.056 127.104 283.976 152.544 283.976 184.8C283.976 217.056 294.056 242.496 314.216 261.12C334.568 279.744 361.64 289.056 395.432 289.056C429.224 289.056 456.2 279.744 476.36 261.12C496.712 242.496 506.888 217.056 506.888 184.8C506.888 152.544 496.712 127.104 476.36 108.48C456.2 89.856 429.224 80.544 395.432 80.544C361.64 80.544 334.568 89.856 314.216 108.48ZM356.552 226.56C346.76 216.768 341.864 202.848 341.864 184.8C341.864 166.752 346.76 152.736 356.552 142.752C366.344 132.96 379.304 128.064 395.432 128.064C411.56 128.064 424.52 132.96 434.312 142.752C444.104 152.736 449 166.752 449 184.8C449 202.848 444.104 216.768 434.312 226.56C424.52 236.544 411.56 241.536 395.432 241.536C379.304 241.536 366.344 236.544 356.552 226.56Z" fill="#484FFA"/>
<path d="M314.216 108.48L312.859 107.011L312.866 107.005L314.216 108.48ZM314.216 261.12L312.866 262.595L312.859 262.589L314.216 261.12ZM476.36 261.12L475.003 259.651L475.01 259.645L476.36 261.12ZM476.36 108.48L475.01 109.955L475.003 109.949L476.36 108.48ZM356.552 226.56L357.966 225.146L357.973 225.153L357.98 225.16L356.552 226.56ZM356.552 142.752L355.124 141.352L355.131 141.345L355.138 141.338L356.552 142.752ZM434.312 142.752L435.726 141.338L435.733 141.345L435.74 141.352L434.312 142.752ZM434.312 226.56L432.884 225.16L432.891 225.153L432.898 225.146L434.312 226.56ZM315.573 109.949C295.895 128.128 285.976 152.995 285.976 184.8H281.976C281.976 152.093 292.217 126.08 312.859 107.011L315.573 109.949ZM285.976 184.8C285.976 216.605 295.895 241.472 315.573 259.651L312.859 262.589C292.217 243.52 281.976 217.507 281.976 184.8H285.976ZM315.566 259.645C335.471 277.859 362.022 287.056 395.432 287.056V291.056C361.258 291.056 333.665 281.629 312.866 262.595L315.566 259.645ZM395.432 287.056C428.843 287.056 455.293 277.859 475.003 259.651L477.717 262.589C457.107 281.629 429.605 291.056 395.432 291.056V287.056ZM475.01 259.645C494.877 241.464 504.888 216.599 504.888 184.8H508.888C508.888 217.513 498.547 243.528 477.71 262.595L475.01 259.645ZM504.888 184.8C504.888 153.001 494.877 128.136 475.01 109.955L477.71 107.005C498.547 126.072 508.888 152.087 508.888 184.8H504.888ZM475.003 109.949C455.293 91.7411 428.843 82.544 395.432 82.544V78.544C429.605 78.544 457.107 87.9709 477.717 107.011L475.003 109.949ZM395.432 82.544C362.022 82.544 335.471 91.7408 315.566 109.955L312.866 107.005C333.665 87.9712 361.258 78.544 395.432 78.544V82.544ZM355.138 227.974C344.867 217.703 339.864 203.211 339.864 184.8H343.864C343.864 202.485 348.653 215.833 357.966 225.146L355.138 227.974ZM339.864 184.8C339.864 166.387 344.868 151.809 355.124 141.352L357.98 144.152C348.652 153.663 343.864 167.117 343.864 184.8H339.864ZM355.138 141.338C365.367 131.109 378.868 126.064 395.432 126.064V130.064C379.74 130.064 367.321 134.811 357.966 144.166L355.138 141.338ZM395.432 126.064C411.996 126.064 425.497 131.109 435.726 141.338L432.898 144.166C423.543 134.811 411.124 130.064 395.432 130.064V126.064ZM435.74 141.352C445.996 151.809 451 166.387 451 184.8H447C447 167.117 442.212 153.663 432.884 144.152L435.74 141.352ZM451 184.8C451 203.211 445.997 217.703 435.726 227.974L432.898 225.146C442.211 215.833 447 202.485 447 184.8H451ZM435.74 227.96C425.513 238.387 412.008 243.536 395.432 243.536V239.536C411.112 239.536 423.527 234.701 432.884 225.16L435.74 227.96ZM395.432 243.536C378.856 243.536 365.351 238.387 355.124 227.96L357.98 225.16C367.337 234.701 379.752 239.536 395.432 239.536V243.536Z" fill="black"/>
<path d="M727.347 156.959L769.578 153.984L766.398 106.57L724.166 109.546L721.506 69.8908L663.761 73.9594L666.421 113.614L532.545 123.047L535.475 166.725L641.343 277.638L734.999 271.039L727.347 156.959ZM598.067 166.068L669.602 161.028L675.346 246.659L598.067 166.068Z" fill="#484FFA"/>
<path d="M727.347 156.959L725.352 157.1L725.218 155.104L727.213 154.964L727.347 156.959ZM769.578 153.984L771.573 153.843L771.707 155.839L769.712 155.979L769.578 153.984ZM766.398 106.57L766.264 104.575L768.259 104.434L768.393 106.43L766.398 106.57ZM724.166 109.546L724.3 111.541L722.305 111.682L722.171 109.686L724.166 109.546ZM721.506 69.8908L721.372 67.8953L723.367 67.7547L723.501 69.7502L721.506 69.8908ZM663.761 73.9594L661.766 74.0999L661.632 72.1044L663.627 71.9639L663.761 73.9594ZM666.421 113.614L668.416 113.474L668.55 115.469L666.555 115.61L666.421 113.614ZM532.545 123.047L530.55 123.187L530.416 121.192L532.411 121.051L532.545 123.047ZM535.475 166.725L534.027 168.109L533.529 167.587L533.48 166.865L535.475 166.725ZM641.343 277.638L641.477 279.633L640.542 279.699L639.895 279.022L641.343 277.638ZM734.999 271.039L736.994 270.898L737.128 272.894L735.133 273.034L734.999 271.039ZM598.067 166.068L596.622 167.455L593.667 164.373L597.933 164.072L598.067 166.068ZM669.602 161.028L669.468 159.032L671.463 158.892L671.597 160.887L669.602 161.028ZM675.346 246.659L677.341 246.519L677.71 252.019L673.901 248.047L675.346 246.659ZM727.213 154.964L769.444 151.988L769.712 155.979L727.481 158.955L727.213 154.964ZM767.583 154.124L764.403 106.711L768.393 106.43L771.573 153.843L767.583 154.124ZM766.531 108.566L724.3 111.541L724.032 107.55L766.264 104.575L766.531 108.566ZM722.171 109.686L719.511 70.0313L723.501 69.7502L726.161 109.405L722.171 109.686ZM721.64 71.8863L663.895 75.9549L663.627 71.9639L721.372 67.8953L721.64 71.8863ZM665.756 73.8188L668.416 113.474L664.426 113.755L661.766 74.0999L665.756 73.8188ZM666.555 115.61L532.679 125.042L532.411 121.051L666.288 111.619L666.555 115.61ZM534.54 122.906L537.47 166.584L533.48 166.865L530.55 123.187L534.54 122.906ZM536.923 165.341L642.792 276.253L639.895 279.022L534.027 168.109L536.923 165.341ZM641.21 275.642L734.865 269.043L735.133 273.034L641.477 279.633L641.21 275.642ZM733.004 271.179L725.352 157.1L729.342 156.819L736.994 270.898L733.004 271.179ZM597.933 164.072L669.468 159.032L669.736 163.023L598.201 168.063L597.933 164.072ZM671.597 160.887L677.341 246.519L673.351 246.8L667.607 161.168L671.597 160.887ZM673.901 248.047L596.622 167.455L599.512 164.681L676.791 245.272L673.901 248.047Z" fill="black"/>
</g>
<defs>
<filter id="filter0_d" x="17.9802" y="67.7546" width="753.727" height="227.301" filterUnits="userSpaceOnUse" color-interpolation-filters="sRGB">
<feFlood flood-opacity="0" result="BackgroundImageFix"/>
<feColorMatrix in="SourceAlpha" type="matrix" values="0 0 0 0 0 0 0 0 0 0 0 0 0 0 0 0 0 0 127 0"/>
<feOffset dy="4"/>
<feColorMatrix type="matrix" values="0 0 0 0 0.7625 0 0 0 0 0.463854 0 0 0 0 0.563403 0 0 0 1 0"/>
<feBlend mode="normal" in2="BackgroundImageFix" result="effect1_dropShadow"/>
<feBlend mode="normal" in="SourceGraphic" in2="effect1_dropShadow" result="shape"/>
</filter>
</defs>
</svg>
