<svg width="674" height="224" viewBox="0 0 674 224" fill="none" xmlns="http://www.w3.org/2000/svg">
<g filter="url(#filter0_d)">
<path d="M158.215 169.263C163.865 169.04 168.239 169.679 171.337 171.179C174.435 172.678 176.231 175.332 176.724 179.14C176.938 180.791 176.853 182.38 176.47 183.908C176.079 185.372 175.192 186.993 173.809 188.769C172.481 190.474 170.163 192.007 166.854 193.368C163.601 194.658 159.496 195.599 154.539 196.19L114.789 200.93L108.328 151.042L146.268 146.519C154.656 145.518 160.782 145.98 164.645 147.904C168.571 149.821 170.773 152.62 171.25 156.301C172.031 162.331 167.686 166.651 158.215 169.263ZM128.987 161.823L129.752 167.726L146.433 165.737C150.882 165.207 152.979 163.958 152.724 161.99C152.469 160.023 149.863 159.334 144.906 159.925L128.987 161.823ZM150.372 183.442C155.392 182.844 157.754 181.402 157.459 179.117C157.163 176.832 154.314 176.012 148.912 176.656L131.182 178.77L132.069 185.625L150.372 183.442Z" fill="#C27690"/>
<path d="M158.215 169.263L157.664 167.337L158.314 171.259L158.215 169.263ZM171.337 171.179L172.197 169.383L171.337 171.179ZM176.47 183.908L178.406 184.439L178.41 184.425L178.413 184.41L176.47 183.908ZM173.809 188.769L172.223 187.534L173.809 188.769ZM166.854 193.368L167.61 195.225L167.621 195.221L167.633 195.216L166.854 193.368ZM114.789 200.93L112.803 201.166L113.06 203.15L115.046 202.913L114.789 200.93ZM108.328 151.042L108.072 149.059L106.086 149.296L106.343 151.279L108.328 151.042ZM164.645 147.904L163.765 149.69L163.772 149.693L163.779 149.697L164.645 147.904ZM128.987 161.823L128.73 159.84L126.744 160.077L127.001 162.06L128.987 161.823ZM129.752 167.726L127.766 167.963L128.022 169.946L130.008 169.71L129.752 167.726ZM131.182 178.77L130.925 176.787L128.939 177.023L129.196 179.007L131.182 178.77ZM132.069 185.625L130.083 185.862L130.34 187.845L132.326 187.608L132.069 185.625ZM158.314 171.259C163.823 171.042 167.812 171.684 170.477 172.974L172.197 169.383C168.666 167.674 163.907 167.039 158.117 167.267L158.314 171.259ZM170.477 172.974C172.878 174.136 174.32 176.147 174.738 179.377L178.71 178.904C178.142 174.517 175.993 171.22 172.197 169.383L170.477 172.974ZM174.738 179.377C174.922 180.793 174.847 182.131 174.527 183.405L178.413 184.41C178.86 182.628 178.954 180.788 178.71 178.904L174.738 179.377ZM174.535 183.376C174.237 184.492 173.516 185.874 172.223 187.534L175.395 190.004C176.868 188.111 177.921 186.253 178.406 184.439L174.535 183.376ZM172.223 187.534C171.201 188.846 169.25 190.214 166.075 191.521L167.633 195.216C171.076 193.8 173.76 192.102 175.395 190.004L172.223 187.534ZM166.099 191.511C163.057 192.717 159.134 193.628 154.282 194.207L154.796 198.174C159.858 197.57 164.145 196.599 167.61 195.225L166.099 191.511ZM154.282 194.207L114.532 198.946L115.046 202.913L154.796 198.174L154.282 194.207ZM116.775 200.693L110.314 150.805L106.343 151.279L112.803 201.166L116.775 200.693ZM108.585 153.026L146.525 148.502L146.011 144.535L108.072 149.059L108.585 153.026ZM146.525 148.502C154.837 147.511 160.459 148.043 163.765 149.69L165.525 146.119C161.106 143.918 154.476 143.526 146.011 144.535L146.525 148.502ZM163.779 149.697C167.216 151.375 168.89 153.652 169.264 156.538L173.236 156.064C172.656 151.587 169.927 148.267 165.511 146.112L163.779 149.697ZM169.264 156.538C169.574 158.931 168.899 160.909 167.156 162.642C165.328 164.46 162.247 166.073 157.664 167.337L158.766 171.188C163.653 169.841 167.481 167.988 169.997 165.485C172.599 162.898 173.707 159.701 173.236 156.064L169.264 156.538ZM127.001 162.06L127.766 167.963L131.738 167.489L130.973 161.587L127.001 162.06ZM130.008 169.71L146.69 167.721L146.177 163.754L129.495 165.743L130.008 169.71ZM146.69 167.721C149 167.445 150.971 166.96 152.381 166.12C153.108 165.687 153.771 165.11 154.215 164.335C154.675 163.533 154.825 162.646 154.71 161.753L150.738 162.227C150.75 162.318 150.734 162.325 150.733 162.328C150.716 162.357 150.625 162.493 150.303 162.685C149.617 163.094 148.316 163.499 146.177 163.754L146.69 167.721ZM154.71 161.753C154.587 160.806 154.16 159.959 153.449 159.298C152.771 158.67 151.929 158.294 151.073 158.068C149.396 157.625 147.201 157.638 144.65 157.942L145.163 161.909C147.569 161.622 149.155 161.684 150.084 161.929C150.53 162.047 150.698 162.175 150.735 162.21C150.739 162.213 150.733 162.19 150.738 162.227L154.71 161.753ZM144.65 157.942L128.73 159.84L129.244 163.807L145.163 161.909L144.65 157.942ZM150.629 185.426C153.227 185.116 155.417 184.565 156.966 183.619C157.764 183.132 158.471 182.493 158.937 181.653C159.416 180.789 159.569 179.839 159.445 178.88L155.473 179.354C155.496 179.538 155.465 179.625 155.428 179.693C155.377 179.784 155.235 179.972 154.852 180.206C154.039 180.702 152.537 181.17 150.115 181.459L150.629 185.426ZM159.445 178.88C159.316 177.887 158.89 176.986 158.16 176.265C157.457 175.571 156.568 175.137 155.638 174.869C153.821 174.346 151.436 174.341 148.655 174.672L149.169 178.639C151.79 178.327 153.53 178.41 154.562 178.707C155.056 178.849 155.273 179.009 155.356 179.091C155.412 179.146 155.453 179.205 155.473 179.354L159.445 178.88ZM148.655 174.672L130.925 176.787L131.439 180.753L149.169 178.639L148.655 174.672ZM129.196 179.007L130.083 185.862L134.055 185.388L133.168 178.533L129.196 179.007ZM132.326 187.608L150.629 185.426L150.115 181.459L131.813 183.641L132.326 187.608Z" fill="#1E1E1E"/>
<path d="M214.594 140.314L242.156 138.129L246.471 188.248L228.288 189.689L225.118 152.865L205.224 191.517L177.662 193.702L173.348 143.583L191.531 142.142L194.701 178.966L214.594 140.314Z" fill="#C27690"/>
<path d="M214.594 140.314L214.423 138.321L213.319 138.409L212.814 139.391L214.594 140.314ZM242.156 138.129L244.15 137.971L243.978 135.979L241.984 136.137L242.156 138.129ZM246.471 188.248L246.642 190.24L248.636 190.082L248.464 188.09L246.471 188.248ZM228.288 189.689L226.294 189.847L226.465 191.84L228.459 191.682L228.288 189.689ZM225.118 152.865L227.111 152.707L226.514 145.769L223.337 151.942L225.118 152.865ZM205.224 191.517L205.395 193.51L206.5 193.422L207.005 192.441L205.224 191.517ZM177.662 193.702L175.669 193.86L175.84 195.852L177.834 195.694L177.662 193.702ZM173.348 143.583L173.176 141.591L171.183 141.749L171.354 143.741L173.348 143.583ZM191.531 142.142L193.525 141.984L193.353 139.991L191.359 140.149L191.531 142.142ZM194.701 178.966L192.707 179.124L193.304 186.063L196.482 179.889L194.701 178.966ZM214.766 142.306L242.328 140.122L241.984 136.137L214.423 138.321L214.766 142.306ZM240.162 138.287L244.477 188.406L248.464 188.09L244.15 137.971L240.162 138.287ZM246.299 186.255L228.116 187.696L228.459 191.682L246.642 190.24L246.299 186.255ZM230.281 189.531L227.111 152.707L223.124 153.023L226.294 189.847L230.281 189.531ZM223.337 151.942L203.443 190.594L207.005 192.441L226.899 153.789L223.337 151.942ZM205.052 189.525L177.491 191.709L177.834 195.694L205.395 193.51L205.052 189.525ZM179.656 193.544L175.342 143.425L171.354 143.741L175.669 193.86L179.656 193.544ZM173.519 145.576L191.702 144.135L191.359 140.149L173.176 141.591L173.519 145.576ZM189.537 142.3L192.707 179.124L196.695 178.808L193.525 141.984L189.537 142.3ZM196.482 179.889L216.375 141.237L212.814 139.391L192.92 178.042L196.482 179.889Z" fill="#1E1E1E"/>
<path d="M254.348 137.945L310.083 135.793L312.19 186.053L293.1 186.79L291.652 152.26L271.411 153.042C271.385 153.939 271.311 155.223 271.189 156.893C270.883 161.837 270.619 165.465 270.396 167.78C270.173 170.094 269.65 172.9 268.827 176.198C268.069 179.494 267.015 181.873 265.667 183.334C264.317 184.731 262.417 186.021 259.969 187.204C257.52 188.388 254.473 189.05 250.828 189.19C248.526 189.279 245.927 189.187 243.033 188.915L242.378 173.281C243.918 173.349 245.04 173.37 245.743 173.343C249.517 173.197 251.817 171.539 252.645 168.369C253.473 165.199 253.989 157.653 254.194 145.732C254.247 142.4 254.298 139.804 254.348 137.945Z" fill="#C27690"/>
<path d="M254.348 137.945L254.264 135.946L252.399 136.018L252.349 137.884L254.348 137.945ZM310.083 135.793L312.081 135.716L311.997 133.718L309.999 133.795L310.083 135.793ZM312.19 186.053L312.274 188.051L314.272 187.974L314.188 185.976L312.19 186.053ZM293.1 186.79L291.102 186.867L291.185 188.865L293.184 188.788L293.1 186.79ZM291.652 152.26L293.651 152.183L293.567 150.185L291.569 150.262L291.652 152.26ZM271.411 153.042L271.328 151.043L269.467 151.115L269.412 152.976L271.411 153.042ZM271.189 156.893L269.194 156.741L269.193 156.752L269.192 156.763L271.189 156.893ZM270.396 167.78L268.405 167.581L270.396 167.78ZM268.827 176.198L266.886 175.709L266.882 175.726L266.878 175.744L268.827 176.198ZM265.667 183.334L267.108 184.726L267.124 184.709L267.14 184.692L265.667 183.334ZM259.969 187.204L259.093 185.403L259.969 187.204ZM243.033 188.915L241.035 188.992L241.108 190.741L242.852 190.906L243.033 188.915ZM242.378 173.281L242.46 171.283L240.288 171.186L240.379 173.358L242.378 173.281ZM254.194 145.732L256.194 145.773L256.194 145.77L254.194 145.732ZM254.432 139.943L310.166 137.791L309.999 133.795L254.264 135.946L254.432 139.943ZM308.084 135.87L310.191 186.13L314.188 185.976L312.081 135.716L308.084 135.87ZM312.106 184.055L293.016 184.792L293.184 188.788L312.274 188.051L312.106 184.055ZM295.099 186.713L293.651 152.183L289.654 152.337L291.102 186.867L295.099 186.713ZM291.569 150.262L271.328 151.043L271.495 155.04L291.736 154.259L291.569 150.262ZM269.412 152.976C269.387 153.83 269.315 155.08 269.194 156.741L273.184 157.045C273.306 155.367 273.383 154.049 273.411 153.107L269.412 152.976ZM269.192 156.763C268.887 161.703 268.625 165.303 268.405 167.581L272.387 167.978C272.614 165.627 272.88 161.97 273.185 157.023L269.192 156.763ZM268.405 167.581C268.194 169.764 267.695 172.467 266.886 175.709L270.768 176.688C271.605 173.334 272.151 170.424 272.387 167.978L268.405 167.581ZM266.878 175.744C266.149 178.909 265.197 180.889 264.195 181.975L267.14 184.692C268.834 182.856 269.988 180.079 270.777 176.653L266.878 175.744ZM264.227 181.941C263.09 183.118 261.408 184.284 259.093 185.403L260.844 189.005C263.426 187.758 265.544 186.344 267.108 184.726L264.227 181.941ZM259.093 185.403C256.961 186.434 254.203 187.059 250.744 187.192L250.912 191.189C254.743 191.041 258.079 190.341 260.844 189.005L259.093 185.403ZM250.744 187.192C248.549 187.277 246.042 187.19 243.215 186.924L242.852 190.906C245.813 191.185 248.502 191.282 250.912 191.189L250.744 187.192ZM245.032 188.838L244.376 173.203L240.379 173.358L241.035 188.992L245.032 188.838ZM242.295 175.278C243.842 175.347 245.035 175.372 245.827 175.341L245.66 171.345C245.045 171.368 243.994 171.351 242.46 171.283L242.295 175.278ZM245.827 175.341C247.98 175.258 249.914 174.736 251.472 173.614C253.055 172.473 254.069 170.84 254.581 168.88L250.71 167.858C250.394 169.068 249.843 169.849 249.126 170.367C248.383 170.902 247.281 171.282 245.66 171.345L245.827 175.341ZM254.581 168.88C255.046 167.097 255.39 164.254 255.649 160.475C255.91 156.655 256.092 151.751 256.194 145.773L252.194 145.691C252.092 151.635 251.913 156.464 251.658 160.189C251.4 163.956 251.072 166.47 250.71 167.858L254.581 168.88ZM256.194 145.77C256.247 142.441 256.298 139.853 256.348 138.005L252.349 137.884C252.298 139.755 252.247 142.359 252.194 145.694L256.194 145.77Z" fill="#1E1E1E"/>
<path d="M354.483 136.074L382.131 136.127L382.026 186.431L363.786 186.396L363.863 149.436L340.65 186.352L313.002 186.299L313.107 135.995L331.347 136.03L331.27 172.99L354.483 136.074Z" fill="#C27690"/>
<path d="M354.483 136.074L354.487 134.074L353.379 134.072L352.79 135.01L354.483 136.074ZM382.131 136.127L384.131 136.131L384.135 134.131L382.135 134.127L382.131 136.127ZM382.026 186.431L382.022 188.431L384.022 188.435L384.026 186.435L382.026 186.431ZM363.786 186.396L361.786 186.392L361.782 188.392L363.782 188.396L363.786 186.396ZM363.863 149.436L365.863 149.44L365.877 142.476L362.17 148.372L363.863 149.436ZM340.65 186.352L340.646 188.352L341.753 188.354L342.343 187.416L340.65 186.352ZM313.002 186.299L311.002 186.295L310.998 188.295L312.998 188.299L313.002 186.299ZM313.107 135.995L313.111 133.995L311.111 133.991L311.107 135.991L313.107 135.995ZM331.347 136.03L333.347 136.034L333.351 134.034L331.351 134.03L331.347 136.03ZM331.27 172.99L329.27 172.986L329.255 179.95L332.963 174.054L331.27 172.99ZM354.479 138.074L382.127 138.127L382.135 134.127L354.487 134.074L354.479 138.074ZM380.131 136.123L380.026 186.427L384.026 186.435L384.131 136.131L380.131 136.123ZM382.03 184.431L363.79 184.396L363.782 188.396L382.022 188.431L382.03 184.431ZM365.786 186.4L365.863 149.44L361.863 149.432L361.786 186.392L365.786 186.4ZM362.17 148.372L338.957 185.287L342.343 187.416L365.556 150.501L362.17 148.372ZM340.654 184.352L313.006 184.299L312.998 188.299L340.646 188.352L340.654 184.352ZM315.002 186.303L315.107 135.999L311.107 135.991L311.002 186.295L315.002 186.303ZM313.103 137.995L331.343 138.03L331.351 134.03L313.111 133.995L313.103 137.995ZM329.347 136.026L329.27 172.986L333.27 172.994L333.347 136.034L329.347 136.026ZM332.963 174.054L356.176 137.139L352.79 135.01L329.577 171.925L332.963 174.054Z" fill="#1E1E1E"/>
<path d="M449.567 170.565C448.256 176.852 444.481 181.657 438.243 184.983C432.008 188.244 424.319 189.683 415.175 189.299C404.177 188.838 395.648 186.206 389.588 181.404C383.531 176.537 380.694 169.917 381.076 161.541C381.457 153.166 384.853 146.839 391.262 142.56C397.739 138.22 406.348 136.275 417.091 136.726C425.979 137.099 433.382 139.139 439.299 142.846C445.216 146.554 448.515 151.496 449.194 157.674L430.634 157.952C429.635 155.989 427.881 154.41 425.372 153.215C422.867 151.957 419.888 151.256 416.435 151.111C411.575 150.907 407.657 151.831 404.681 153.884C401.704 155.937 400.134 158.754 399.971 162.334C399.808 165.915 401.147 168.853 403.99 171.151C406.832 173.448 410.779 174.702 415.831 174.914C419.667 175.075 422.86 174.601 425.409 173.491C428.022 172.383 429.887 170.828 431.004 168.825L449.567 170.565Z" fill="#C27690"/>
<path d="M449.567 170.565L451.526 170.967L451.981 168.782L449.761 168.574L449.567 170.565ZM438.243 184.983L439.166 186.754L439.173 186.75L439.18 186.747L438.243 184.983ZM389.588 181.404L388.332 182.964L388.342 182.972L389.588 181.404ZM391.262 142.56L392.369 144.222L392.372 144.22L391.262 142.56ZM439.299 142.846L438.232 144.542L439.299 142.846ZM449.194 157.674L449.217 159.674L451.423 159.64L451.182 157.449L449.194 157.674ZM430.634 157.952L428.851 158.864L429.414 159.97L430.657 159.952L430.634 157.952ZM425.372 153.215L424.469 155.003L424.488 155.012L424.507 155.021L425.372 153.215ZM404.681 153.884L403.549 152.24L403.549 152.24L404.681 153.884ZM403.99 171.151L402.729 172.707L403.99 171.151ZM425.409 173.491L424.634 171.65L424.625 171.654L424.616 171.658L425.409 173.491ZM431.004 168.825L431.197 166.834L429.895 166.712L429.257 167.857L431.004 168.825ZM447.609 170.163C446.432 175.805 443.079 180.142 437.307 183.219L439.18 186.747C445.884 183.173 450.079 177.898 451.526 170.967L447.609 170.163ZM437.321 183.212C431.479 186.268 424.162 187.675 415.266 187.301L415.084 191.297C424.476 191.691 432.538 190.221 439.166 186.754L437.321 183.212ZM415.266 187.301C404.517 186.85 396.451 184.286 390.834 179.835L388.342 182.972C394.844 188.125 403.836 190.825 415.084 191.297L415.266 187.301ZM390.845 179.843C385.326 175.409 382.719 169.422 383.074 161.625L379.077 161.458C378.669 170.411 381.737 177.665 388.332 182.964L390.845 179.843ZM383.074 161.625C383.43 153.82 386.544 148.11 392.369 144.222L390.156 140.898C383.162 145.567 379.485 152.512 379.077 161.458L383.074 161.625ZM392.372 144.22C398.381 140.192 406.524 138.284 417 138.724L417.182 134.728C406.172 134.266 397.096 136.247 390.153 140.9L392.372 144.22ZM417 138.724C425.634 139.086 432.678 141.062 438.232 144.542L440.366 141.151C434.086 137.216 426.324 135.111 417.182 134.728L417 138.724ZM438.232 144.542C443.707 147.972 446.602 152.408 447.206 157.9L451.182 157.449C450.427 150.584 446.726 145.136 440.366 141.151L438.232 144.542ZM449.171 155.675L430.611 155.953L430.657 159.952L449.217 159.674L449.171 155.675ZM432.418 157.04C431.172 154.593 429.038 152.742 426.238 151.409L424.507 155.021C426.724 156.077 428.097 157.384 428.851 158.864L432.418 157.04ZM426.276 151.428C423.466 150.017 420.198 149.267 416.526 149.113L416.344 153.109C419.578 153.244 422.268 153.897 424.469 155.003L426.276 151.428ZM416.526 149.113C411.381 148.897 406.991 149.866 403.549 152.24L405.813 155.529C408.324 153.797 411.769 152.917 416.344 153.109L416.526 149.113ZM403.549 152.24C400.06 154.646 398.165 158.039 397.973 162.25L401.969 162.418C402.104 159.47 403.349 157.228 405.813 155.529L403.549 152.24ZM397.973 162.25C397.78 166.48 399.406 170.022 402.729 172.707L405.251 169.594C402.889 167.685 401.836 165.349 401.969 162.418L397.973 162.25ZM402.729 172.707C406.009 175.358 410.42 176.689 415.74 176.912L415.922 172.916C411.138 172.716 407.655 171.537 405.251 169.594L402.729 172.707ZM415.74 176.912C419.77 177.081 423.289 176.592 426.203 175.323L424.616 171.658C422.431 172.609 419.565 173.069 415.922 172.916L415.74 176.912ZM426.184 175.331C429.109 174.092 431.368 172.273 432.75 169.794L429.257 167.857C428.406 169.383 426.936 170.675 424.634 171.65L426.184 175.331ZM430.81 170.816L449.374 172.556L449.761 168.574L431.197 166.834L430.81 170.816Z" fill="#1E1E1E"/>
<path d="M455.088 184.604C448.996 179.418 446.316 172.713 447.048 164.489C447.779 156.266 451.602 150.125 458.517 146.069C465.437 141.948 474.351 140.334 485.259 141.228C496.166 142.121 504.666 145.161 510.758 150.348C516.856 155.471 519.539 162.144 518.807 170.368C518.076 178.591 514.25 184.763 507.329 188.884C500.415 192.941 491.504 194.522 480.596 193.629C469.689 192.735 461.186 189.727 455.088 184.604ZM471.142 157.987C467.94 160.036 466.191 162.718 465.897 166.033C465.602 169.348 466.851 172.276 469.645 174.816C472.439 177.357 476.514 178.847 481.873 179.286C487.231 179.724 491.511 178.919 494.713 176.87C497.915 174.821 499.663 172.138 499.958 168.824C500.253 165.509 499.004 162.581 496.21 160.04C493.416 157.5 489.34 156.01 483.982 155.571C478.624 155.132 474.344 155.938 471.142 157.987Z" fill="#C27690"/>
<path d="M455.088 184.604L453.784 186.129L453.794 186.138L455.088 184.604ZM458.517 146.069L459.522 147.79L459.533 147.784L458.517 146.069ZM510.758 150.348L509.454 151.873L509.464 151.881L510.758 150.348ZM507.329 188.884L508.334 190.606L508.345 190.599L507.329 188.884ZM471.142 157.987L470.071 156.306L470.071 156.306L471.142 157.987ZM469.645 174.816L468.292 176.299L469.645 174.816ZM494.713 176.87L493.641 175.189L494.713 176.87ZM496.21 160.04L494.857 161.523L496.21 160.04ZM456.393 183.079C450.806 178.324 448.365 172.255 449.041 164.652L445.054 164.326C444.267 173.17 447.186 180.512 453.784 186.129L456.393 183.079ZM449.041 164.652C449.717 157.051 453.191 151.504 459.522 147.79L457.512 144.347C450.014 148.747 445.841 155.481 445.054 164.326L449.041 164.652ZM459.533 147.784C465.983 143.943 474.442 142.348 485.081 143.22L485.436 139.236C474.26 138.32 464.891 139.953 457.501 144.354L459.533 147.784ZM485.081 143.22C495.721 144.092 503.775 147.038 509.454 151.873L512.062 148.823C505.557 143.284 496.611 140.151 485.436 139.236L485.081 143.22ZM509.464 151.881C515.046 156.571 517.49 162.603 516.814 170.204L520.801 170.531C521.588 161.686 518.665 154.37 512.052 148.815L509.464 151.881ZM516.814 170.204C516.138 177.807 512.659 183.39 506.313 187.169L508.345 190.599C515.84 186.136 520.014 179.375 520.801 170.531L516.814 170.204ZM506.325 187.162C499.878 190.945 491.418 192.509 480.774 191.637L480.419 195.621C491.59 196.536 500.952 194.937 508.334 190.606L506.325 187.162ZM480.774 191.637C470.129 190.765 462.068 187.847 456.383 183.071L453.794 186.138C460.305 191.607 469.249 194.706 480.419 195.621L480.774 191.637ZM470.071 156.306C466.426 158.639 464.261 161.844 463.903 165.87L467.89 166.197C468.121 163.593 469.454 161.433 472.213 159.668L470.071 156.306ZM463.903 165.87C463.545 169.896 465.112 173.407 468.292 176.299L470.998 173.334C468.59 171.145 467.658 168.8 467.89 166.197L463.903 165.87ZM468.292 176.299C471.521 179.235 476.078 180.818 481.695 181.278L482.05 177.293C476.951 176.876 473.356 175.479 470.998 173.334L468.292 176.299ZM481.695 181.278C487.313 181.738 492.083 180.919 495.784 178.551L493.641 175.189C490.938 176.919 487.148 177.711 482.05 177.293L481.695 181.278ZM495.784 178.551C499.429 176.218 501.594 173.013 501.952 168.987L497.965 168.66C497.733 171.264 496.401 173.423 493.641 175.189L495.784 178.551ZM501.952 168.987C502.31 164.96 500.743 161.45 497.563 158.558L494.857 161.523C497.265 163.712 498.197 166.057 497.965 168.66L501.952 168.987ZM497.563 158.558C494.334 155.622 489.777 154.039 484.16 153.579L483.805 157.563C488.904 157.981 492.499 159.378 494.857 161.523L497.563 158.558ZM484.16 153.579C478.542 153.119 473.772 153.937 470.071 156.306L472.213 159.668C474.917 157.938 478.707 157.146 483.805 157.563L484.16 153.579Z" fill="#1E1E1E"/>
<path d="M565.136 175.2C570.668 176.324 574.742 177.981 577.358 180.168C579.974 182.356 581.03 185.354 580.527 189.16C580.309 190.81 579.818 192.33 579.053 193.72C578.297 195.046 577.02 196.406 575.222 197.798C573.496 199.136 570.855 200.072 567.298 200.606C563.814 201.084 559.594 201.022 554.638 200.419L514.9 195.584L521.489 145.714L559.418 150.329C567.804 151.349 573.621 153.249 576.868 156.03C580.179 158.818 581.592 162.052 581.106 165.732C580.309 171.76 574.986 174.916 565.136 175.2ZM538.731 161.06L537.951 166.961L554.628 168.99C559.075 169.531 561.429 168.818 561.689 166.851C561.949 164.884 559.601 163.599 554.645 162.996L538.731 161.06ZM553.884 187.079C558.903 187.69 561.563 186.853 561.865 184.569C562.167 182.285 559.618 180.814 554.217 180.157L536.492 178.001L535.587 184.853L553.884 187.079Z" fill="#C27690"/>
<path d="M565.136 175.2L565.098 173.203L564.718 177.157L565.136 175.2ZM577.358 180.168L578.654 178.633L577.358 180.168ZM579.053 193.72L580.792 194.694L580.799 194.681L580.807 194.667L579.053 193.72ZM575.222 197.798L574.004 196.226L575.222 197.798ZM567.298 200.606L567.552 202.585L567.565 202.583L567.577 202.581L567.298 200.606ZM514.9 195.584L512.914 195.343L512.652 197.326L514.637 197.567L514.9 195.584ZM521.489 145.714L521.751 143.731L519.766 143.49L519.504 145.472L521.489 145.714ZM576.868 156.03L575.555 157.551L575.561 157.556L575.568 157.561L576.868 156.03ZM538.731 161.06L538.993 159.077L537.007 158.836L536.745 160.818L538.731 161.06ZM537.951 166.961L535.966 166.719L535.704 168.702L537.689 168.943L537.951 166.961ZM536.492 178.001L536.754 176.018L534.769 175.776L534.507 177.759L536.492 178.001ZM535.587 184.853L533.601 184.612L533.339 186.594L535.325 186.836L535.587 184.853ZM564.718 177.157C570.112 178.254 573.812 179.822 576.062 181.704L578.654 178.633C575.672 176.139 571.225 174.395 565.555 173.243L564.718 177.157ZM576.062 181.704C578.089 183.399 578.969 185.69 578.542 188.919L582.513 189.402C583.092 185.017 581.858 181.313 578.654 178.633L576.062 181.704ZM578.542 188.919C578.355 190.335 577.938 191.613 577.3 192.772L580.807 194.667C581.698 193.047 582.264 191.286 582.513 189.402L578.542 188.919ZM577.315 192.745C576.739 193.756 575.684 194.924 574.004 196.226L576.441 199.371C578.356 197.887 579.855 196.336 580.792 194.694L577.315 192.745ZM574.004 196.226C572.676 197.255 570.432 198.118 567.02 198.631L567.577 202.581C571.278 202.025 574.317 201.017 576.441 199.371L574.004 196.226ZM567.045 198.627C563.787 199.075 559.751 199.027 554.9 198.437L554.376 202.402C559.437 203.018 563.841 203.094 567.552 202.585L567.045 198.627ZM554.9 198.437L515.162 193.602L514.637 197.567L554.376 202.402L554.9 198.437ZM516.885 195.826L523.475 145.955L519.504 145.472L512.914 195.343L516.885 195.826ZM521.227 147.697L559.156 152.311L559.68 148.346L521.751 143.731L521.227 147.697ZM559.156 152.311C567.466 153.322 572.776 155.171 575.555 157.551L578.181 154.509C574.466 151.327 568.142 149.375 559.68 148.346L559.156 152.311ZM575.568 157.561C578.466 160.002 579.501 162.606 579.12 165.491L583.091 165.974C583.682 161.498 581.893 157.634 578.169 154.498L575.568 157.561ZM579.12 165.491C578.804 167.883 577.641 169.639 575.505 170.905C573.266 172.233 569.865 173.066 565.098 173.203L565.174 177.197C570.257 177.05 574.443 176.162 577.526 174.334C580.714 172.444 582.611 169.609 583.091 165.974L579.12 165.491ZM536.745 160.818L535.966 166.719L539.936 167.202L540.716 161.301L536.745 160.818ZM537.689 168.943L554.366 170.972L554.89 167.007L538.213 164.978L537.689 168.943ZM554.366 170.972C556.675 171.253 558.71 171.251 560.293 170.772C561.109 170.524 561.9 170.122 562.53 169.476C563.181 168.808 563.556 167.984 563.674 167.093L559.703 166.609C559.691 166.701 559.674 166.704 559.672 166.706C559.649 166.73 559.525 166.841 559.164 166.95C558.394 167.183 557.029 167.267 554.89 167.007L554.366 170.972ZM563.674 167.093C563.799 166.146 563.604 165.224 563.084 164.415C562.59 163.645 561.871 163.081 561.099 162.659C559.589 161.832 557.458 161.324 554.907 161.013L554.383 164.979C556.788 165.272 558.309 165.707 559.146 166.165C559.549 166.386 559.677 166.55 559.705 166.593C559.708 166.596 559.708 166.573 559.703 166.609L563.674 167.093ZM554.907 161.013L538.993 159.077L538.469 163.043L554.383 164.979L554.907 161.013ZM553.622 189.062C556.22 189.378 558.483 189.363 560.228 188.814C561.126 188.532 561.976 188.08 562.644 187.376C563.331 186.653 563.724 185.769 563.85 184.811L559.88 184.327C559.855 184.512 559.802 184.589 559.749 184.645C559.676 184.722 559.49 184.869 559.058 185.005C558.143 185.293 556.567 185.391 554.146 185.096L553.622 189.062ZM563.85 184.811C563.981 183.818 563.801 182.844 563.279 181.972C562.776 181.133 562.027 180.502 561.195 180.021C559.569 179.083 557.259 178.513 554.479 178.174L553.955 182.14C556.576 182.459 558.241 182.952 559.164 183.485C559.606 183.74 559.775 183.946 559.835 184.045C559.875 184.112 559.899 184.178 559.88 184.327L563.85 184.811ZM554.479 178.174L536.754 176.018L536.23 179.983L553.955 182.14L554.479 178.174ZM534.507 177.759L533.601 184.612L537.572 185.095L538.477 178.242L534.507 177.759ZM535.325 186.836L553.622 189.062L554.146 185.096L535.849 182.87L535.325 186.836Z" fill="#1E1E1E"/>
</g>
<g filter="url(#filter1_d)">
<path d="M23.781 125.526L14.392 76.1064L78.2227 64.9408L87.6118 114.361L68.7935 117.653L62.343 83.6999L36.1488 88.282L42.5993 122.235L23.781 125.526Z" fill="#C27690"/>
<path d="M23.781 125.526L21.8109 125.871L22.1842 127.836L24.1543 127.491L23.781 125.526ZM14.392 76.1064L14.0187 74.1416L12.0486 74.4862L12.4219 76.451L14.392 76.1064ZM78.2227 64.9408L80.1928 64.5961L79.8195 62.6313L77.8494 62.9759L78.2227 64.9408ZM87.6118 114.361L87.9851 116.326L89.9552 115.981L89.5819 114.016L87.6118 114.361ZM68.7935 117.653L66.8234 117.997L67.1967 119.962L69.1668 119.617L68.7935 117.653ZM62.343 83.6999L64.3131 83.3553L63.9398 81.3904L61.9697 81.735L62.343 83.6999ZM36.1488 88.282L35.7755 86.3171L33.8054 86.6617L34.1787 88.6266L36.1488 88.282ZM42.5993 122.235L42.9726 124.199L44.9426 123.855L44.5693 121.89L42.5993 122.235ZM25.7511 125.182L16.362 75.7618L12.4219 76.451L21.8109 125.871L25.7511 125.182ZM14.7652 78.0713L78.596 66.9056L77.8494 62.9759L14.0187 74.1416L14.7652 78.0713ZM76.2527 65.2854L85.6417 114.705L89.5819 114.016L80.1928 64.5961L76.2527 65.2854ZM87.2385 112.396L68.4202 115.688L69.1668 119.617L87.9851 116.326L87.2385 112.396ZM70.7636 117.308L64.3131 83.3553L60.3729 84.0445L66.8234 117.997L70.7636 117.308ZM61.9697 81.735L35.7755 86.3171L36.5221 90.2468L62.7163 85.6648L61.9697 81.735ZM34.1787 88.6266L40.6292 122.579L44.5693 121.89L38.1189 87.9373L34.1787 88.6266ZM42.226 120.27L23.4077 123.562L24.1543 127.491L42.9726 124.199L42.226 120.27Z" fill="#1E1E1E"/>
<path d="M121.484 58.2069C130.111 57.0541 137.493 58.4567 143.629 62.4146C149.819 66.3008 153.497 72.2657 154.664 80.3094C155.832 88.3532 154.028 95.083 149.252 100.499C144.468 105.851 137.794 109.1 129.23 110.244C119.714 111.516 112.124 109.786 106.458 105.055L110.222 130.991L91.2861 133.521L81.3041 64.7378L98.9076 62.3857L100.148 70.9361C103.778 63.8655 110.89 59.6224 121.484 58.2069ZM108.614 95.1789C111.908 96.934 116.092 97.4725 121.167 96.7944C126.242 96.1162 130.082 94.5055 132.688 91.9622C135.357 89.4103 136.434 86.361 135.919 82.8142C135.404 79.2673 133.5 76.6164 130.206 74.8613C126.975 73.0978 122.823 72.5551 117.748 73.2332C112.673 73.9113 108.801 75.5262 106.132 78.078C103.526 80.6214 102.481 83.6665 102.996 87.2133C103.51 90.7602 105.383 93.4154 108.614 95.1789Z" fill="#C27690"/>
<path d="M143.629 62.4146L142.553 64.0877L142.564 64.0945L142.574 64.1011L143.629 62.4146ZM149.252 100.499L150.754 101.836L150.763 101.826L149.252 100.499ZM106.458 105.055L107.734 103.53L103.731 100.187L104.475 105.32L106.458 105.055ZM110.222 130.991L110.509 132.97L112.491 132.706L112.204 130.726L110.222 130.991ZM91.2861 133.521L89.3037 133.786L89.5909 135.765L91.5733 135.501L91.2861 133.521ZM81.3041 64.7378L81.0169 62.7586L79.0345 63.0234L79.3217 65.0027L81.3041 64.7378ZM98.9076 62.3857L100.89 62.1208L100.603 60.1415L98.6204 60.4064L98.9076 62.3857ZM100.148 70.9361L98.1661 71.201L99.0711 77.4371L101.934 71.8611L100.148 70.9361ZM108.614 95.1789L107.666 96.928L107.675 96.933L107.684 96.9378L108.614 95.1789ZM132.688 91.9622L131.293 90.5138L131.286 90.5208L131.278 90.5279L132.688 91.9622ZM130.206 74.8613L129.259 76.6104L129.268 76.6154L129.277 76.6202L130.206 74.8613ZM106.132 78.078L104.737 76.6297L104.73 76.6367L104.723 76.6438L106.132 78.078ZM121.771 60.1861C130.023 59.0836 136.899 60.4403 142.553 64.0877L144.704 60.7415C138.087 56.473 130.2 55.0246 121.197 56.2276L121.771 60.1861ZM142.574 64.1011C148.197 67.6313 151.588 73.0377 152.682 80.5743L156.647 80.0445C155.406 71.4936 151.44 64.9702 144.683 60.7281L142.574 64.1011ZM152.682 80.5743C153.777 88.1187 152.086 94.2449 147.742 99.1713L150.763 101.826C155.97 95.9211 157.887 88.5876 156.647 80.0445L152.682 80.5743ZM147.751 99.1613C143.339 104.096 137.133 107.17 128.943 108.265L129.517 112.223C138.454 111.029 145.596 107.607 150.754 101.836L147.751 99.1613ZM128.943 108.265C119.805 109.486 112.84 107.793 107.734 103.53L105.182 106.58C111.407 111.778 119.624 113.545 129.517 112.223L128.943 108.265ZM104.475 105.32L108.239 131.256L112.204 130.726L108.44 104.79L104.475 105.32ZM109.935 129.012L90.9988 131.542L91.5733 135.501L110.509 132.97L109.935 129.012ZM93.2684 133.256L83.2865 64.4729L79.3217 65.0027L89.3037 133.786L93.2684 133.256ZM81.5913 66.7171L99.1949 64.3649L98.6204 60.4064L81.0169 62.7586L81.5913 66.7171ZM96.9253 62.6505L98.1661 71.201L102.131 70.6712L100.89 62.1208L96.9253 62.6505ZM101.934 71.8611C105.174 65.5495 111.583 61.5474 121.771 60.1861L121.197 56.2276C110.197 57.6974 102.383 62.1814 98.3633 70.0111L101.934 71.8611ZM107.684 96.9378C111.47 98.9547 116.117 99.4868 121.454 98.7736L120.88 94.8151C116.068 95.4581 112.345 94.9132 109.543 93.42L107.684 96.9378ZM121.454 98.7736C126.789 98.0609 131.087 96.3348 134.097 93.3964L131.278 90.5279C129.078 92.6762 125.695 94.1716 120.88 94.8151L121.454 98.7736ZM134.082 93.4106C137.193 90.4364 138.512 86.7576 137.901 82.5493L133.937 83.079C134.355 85.9644 133.52 88.3843 131.293 90.5138L134.082 93.4106ZM137.901 82.5493C137.291 78.341 134.974 75.1479 131.135 73.1024L129.277 76.6202C132.026 78.0848 133.518 80.1936 133.937 83.079L137.901 82.5493ZM131.153 73.1122C127.421 71.0747 122.795 70.5411 117.461 71.2539L118.035 75.2124C122.85 74.569 126.53 75.1208 129.259 76.6104L131.153 73.1122ZM117.461 71.2539C112.123 71.9671 107.804 73.6971 104.737 76.6297L107.527 79.5264C109.797 77.3553 113.223 75.8554 118.035 75.2124L117.461 71.2539ZM104.723 76.6438C101.677 79.6168 100.405 83.2878 101.013 87.4782L104.978 86.9485C104.557 84.0452 105.376 81.626 107.541 79.5123L104.723 76.6438ZM101.013 87.4782C101.621 91.6687 103.89 94.8666 107.666 96.928L109.561 93.4298C106.876 91.9641 105.399 89.8517 104.978 86.9485L101.013 87.4782Z" fill="#1E1E1E"/>
<path d="M193.126 51.8877L220.659 49.3595L225.651 99.4152L207.487 101.083L203.819 64.3055L184.448 103.199L156.916 105.727L151.924 55.6711L170.087 54.0032L173.755 90.7808L193.126 51.8877Z" fill="#C27690"/>
<path d="M193.126 51.8877L192.928 49.8975L191.825 49.9988L191.333 50.9867L193.126 51.8877ZM220.659 49.3595L222.65 49.1767L222.452 47.1865L220.46 47.3694L220.659 49.3595ZM225.651 99.4152L225.849 101.405L227.841 101.222L227.642 99.2324L225.651 99.4152ZM207.487 101.083L205.495 101.266L205.694 103.256L207.685 103.073L207.487 101.083ZM203.819 64.3055L205.811 64.1226L205.12 57.1926L202.026 63.4046L203.819 64.3055ZM184.448 103.199L184.646 105.189L185.749 105.087L186.241 104.1L184.448 103.199ZM156.916 105.727L154.924 105.91L155.123 107.9L157.114 107.717L156.916 105.727ZM151.924 55.6711L151.725 53.6809L149.734 53.8638L149.932 55.8539L151.924 55.6711ZM170.087 54.0032L172.079 53.8203L171.88 51.8302L169.889 52.0131L170.087 54.0032ZM173.755 90.7808L171.763 90.9636L172.455 97.8937L175.549 91.6817L173.755 90.7808ZM193.325 53.8778L220.857 51.3497L220.46 47.3694L192.928 49.8975L193.325 53.8778ZM218.667 49.5424L223.659 99.5981L227.642 99.2324L222.65 49.1767L218.667 49.5424ZM225.452 97.4251L207.288 99.093L207.685 103.073L225.849 101.405L225.452 97.4251ZM209.479 100.9L205.811 64.1226L201.828 64.4884L205.495 101.266L209.479 100.9ZM202.026 63.4046L182.654 102.298L186.241 104.1L205.613 65.2065L202.026 63.4046ZM184.249 101.209L156.717 103.737L157.114 107.717L184.646 105.189L184.249 101.209ZM158.907 105.544L153.915 55.4882L149.932 55.8539L154.924 105.91L158.907 105.544ZM152.122 57.6612L170.286 55.9933L169.889 52.0131L151.725 53.6809L152.122 57.6612ZM168.096 54.1861L171.763 90.9636L175.747 90.5979L172.079 53.8203L168.096 54.1861ZM175.549 91.6817L194.92 52.7886L191.333 50.9867L171.962 89.8798L175.549 91.6817Z" fill="#1E1E1E"/>
<path d="M271.282 71.0712C276.932 71.2257 281.247 72.1547 284.228 73.858C287.209 75.5613 288.808 78.3299 289.025 82.1638C289.118 83.8251 288.919 85.4056 288.427 86.9052C287.931 88.3409 286.93 89.8991 285.422 91.5797C283.975 93.1931 281.553 94.5689 278.156 95.707C274.819 96.7779 270.658 97.4431 265.673 97.7026L225.695 99.7836L222.855 49.5598L261.012 47.5736C269.448 47.1344 275.523 48.0038 279.236 50.1817C283.012 52.3563 285.006 55.2967 285.215 59.0027C285.558 65.073 280.914 69.0959 271.282 71.0712ZM242.676 61.6978L243.012 67.6403L259.789 66.7669C264.263 66.534 266.444 65.4272 266.332 63.4463C266.22 61.4655 263.671 60.6048 258.686 60.8643L242.676 61.6978ZM262.438 84.7013C267.487 84.4385 269.946 83.1569 269.816 80.8566C269.686 78.5563 266.905 77.5475 261.472 77.8303L243.64 78.7585L244.031 85.6595L262.438 84.7013Z" fill="#C27690"/>
<path d="M271.282 71.0712L270.872 69.1124L271.236 73.07L271.282 71.0712ZM284.228 73.858L285.215 72.1232L284.228 73.858ZM288.427 86.9052L290.319 87.565L290.324 87.5506L290.328 87.536L288.427 86.9052ZM285.422 91.5797L283.93 90.2413L285.422 91.5797ZM278.156 95.707L278.775 97.611L278.787 97.6071L278.799 97.6031L278.156 95.707ZM225.695 99.7836L223.697 99.8876L223.81 101.884L225.808 101.78L225.695 99.7836ZM222.855 49.5598L222.742 47.563L220.745 47.667L220.858 49.6638L222.855 49.5598ZM279.236 50.1817L278.229 51.9051L278.236 51.9092L278.243 51.9132L279.236 50.1817ZM242.676 61.6978L242.563 59.7009L240.566 59.8049L240.679 61.8017L242.676 61.6978ZM243.012 67.6403L241.015 67.7442L241.127 69.741L243.125 69.6371L243.012 67.6403ZM243.64 78.7585L243.528 76.7617L241.53 76.8657L241.643 78.8625L243.64 78.7585ZM244.031 85.6595L242.033 85.7635L242.146 87.7603L244.143 87.6563L244.031 85.6595ZM271.236 73.07C276.746 73.2207 280.677 74.1275 283.241 75.5928L285.215 72.1232C281.818 70.1818 277.118 69.2308 271.328 69.0725L271.236 73.07ZM283.241 75.5928C285.551 76.9127 286.843 79.0158 287.027 82.2678L291.022 82.0598C290.772 77.6441 288.867 74.21 285.215 72.1232L283.241 75.5928ZM287.027 82.2678C287.108 83.6934 286.937 85.0237 286.526 86.2744L290.328 87.536C290.902 85.7875 291.129 83.9569 291.022 82.0598L287.027 82.2678ZM286.536 86.2454C286.158 87.3392 285.339 88.6705 283.93 90.2413L286.914 92.9181C288.521 91.1276 289.705 89.3426 290.319 87.565L286.536 86.2454ZM283.93 90.2413C282.817 91.4826 280.772 92.7188 277.512 93.8108L278.799 97.6031C282.334 96.4189 285.134 94.9035 286.914 92.9181L283.93 90.2413ZM277.537 93.8029C274.417 94.8042 270.439 95.4518 265.56 95.7058L265.786 99.6994C270.877 99.4344 275.221 98.7515 278.775 97.611L277.537 93.8029ZM265.56 95.7058L225.582 97.7868L225.808 101.78L265.786 99.6994L265.56 95.7058ZM227.692 99.6797L224.853 49.4559L220.858 49.6638L223.697 99.8876L227.692 99.6797ZM222.968 51.5566L261.125 49.5704L260.899 45.5768L222.742 47.563L222.968 51.5566ZM261.125 49.5704C269.485 49.1352 275.051 50.0411 278.229 51.9051L280.243 48.4584C275.995 45.9665 269.412 45.1337 260.899 45.5768L261.125 49.5704ZM278.243 51.9132C281.549 53.8168 283.054 56.2017 283.218 59.1067L287.212 58.8988C286.958 54.3916 284.476 50.8959 280.229 48.4502L278.243 51.9132ZM283.218 59.1067C283.354 61.5158 282.539 63.4452 280.675 65.059C278.721 66.7517 275.533 68.1565 270.872 69.1124L271.693 73.03C276.663 72.0106 280.613 70.4163 283.303 68.0861C286.084 65.6771 287.419 62.5599 287.212 58.8988L283.218 59.1067ZM240.679 61.8017L241.015 67.7442L245.009 67.5363L244.673 61.5938L240.679 61.8017ZM243.125 69.6371L259.902 68.7637L259.676 64.7701L242.899 65.6435L243.125 69.6371ZM259.902 68.7637C262.225 68.6428 264.225 68.2903 265.692 67.5458C266.448 67.1621 267.151 66.6298 267.65 65.8859C268.166 65.116 268.38 64.2407 268.329 63.3424L264.335 63.5503C264.34 63.6424 264.324 63.6483 264.322 63.6503C264.304 63.6783 264.203 63.8087 263.868 63.9784C263.154 64.3408 261.828 64.6581 259.676 64.7701L259.902 68.7637ZM268.329 63.3424C268.275 62.3889 267.911 61.515 267.249 60.8079C266.619 60.1352 265.807 59.7039 264.969 59.4212C263.329 58.8673 261.14 58.7339 258.573 58.8675L258.799 62.8612C261.218 62.7352 262.795 62.9024 263.704 63.2092C264.141 63.3568 264.298 63.4959 264.333 63.5336C264.337 63.5369 264.333 63.5133 264.335 63.5503L268.329 63.3424ZM258.573 58.8675L242.563 59.7009L242.789 63.6946L258.799 62.8612L258.573 58.8675ZM262.551 86.6981C265.164 86.5621 267.387 86.1575 269 85.3169C269.831 84.8842 270.582 84.2935 271.107 83.4858C271.647 82.6553 271.868 81.7174 271.814 80.7526L267.819 80.9605C267.829 81.1459 267.792 81.2308 267.75 81.2958C267.692 81.3836 267.537 81.5611 267.138 81.7691C266.292 82.2101 264.76 82.5777 262.325 82.7045L262.551 86.6981ZM271.814 80.7526C271.757 79.7526 271.397 78.825 270.721 78.0568C270.07 77.3171 269.216 76.8249 268.308 76.4955C266.534 75.8521 264.156 75.6879 261.359 75.8335L261.585 79.8271C264.221 79.6899 265.95 79.8887 266.958 80.254C267.44 80.429 267.645 80.6026 267.722 80.6902C267.774 80.7492 267.811 80.8104 267.819 80.9605L271.814 80.7526ZM261.359 75.8335L243.528 76.7617L243.753 80.7553L261.585 79.8271L261.359 75.8335ZM241.643 78.8625L242.033 85.7635L246.028 85.5555L245.638 78.6545L241.643 78.8625ZM244.143 87.6563L262.551 86.6981L262.325 82.7045L243.918 83.6627L244.143 87.6563Z" fill="#1E1E1E"/>
<path d="M357.004 74.5433L357.03 76.3671L306.251 77.0365C308.501 82.1912 314.33 84.7066 323.737 84.5826C330.072 84.4991 334.632 83.3189 337.415 81.042L356.241 81.562C354.392 86.5788 350.704 90.4677 345.175 93.2288C339.709 95.9251 332.624 97.3306 323.921 97.4453C312.466 97.5963 303.38 95.5719 296.663 91.3721C290.009 87.1074 286.619 80.5275 286.492 71.6324C286.365 62.8013 289.502 56.1674 295.904 51.7306C302.369 47.2931 311.169 45.0009 322.304 44.8541C333.695 44.7039 342.272 46.9911 348.037 51.7155C353.865 56.4391 356.854 64.0484 357.004 74.5433ZM322.488 57.7168C313.529 57.8349 308.062 60.4991 306.089 65.7096L338.054 65.2883C337.02 60.1174 331.831 57.5936 322.488 57.7168Z" fill="#C27690"/>
<path d="M357.03 76.3671L357.059 78.3669L359.059 78.3405L359.03 76.3407L357.03 76.3671ZM306.251 77.0365L306.222 75.0367L303.214 75.0763L304.418 77.8348L306.251 77.0365ZM337.415 81.042L337.468 79.0428L336.724 79.0223L336.148 79.4934L337.415 81.042ZM356.241 81.562L358.118 82.2552L359.081 79.6397L356.294 79.5628L356.241 81.562ZM345.175 93.2288L346.061 95.0226L346.07 95.0183L345.175 93.2288ZM296.663 91.3721L295.585 93.0555L295.595 93.0615L295.604 93.0675L296.663 91.3721ZM295.904 51.7306L294.77 50.0813L294.763 50.0865L295.904 51.7306ZM348.037 51.7155L346.77 53.2617L346.778 53.2687L348.037 51.7155ZM306.089 65.7096L304.218 64.9993L303.177 67.7482L306.117 67.7094L306.089 65.7096ZM338.054 65.2883L338.083 67.2881L340.487 67.2564L340.015 64.8982L338.054 65.2883ZM355.005 74.5696L355.031 76.3935L359.03 76.3407L359.004 74.5169L355.005 74.5696ZM357.002 74.3673L306.222 75.0367L306.28 79.0363L357.059 78.3669L357.002 74.3673ZM304.418 77.8348C307.176 84.1523 314.148 86.7092 323.765 86.5824L323.708 82.5828C314.511 82.7041 309.826 80.2302 308.084 76.2381L304.418 77.8348ZM323.765 86.5824C330.245 86.497 335.369 85.3014 338.683 82.5907L336.148 79.4934C333.895 81.3364 329.899 82.5012 323.708 82.5828L323.765 86.5824ZM337.362 83.0412L356.188 83.5612L356.294 79.5628L337.468 79.0428L337.362 83.0412ZM354.364 80.8687C352.719 85.3342 349.43 88.8674 344.279 91.4394L346.07 95.0183C351.978 92.068 356.066 87.8233 358.118 82.2552L354.364 80.8687ZM344.288 91.435C339.178 93.9557 332.416 95.3332 323.892 95.4455L323.949 99.4451C332.832 99.328 340.239 97.8945 346.061 95.0226L344.288 91.435ZM323.892 95.4455C312.659 95.5936 303.998 93.6008 297.722 89.6767L295.604 93.0675C302.762 97.543 312.273 99.599 323.949 99.4451L323.892 95.4455ZM297.741 89.6886C291.732 85.8374 288.611 79.9289 288.491 71.6061L284.492 71.6588C284.627 81.1262 288.287 88.3774 295.585 93.0555L297.741 89.6886ZM288.491 71.6061C288.373 63.3368 291.27 57.3772 297.044 53.3748L294.763 50.0865C287.735 54.9576 284.357 62.2659 284.492 71.6588L288.491 71.6061ZM297.037 53.38C303.067 49.2411 311.434 46.9975 322.332 46.8539L322.275 42.8543C310.904 43.0042 301.671 45.345 294.77 50.0813L297.037 53.38ZM322.332 46.8539C333.491 46.7068 341.521 48.9593 346.77 53.2617L349.303 50.1693C343.024 45.0229 333.899 42.7011 322.275 42.8543L322.332 46.8539ZM346.778 53.2687C351.982 57.486 354.859 64.4201 355.005 74.5696L359.004 74.5169C358.849 63.6766 355.748 55.3922 349.295 50.1624L346.778 53.2687ZM322.459 55.717C313.242 55.8385 306.641 58.6043 304.218 64.9993L307.959 66.4199C309.484 62.394 313.815 59.8313 322.517 59.7166L322.459 55.717ZM306.117 67.7094L338.083 67.2881L338.025 63.2885L306.06 63.7098L306.117 67.7094ZM340.015 64.8982C339.363 61.6358 337.356 59.225 334.26 57.719C331.263 56.2611 327.271 55.6536 322.459 55.717L322.517 59.7166C327.048 59.6568 330.322 60.2496 332.514 61.3156C334.606 62.3334 335.711 63.7699 336.093 65.6783L340.015 64.8982Z" fill="#1E1E1E"/>
<path d="M352.602 61.5738L353.022 45.8354L417.994 47.4168L417.575 63.1552L394.637 62.5969L393.716 97.1446L374.617 96.6798L375.539 62.1321L352.602 61.5738Z" fill="#C27690"/>
<path d="M352.602 61.5738L350.602 61.5251L350.549 63.5244L352.548 63.5731L352.602 61.5738ZM353.022 45.8354L353.075 43.8361L351.075 43.7874L351.022 45.7867L353.022 45.8354ZM417.994 47.4168L419.994 47.4655L420.047 45.4662L418.048 45.4175L417.994 47.4168ZM417.575 63.1552L417.521 65.1545L419.521 65.2032L419.574 63.2039L417.575 63.1552ZM394.637 62.5969L394.691 60.5976L392.691 60.549L392.638 62.5483L394.637 62.5969ZM393.716 97.1446L393.663 99.1439L395.662 99.1926L395.715 97.1933L393.716 97.1446ZM374.617 96.6798L372.618 96.6311L372.565 98.6304L374.564 98.6791L374.617 96.6798ZM375.539 62.1321L377.538 62.1807L377.592 60.1814L375.592 60.1328L375.539 62.1321ZM354.601 61.6224L355.021 45.884L351.022 45.7867L350.602 61.5251L354.601 61.6224ZM352.968 47.8347L417.941 49.4161L418.048 45.4175L353.075 43.8361L352.968 47.8347ZM415.995 47.3681L415.575 63.1066L419.574 63.2039L419.994 47.4655L415.995 47.3681ZM417.628 61.1559L394.691 60.5976L394.584 64.5962L417.521 65.1545L417.628 61.1559ZM392.638 62.5483L391.716 97.096L395.715 97.1933L396.637 62.6456L392.638 62.5483ZM393.769 95.1454L374.671 94.6805L374.564 98.6791L393.663 99.1439L393.769 95.1454ZM376.617 96.7285L377.538 62.1807L373.54 62.0834L372.618 96.6311L376.617 96.7285ZM375.592 60.1328L352.655 59.5745L352.548 63.5731L375.486 64.1314L375.592 60.1328Z" fill="#1E1E1E"/>
<path d="M415.231 112.096L417.054 79.6997L437.762 80.7727L437.115 92.2745L423.668 112.534L415.231 112.096Z" fill="#C27690"/>
<path d="M415.231 112.096L413.234 111.993L413.121 113.99L415.118 114.093L415.231 112.096ZM417.054 79.6997L417.166 77.7028L415.169 77.5994L415.057 79.5962L417.054 79.6997ZM437.762 80.7727L439.759 80.8762L439.872 78.8793L437.875 78.7758L437.762 80.7727ZM437.115 92.2745L438.78 93.3748L439.082 92.9208L439.112 92.378L437.115 92.2745ZM423.668 112.534L423.555 114.53L424.699 114.59L425.333 113.634L423.668 112.534ZM417.228 112.2L419.051 79.8032L415.057 79.5962L413.234 111.993L417.228 112.2ZM416.942 81.6965L437.65 82.7695L437.875 78.7758L417.166 77.7028L416.942 81.6965ZM435.765 80.6692L435.118 92.171L439.112 92.378L439.759 80.8762L435.765 80.6692ZM435.449 91.1742L422.002 111.433L425.333 113.634L438.78 93.3748L435.449 91.1742ZM423.78 110.537L415.343 110.1L415.118 114.093L423.555 114.53L423.78 110.537Z" fill="#1E1E1E"/>
<path d="M510.432 53.4976C521.133 54.5398 529.331 57.653 535.025 62.8372C540.789 67.964 543.231 74.6961 542.349 83.0336C541.467 91.3711 537.662 97.527 530.935 101.502C524.215 105.412 515.376 106.834 504.42 105.767C495.502 104.899 488.196 102.483 482.502 98.5207C476.877 94.5008 473.783 89.3769 473.219 83.1491L492.304 84.3326C494.321 88.387 498.864 90.7585 505.935 91.4471C513.451 92.1792 518.684 90.4704 521.633 86.3208L501.472 84.3574L502.684 72.9013L522.271 74.8089C519.929 70.7871 515.478 68.4567 508.917 67.8177C502.229 67.1664 497.422 68.4987 494.497 71.8146L475.669 69.113C477.442 63.3056 481.497 59.0388 487.835 56.3124C494.173 53.586 501.705 52.6477 510.432 53.4976Z" fill="#C27690"/>
<path d="M535.025 62.8372L533.669 64.3187L533.678 64.3265L533.686 64.3341L535.025 62.8372ZM530.935 101.502L531.933 103.226L531.944 103.219L530.935 101.502ZM482.502 98.5207L481.328 100.149L481.338 100.156L481.348 100.163L482.502 98.5207ZM473.219 83.1491L473.36 81.1546L471.014 81.0092L471.226 83.3451L473.219 83.1491ZM492.304 84.3326L494.098 83.4322L493.589 82.4091L492.444 82.3381L492.304 84.3326ZM521.633 86.3208L523.262 87.4683L525.255 84.6642L521.843 84.3319L521.633 86.3208ZM501.472 84.3574L499.481 84.1635L499.271 86.1524L501.262 86.3463L501.472 84.3574ZM502.684 72.9013L502.894 70.9124L500.904 70.7185L500.693 72.7074L502.684 72.9013ZM522.271 74.8089L522.061 76.7978L525.975 77.179L524.004 73.7941L522.271 74.8089ZM494.497 71.8146L494.196 73.7927L495.272 73.9471L495.994 73.1284L494.497 71.8146ZM475.669 69.113L473.755 68.5447L473.078 70.7623L475.369 71.091L475.669 69.113ZM487.835 56.3124L487.055 54.4782L487.835 56.3124ZM510.221 55.4865C520.658 56.503 528.394 59.5157 533.669 64.3187L536.38 61.3557C530.267 55.7903 521.608 52.5767 510.642 51.5087L510.221 55.4865ZM533.686 64.3341C538.93 68.9972 541.179 75.0784 540.358 82.8397L544.339 83.2274C545.282 74.3137 542.649 66.9307 536.363 61.3403L533.686 64.3341ZM540.358 82.8397C539.537 90.6012 536.055 96.1627 529.926 99.7839L531.944 103.219C539.269 98.8914 543.396 92.1409 544.339 83.2274L540.358 82.8397ZM529.938 99.7772C523.708 103.402 515.338 104.821 504.631 103.778L504.21 107.756C515.415 108.847 524.721 107.422 531.933 103.226L529.938 99.7772ZM504.631 103.778C495.957 102.934 489.002 100.599 483.655 96.8783L481.348 100.163C487.391 104.368 495.048 106.864 504.21 107.756L504.631 103.778ZM483.676 96.8927C478.463 93.1672 475.719 88.54 475.213 82.9531L471.226 83.3451C471.848 90.2137 475.291 95.8343 481.328 100.149L483.676 96.8927ZM473.079 85.1436L492.164 86.3271L492.444 82.3381L473.36 81.1546L473.079 85.1436ZM490.51 85.233C492.975 90.1889 498.375 92.7203 505.724 93.436L506.145 89.4582C499.353 88.7968 495.667 86.5851 494.098 83.4322L490.51 85.233ZM505.724 93.436C513.575 94.2006 519.71 92.4671 523.262 87.4683L520.003 85.1734C517.658 88.4737 513.328 90.1578 506.145 89.4582L505.724 93.436ZM521.843 84.3319L501.682 82.3685L501.262 86.3463L521.422 88.3097L521.843 84.3319ZM503.463 84.5513L504.674 73.0952L500.693 72.7074L499.481 84.1635L503.463 84.5513ZM502.473 74.8902L522.061 76.7978L522.481 72.82L502.894 70.9124L502.473 74.8902ZM524.004 73.7941C521.223 69.0187 516.045 66.5026 509.127 65.8288L508.707 69.8067C514.91 70.4108 518.635 72.5555 520.539 75.8237L524.004 73.7941ZM509.127 65.8288C502.147 65.149 496.543 66.4831 492.999 70.5009L495.994 73.1284C498.3 70.5143 502.31 69.1837 508.707 69.8067L509.127 65.8288ZM494.797 69.8366L475.97 67.1349L475.369 71.091L494.196 73.7927L494.797 69.8366ZM477.584 69.6812C479.159 64.5215 482.741 60.6734 488.614 58.1466L487.055 54.4782C480.254 57.4042 475.725 62.0898 473.755 68.5447L477.584 69.6812ZM488.614 58.1466C494.565 55.5865 501.741 54.6606 510.221 55.4865L510.642 51.5087C501.669 50.6348 493.78 51.5855 487.055 54.4782L488.614 58.1466Z" fill="#1E1E1E"/>
<path d="M539.959 73.5309L542.245 57.9537L606.652 66.6541L604.366 82.2313L581.629 79.1598L576.612 113.354L557.68 110.796L562.697 76.6024L539.959 73.5309Z" fill="#C27690"/>
<path d="M539.959 73.5309L537.977 73.2632L537.687 75.242L539.669 75.5097L539.959 73.5309ZM542.245 57.9537L542.535 55.9749L540.553 55.7071L540.263 57.6859L542.245 57.9537ZM606.652 66.6541L608.634 66.9218L608.924 64.943L606.942 64.6753L606.652 66.6541ZM604.366 82.2313L604.076 84.2101L606.058 84.4779L606.348 82.4991L604.366 82.2313ZM581.629 79.1598L581.919 77.181L579.937 76.9133L579.647 78.8921L581.629 79.1598ZM576.612 113.354L576.322 115.333L578.304 115.6L578.594 113.622L576.612 113.354ZM557.68 110.796L555.698 110.529L555.408 112.507L557.39 112.775L557.68 110.796ZM562.697 76.6024L564.679 76.8701L564.969 74.8913L562.987 74.6236L562.697 76.6024ZM541.941 73.7987L544.227 58.2214L540.263 57.6859L537.977 73.2632L541.941 73.7987ZM541.954 59.9325L606.361 68.6329L606.942 64.6753L542.535 55.9749L541.954 59.9325ZM604.67 66.3863L602.384 81.9636L606.348 82.4991L608.634 66.9218L604.67 66.3863ZM604.656 80.2525L581.919 77.181L581.338 81.1387L604.076 84.2101L604.656 80.2525ZM579.647 78.8921L574.63 113.086L578.594 113.622L583.611 79.4276L579.647 78.8921ZM576.902 111.375L557.97 108.818L557.39 112.775L576.322 115.333L576.902 111.375ZM559.662 111.064L564.679 76.8701L560.715 76.3347L555.698 110.529L559.662 111.064ZM562.987 74.6236L540.249 71.5521L539.669 75.5097L562.406 78.5812L562.987 74.6236Z" fill="#1E1E1E"/>
<path d="M606.167 111.982C600.604 106.271 598.59 99.3593 600.124 91.2472C601.659 83.1351 606.07 77.3753 613.358 73.9678C620.658 70.4974 629.698 69.7012 640.48 71.5792C651.262 73.4572 659.434 77.2516 664.997 82.9623C670.571 88.6102 672.591 95.4902 671.056 103.602C669.522 111.714 665.105 117.506 657.805 120.976C650.517 124.384 641.483 125.148 630.701 123.27C619.919 121.392 611.741 117.629 606.167 111.982ZM624.771 86.966C621.38 88.7136 619.375 91.2225 618.756 94.4925C618.137 97.7625 619.096 100.787 621.631 103.568C624.166 106.348 628.082 108.199 633.378 109.121C638.674 110.044 643.018 109.631 646.41 107.884C649.801 106.136 651.806 103.627 652.425 100.357C653.044 97.0871 652.085 94.0621 649.55 91.282C647.015 88.502 643.099 86.6508 637.803 85.7282C632.507 84.8057 628.163 85.2183 624.771 86.966Z" fill="#C27690"/>
<path d="M606.167 111.982L604.718 113.38L604.727 113.389L606.167 111.982ZM613.358 73.9678L614.191 75.7712L614.202 75.7656L613.358 73.9678ZM664.997 82.9623L663.547 84.3607L663.557 84.3699L664.997 82.9623ZM657.805 120.976L658.638 122.78L658.65 122.774L657.805 120.976ZM624.771 86.966L623.868 85.1972L623.868 85.1972L624.771 86.966ZM621.631 103.568L620.137 104.919L621.631 103.568ZM646.41 107.884L645.507 106.115L646.41 107.884ZM649.55 91.282L648.057 92.6334L649.55 91.282ZM607.616 110.583C602.515 105.347 600.676 99.0899 602.095 91.5904L598.154 90.904C596.504 99.6287 598.693 107.195 604.718 113.38L607.616 110.583ZM602.095 91.5904C603.513 84.0916 607.519 78.8908 614.191 75.7712L612.525 72.1644C604.622 75.8598 599.805 82.1785 598.154 90.904L602.095 91.5904ZM614.202 75.7656C621.007 72.5308 629.591 71.7125 640.108 73.5443L640.852 69.614C629.805 67.6899 620.309 68.4641 612.514 72.17L614.202 75.7656ZM640.108 73.5443C650.625 75.3762 658.362 79.0375 663.547 84.3606L666.446 81.564C660.505 75.4656 651.898 71.5382 640.852 69.614L640.108 73.5443ZM663.557 84.3699C668.66 89.5406 670.505 95.7604 669.086 103.259L673.027 103.946C674.677 95.2201 672.482 87.6798 666.436 81.5548L663.557 84.3699ZM669.086 103.259C667.667 110.759 663.654 115.996 656.961 119.178L658.65 122.774C666.555 119.015 671.376 112.67 673.027 103.946L669.086 103.259ZM656.973 119.173C650.178 122.35 641.595 123.138 631.073 121.305L630.329 125.236C641.371 127.159 650.857 126.417 658.638 122.779L656.973 119.173ZM631.073 121.305C620.551 119.473 612.804 115.84 607.607 110.574L604.727 113.389C610.678 119.419 619.288 123.312 630.329 125.236L631.073 121.305ZM623.868 85.1972C620.007 87.1867 617.537 90.1774 616.786 94.1493L620.726 94.8357C621.212 92.2676 622.752 90.2406 625.674 88.7347L623.868 85.1972ZM616.786 94.1493C616.034 98.1212 617.252 101.754 620.137 104.919L623.124 102.216C620.94 99.8207 620.24 97.4038 620.726 94.8357L616.786 94.1493ZM620.137 104.919C623.068 108.132 627.453 110.119 633.006 111.086L633.75 107.156C628.71 106.278 625.264 104.563 623.124 102.216L620.137 104.919ZM633.006 111.086C638.559 112.054 643.392 111.672 647.313 109.652L645.507 106.115C642.643 107.59 638.789 108.034 633.75 107.156L633.006 111.086ZM647.313 109.652C651.174 107.663 653.644 104.672 654.395 100.7L650.455 100.014C649.969 102.582 648.429 104.609 645.507 106.115L647.313 109.652ZM654.395 100.7C655.147 96.7284 653.929 93.0953 651.044 89.9306L648.057 92.6334C650.241 95.0288 650.941 97.4458 650.455 100.014L654.395 100.7ZM651.044 89.9306C648.113 86.7174 643.728 84.7303 638.175 83.7631L637.431 87.6934C642.471 88.5712 645.917 90.2866 648.057 92.6334L651.044 89.9306ZM638.175 83.7631C632.622 82.7959 627.789 83.1772 623.868 85.1972L625.674 88.7347C628.538 87.2594 632.392 86.8155 637.431 87.6934L638.175 83.7631Z" fill="#1E1E1E"/>
</g>
<defs>
<filter id="filter0_d" x="106.086" y="133.718" width="477.116" height="73.4321" filterUnits="userSpaceOnUse" color-interpolation-filters="sRGB">
<feFlood flood-opacity="0" result="BackgroundImageFix"/>
<feColorMatrix in="SourceAlpha" type="matrix" values="0 0 0 0 0 0 0 0 0 0 0 0 0 0 0 0 0 0 127 0"/>
<feOffset dy="4"/>
<feColorMatrix type="matrix" values="0 0 0 0 0.28151 0 0 0 0 0.309417 0 0 0 0 0.979167 0 0 0 1 0"/>
<feBlend mode="normal" in2="BackgroundImageFix" result="effect1_dropShadow"/>
<feBlend mode="normal" in="SourceGraphic" in2="effect1_dropShadow" result="shape"/>
</filter>
<filter id="filter1_d" x="12.0488" y="42.8472" width="661.509" height="96.9183" filterUnits="userSpaceOnUse" color-interpolation-filters="sRGB">
<feFlood flood-opacity="0" result="BackgroundImageFix"/>
<feColorMatrix in="SourceAlpha" type="matrix" values="0 0 0 0 0 0 0 0 0 0 0 0 0 0 0 0 0 0 127 0"/>
<feOffset dy="4"/>
<feColorMatrix type="matrix" values="0 0 0 0 0.28151 0 0 0 0 0.309417 0 0 0 0 0.979167 0 0 0 1 0"/>
<feBlend mode="normal" in2="BackgroundImageFix" result="effect1_dropShadow"/>
<feBlend mode="normal" in="SourceGraphic" in2="effect1_dropShadow" result="shape"/>
</filter>
</defs>
</svg>
