<svg width="294" height="93" viewBox="0 0 294 93" fill="none" xmlns="http://www.w3.org/2000/svg">
<g filter="url(#filter0_d)">
<path d="M9.00906 50.5664L5.43575 32.0439L29.276 27.3396L32.8493 45.862L25.8209 47.249L23.3659 34.5236L13.5826 36.4541L16.0375 49.1795L9.00906 50.5664Z" fill="#C27690"/>
<path d="M9.00906 50.5664L8.02798 50.76L8.2174 51.7419L9.19849 51.5483L9.00906 50.5664ZM5.43575 32.0439L5.24633 31.062L4.26525 31.2556L4.45467 32.2375L5.43575 32.0439ZM29.276 27.3396L30.2571 27.146L30.0677 26.1641L29.0866 26.3577L29.276 27.3396ZM32.8493 45.862L33.0388 46.8439L34.0198 46.6503L33.8304 45.6684L32.8493 45.862ZM25.8209 47.249L24.8398 47.4425L25.0292 48.4244L26.0103 48.2308L25.8209 47.249ZM23.3659 34.5236L24.347 34.33L24.1576 33.3481L23.1765 33.5417L23.3659 34.5236ZM13.5826 36.4541L13.3932 35.4722L12.4121 35.6658L12.6015 36.6477L13.5826 36.4541ZM16.0375 49.1795L16.227 50.1614L17.208 49.9678L17.0186 48.9859L16.0375 49.1795ZM9.99014 50.3728L6.41684 31.8503L4.45467 32.2375L8.02798 50.76L9.99014 50.3728ZM5.62518 33.0258L29.4655 28.3215L29.0866 26.3577L5.24633 31.062L5.62518 33.0258ZM28.295 27.5332L31.8683 46.0556L33.8304 45.6684L30.2571 27.146L28.295 27.5332ZM32.6599 44.8801L25.6315 46.2671L26.0103 48.2308L33.0388 46.8439L32.6599 44.8801ZM26.802 47.0554L24.347 34.33L22.3849 34.7172L24.8398 47.4425L26.802 47.0554ZM23.1765 33.5417L13.3932 35.4722L13.772 37.436L23.5554 35.5055L23.1765 33.5417ZM12.6015 36.6477L15.0564 49.3731L17.0186 48.9859L14.5637 36.2605L12.6015 36.6477ZM15.8481 48.1976L8.81964 49.5845L9.19849 51.5483L16.227 50.1614L15.8481 48.1976Z" fill="black"/>
<path d="M49.3845 23.8124C52.6118 23.3242 55.3757 23.8042 57.6763 25.2524C59.9972 26.6733 61.3805 28.8913 61.8264 31.9065C62.2723 34.9217 61.6048 37.4621 59.8238 39.5277C58.0394 41.5696 55.5453 42.8328 52.3418 43.3174C48.7823 43.8558 45.9397 43.2542 43.814 41.5126L45.2518 51.2348L38.1684 52.3063L34.3554 26.5227L40.9405 25.5266L41.4145 28.7318C42.7649 26.0516 45.4216 24.4119 49.3845 23.8124ZM44.6097 37.7877C45.8444 38.4262 47.4109 38.6019 49.3093 38.3147C51.2077 38.0275 52.643 37.3978 53.6152 36.4254C54.6112 35.4495 55.0108 34.2968 54.8142 32.9672C54.6176 31.6377 53.9019 30.6537 52.6672 30.0152C51.4563 29.3731 49.9016 29.1956 48.0032 29.4828C46.1048 29.7699 44.6576 30.4015 43.6617 31.3774C42.6895 32.3497 42.3017 33.5007 42.4983 34.8302C42.6949 36.1598 43.3987 37.1456 44.6097 37.7877Z" fill="#C27690"/>
<path d="M57.6763 25.2524L57.1423 26.0999L57.1529 26.1064L57.6763 25.2524ZM59.8238 39.5277L60.5752 40.1851L60.5796 40.18L59.8238 39.5277ZM43.814 41.5126L44.4486 40.7376L42.4459 39.0966L42.8253 41.6621L43.814 41.5126ZM45.2518 51.2348L45.3981 52.2241L46.3869 52.0745L46.2406 51.0852L45.2518 51.2348ZM38.1684 52.3063L37.1797 52.4559L37.3259 53.4451L38.3147 53.2955L38.1684 52.3063ZM34.3554 26.5227L34.2091 25.5335L33.2203 25.683L33.3666 26.6723L34.3554 26.5227ZM40.9405 25.5266L41.9292 25.377L41.7829 24.3878L40.7942 24.5374L40.9405 25.5266ZM41.4145 28.7318L40.4257 28.8813L40.8867 31.9981L42.3066 29.18L41.4145 28.7318ZM44.6097 37.7877L44.1396 38.6721L44.1487 38.6768L44.6097 37.7877ZM53.6152 36.4254L52.9171 35.7116L52.9099 35.7188L53.6152 36.4254ZM52.6672 30.0152L52.1971 30.8996L52.2062 30.9043L52.6672 30.0152ZM43.6617 31.3774L42.9636 30.6635L42.9563 30.6708L43.6617 31.3774ZM49.5308 24.8016C52.5707 24.3418 55.0824 24.8031 57.1423 26.0998L58.2103 24.405C55.6691 22.8053 52.6529 22.3066 49.2382 22.8232L49.5308 24.8016ZM57.1529 26.1064C59.1903 27.3537 60.4293 29.2944 60.8377 32.0561L62.8152 31.757C62.3318 28.4883 60.804 25.9928 58.1998 24.3985L57.1529 26.1064ZM60.8377 32.0561C61.2467 34.8217 60.6344 37.0587 59.068 38.8754L60.5796 40.18C62.5752 37.8655 63.298 35.0217 62.8152 31.757L60.8377 32.0561ZM59.0724 38.8703C57.4736 40.6998 55.2129 41.8717 52.1955 42.3281L52.4881 44.3066C55.8778 43.7939 58.6051 42.4394 60.5752 40.1851L59.0724 38.8703ZM52.1955 42.3281C48.8243 42.8381 46.2941 42.2497 44.4486 40.7376L43.1795 42.2875C45.5853 44.2587 48.7402 44.8736 52.4881 44.3066L52.1955 42.3281ZM42.8253 41.6621L44.2631 51.3844L46.2406 51.0852L44.8028 41.363L42.8253 41.6621ZM45.1055 50.2456L38.0221 51.3171L38.3147 53.2955L45.3981 52.2241L45.1055 50.2456ZM39.1572 52.1567L35.3441 26.3731L33.3666 26.6723L37.1797 52.4559L39.1572 52.1567ZM34.5017 27.512L41.0868 26.5159L40.7942 24.5374L34.2091 25.5335L34.5017 27.512ZM39.9517 25.6762L40.4257 28.8813L42.4032 28.5822L41.9292 25.377L39.9517 25.6762ZM42.3066 29.18C43.4638 26.8836 45.7704 25.3705 49.5308 24.8016L49.2382 22.8232C45.0728 23.4532 42.0661 25.2197 40.5223 28.2835L42.3066 29.18ZM44.1487 38.6768C45.629 39.4424 47.4262 39.6109 49.4556 39.3039L49.163 37.3255C47.3956 37.5928 46.0597 37.41 45.0707 36.8985L44.1487 38.6768ZM49.4556 39.3039C51.4834 38.9972 53.147 38.3058 54.3206 37.1321L52.9099 35.7188C52.139 36.4898 50.932 37.0579 49.163 37.3255L49.4556 39.3039ZM54.3133 37.1393C55.529 35.948 56.0485 34.4778 55.8029 32.8177L53.8254 33.1168C53.9732 34.1157 53.6933 34.951 52.9172 35.7116L54.3133 37.1393ZM55.8029 32.8177C55.5574 31.1575 54.6354 29.9054 53.1282 29.126L52.2062 30.9043C53.1685 31.4019 53.6777 32.1178 53.8254 33.1168L55.8029 32.8177ZM53.1373 29.1307C51.6755 28.3556 49.8847 28.1868 47.8569 28.4935L48.1495 30.472C49.9185 30.2044 51.237 30.3905 52.1972 30.8996L53.1373 29.1307ZM47.8569 28.4935C45.8275 28.8005 44.1577 29.4935 42.9636 30.6635L44.3597 32.0912C45.1576 31.3094 46.3821 30.7393 48.1495 30.472L47.8569 28.4935ZM42.9563 30.6708C41.7652 31.8621 41.2654 33.3286 41.5095 34.9798L43.4871 34.6806C43.338 33.6728 43.6138 32.8374 44.367 32.084L42.9563 30.6708ZM41.5095 34.9798C41.7537 36.631 42.6559 37.8854 44.1396 38.6721L45.0797 36.9033C44.1415 36.4058 43.6361 35.6885 43.4871 34.6806L41.5095 34.9798Z" fill="black"/>
<path d="M80.6242 20.4555L90.9361 19.3777L92.8537 38.144L86.0507 38.855L84.6418 25.0668L77.4217 39.7569L67.1099 40.8347L65.1923 22.0684L71.9952 21.3574L73.4042 35.1456L80.6242 20.4555Z" fill="#C27690"/>
<path d="M80.6242 20.4555L80.5226 19.4606L79.9718 19.5182L79.7273 20.0157L80.6242 20.4555ZM90.9361 19.3777L91.9307 19.2737L91.829 18.2789L90.8344 18.3829L90.9361 19.3777ZM92.8537 38.144L92.9553 39.1388L93.9499 39.0348L93.8482 38.04L92.8537 38.144ZM86.0507 38.855L85.0561 38.959L85.1578 39.9538L86.1524 39.8498L86.0507 38.855ZM84.6418 25.0668L85.6364 24.9628L85.2824 21.4987L83.7448 24.6271L84.6418 25.0668ZM77.4217 39.7569L77.5234 40.7517L78.0742 40.6941L78.3187 40.1966L77.4217 39.7569ZM67.1099 40.8347L66.1153 40.9386L66.217 41.9334L67.2115 41.8295L67.1099 40.8347ZM65.1923 22.0684L65.0906 21.0736L64.0961 21.1775L64.1977 22.1723L65.1923 22.0684ZM71.9952 21.3573L72.9898 21.2534L72.8882 20.2586L71.8936 20.3625L71.9952 21.3573ZM73.4042 35.1456L72.4096 35.2495L72.7636 38.7137L74.3011 35.5853L73.4042 35.1456ZM80.7259 21.4503L91.0377 20.3725L90.8344 18.3829L80.5226 19.4606L80.7259 21.4503ZM89.9415 19.4816L91.8591 38.2479L93.8482 38.04L91.9307 19.2737L89.9415 19.4816ZM92.752 37.1491L85.9491 37.8602L86.1524 39.8498L92.9553 39.1388L92.752 37.1491ZM87.0453 38.751L85.6364 24.9628L83.6472 25.1707L85.0561 38.959L87.0453 38.751ZM83.7448 24.6271L76.5247 39.3172L78.3187 40.1966L85.5388 25.5065L83.7448 24.6271ZM77.3201 38.7621L67.0082 39.8398L67.2115 41.8295L77.5234 40.7517L77.3201 38.7621ZM68.1045 40.7307L66.1869 21.9644L64.1977 22.1723L66.1153 40.9386L68.1045 40.7307ZM65.294 23.0632L72.0969 22.3522L71.8936 20.3625L65.0906 21.0736L65.294 23.0632ZM71.0007 21.4613L72.4096 35.2495L74.3987 35.0416L72.9898 21.2534L71.0007 21.4613ZM74.3011 35.5853L81.5212 20.8952L79.7273 20.0157L72.5072 34.7058L74.3011 35.5853Z" fill="black"/>
<path d="M114.355 26.9821C116.473 27.023 118.092 27.3585 119.211 27.9884C120.329 28.6184 120.931 29.6522 121.016 31.0897C121.052 31.7126 120.979 32.3061 120.796 32.8701C120.611 33.4101 120.237 33.9977 119.673 34.6326C119.132 35.2422 118.225 35.7656 116.953 36.2028C115.703 36.6145 114.143 36.8766 112.275 36.989L97.2899 37.89L96.1828 19.0586L110.485 18.1985C113.647 18.0084 115.925 18.3162 117.319 19.122C118.737 19.9264 119.486 21.0233 119.568 22.4129C119.702 24.689 117.964 26.212 114.355 26.9821ZM103.623 23.552L103.754 25.7802L110.043 25.402C111.72 25.3012 112.537 24.8794 112.493 24.1367C112.449 23.394 111.493 23.0788 109.625 23.1912L103.623 23.552ZM111.051 32.1216C112.944 32.0078 113.865 31.5197 113.814 30.6572C113.763 29.7947 112.72 29.4246 110.683 29.5471L103.999 29.949L104.152 32.5365L111.051 32.1216Z" fill="#C27690"/>
<path d="M114.355 26.9821L114.148 26.004L114.335 27.982L114.355 26.9821ZM119.211 27.9884L119.702 27.1168L119.211 27.9884ZM120.796 32.8701L121.742 33.1925L121.744 33.1853L121.747 33.178L120.796 32.8701ZM119.673 34.6326L118.926 33.9692L119.673 34.6326ZM116.953 36.2028L117.264 37.1527L117.276 37.1486L116.953 36.2028ZM97.2899 37.89L96.2917 37.9501L96.3504 38.9483L97.3486 38.8883L97.2899 37.89ZM96.1828 19.0586L96.1242 18.0603L95.126 18.1203L95.1847 19.1186L96.1828 19.0586ZM117.319 19.122L116.818 19.988L116.825 19.992L117.319 19.122ZM103.623 23.552L103.565 22.5538L102.566 22.6138L102.625 23.6121L103.623 23.552ZM103.754 25.7802L102.756 25.8402L102.815 26.8385L103.813 26.7785L103.754 25.7802ZM103.999 29.949L103.941 28.9507L102.943 29.0107L103.001 30.009L103.999 29.949ZM104.152 32.5365L103.153 32.5966L103.212 33.5948L104.21 33.5348L104.152 32.5365ZM114.335 27.982C116.382 28.0215 117.809 28.3475 118.719 28.8601L119.702 27.1168C118.375 26.3694 116.564 26.0245 114.376 25.9822L114.335 27.982ZM118.719 28.8601C119.502 29.301 119.95 30.0031 120.017 31.1497L122.014 31.0297C121.912 29.3012 121.157 27.9359 119.702 27.1168L118.719 28.8601ZM120.017 31.1497C120.047 31.6548 119.988 32.123 119.845 32.5622L121.747 33.178C121.971 32.4891 122.057 31.7704 122.014 31.0297L120.017 31.1497ZM119.85 32.5477C119.724 32.9162 119.441 33.3896 118.926 33.9692L120.421 35.2961C121.033 34.6057 121.499 33.904 121.742 33.1925L119.85 32.5477ZM118.926 33.9692C118.551 34.3914 117.833 34.8434 116.629 35.257L117.276 37.1486C118.618 36.6878 119.713 36.0931 120.421 35.2961L118.926 33.9692ZM116.641 35.2529C115.499 35.629 114.032 35.8815 112.216 35.9907L112.334 37.9872C114.255 37.8717 115.906 37.6001 117.264 37.1526L116.641 35.2529ZM112.216 35.9907L97.2312 36.8918L97.3486 38.8883L112.334 37.9872L112.216 35.9907ZM98.2881 37.83L97.181 18.9985L95.1847 19.1186L96.2917 37.9501L98.2881 37.83ZM96.2415 20.0568L110.544 19.1968L110.426 17.2003L96.1242 18.0603L96.2415 20.0568ZM110.544 19.1968C113.668 19.009 115.692 19.3371 116.818 19.988L117.82 18.256C116.159 17.2953 113.627 17.0078 110.426 17.2003L110.544 19.1968ZM116.825 19.992C118.007 20.6627 118.512 21.4839 118.57 22.473L120.566 22.3529C120.461 20.5628 119.466 19.19 117.813 18.252L116.825 19.992ZM118.57 22.473C118.618 23.298 118.346 23.9497 117.707 24.5105C117.021 25.1112 115.875 25.6355 114.148 26.004L114.563 27.9601C116.444 27.5586 117.971 26.9364 119.024 26.014C120.121 25.0518 120.651 23.8039 120.566 22.3529L118.57 22.473ZM102.625 23.6121L102.756 25.8402L104.753 25.7202L104.622 23.492L102.625 23.6121ZM103.813 26.7785L110.102 26.4003L109.984 24.4038L103.696 24.7819L103.813 26.7785ZM110.102 26.4003C110.983 26.3473 111.775 26.2065 112.371 25.8986C112.68 25.7387 112.981 25.5115 113.197 25.186C113.422 24.8473 113.514 24.4639 113.491 24.0767L111.495 24.1967C111.494 24.1809 111.5 24.1287 111.532 24.0812C111.554 24.0467 111.554 24.0705 111.455 24.1216C111.235 24.2354 110.78 24.3559 109.984 24.4038L110.102 26.4003ZM113.491 24.0767C113.467 23.6619 113.306 23.2793 113.016 22.9723C112.742 22.6825 112.396 22.5052 112.057 22.3934C111.396 22.1755 110.537 22.1345 109.566 22.1929L109.683 24.1895C110.581 24.1355 111.134 24.1959 111.429 24.2932C111.568 24.3389 111.586 24.3727 111.562 24.3473C111.522 24.3049 111.497 24.2401 111.495 24.1967L113.491 24.0767ZM109.566 22.1929L103.565 22.5538L103.682 24.5503L109.683 24.1895L109.566 22.1929ZM111.11 33.1199C112.101 33.0603 112.977 32.8992 113.629 32.5537C113.966 32.3746 114.285 32.1246 114.51 31.7748C114.743 31.4135 114.836 31.0076 114.812 30.5971L112.816 30.7172C112.817 30.738 112.814 30.7165 112.829 30.6929C112.837 30.6808 112.816 30.7217 112.694 30.7867C112.425 30.9293 111.894 31.0691 110.992 31.1234L111.11 33.1199ZM114.812 30.5971C114.787 30.1691 114.631 29.7682 114.338 29.4381C114.057 29.122 113.696 28.9204 113.328 28.7901C112.615 28.5371 111.683 28.4852 110.625 28.5488L110.742 30.5454C111.72 30.4865 112.328 30.5584 112.658 30.6754C112.812 30.7301 112.849 30.7751 112.842 30.7672C112.822 30.7452 112.816 30.714 112.816 30.7172L114.812 30.5971ZM110.625 28.5488L103.941 28.9507L104.058 30.9473L110.742 30.5454L110.625 28.5488ZM103.001 30.009L103.153 32.5966L105.15 32.4765L104.998 29.889L103.001 30.009ZM104.21 33.5348L111.11 33.1199L110.992 31.1234L104.093 31.5383L104.21 33.5348Z" fill="black"/>
<path d="M150.512 27.9671L150.523 28.651L131.482 28.9674C132.329 30.8975 134.517 31.8333 138.044 31.7747C140.42 31.7353 142.129 31.2868 143.171 30.4294L150.231 30.6001C149.542 32.4838 148.161 33.947 146.09 34.9895C144.042 36.0077 141.386 36.5439 138.123 36.5981C133.827 36.6695 130.419 35.922 127.897 34.3557C125.399 32.7649 124.123 30.3018 124.069 26.9662C124.015 23.6547 125.186 21.1629 127.584 19.4908C130.005 17.8184 133.303 16.9474 137.478 16.8781C141.75 16.8071 144.968 17.6538 147.133 19.418C149.322 21.1819 150.448 24.0316 150.512 27.9671ZM137.557 21.7014C134.197 21.7573 132.149 22.7634 131.413 24.7199L143.399 24.5208C143.008 22.583 141.06 21.6432 137.557 21.7014Z" fill="#C27690"/>
<path d="M150.523 28.651L150.54 29.6509L151.54 29.6343L151.523 28.6344L150.523 28.651ZM131.482 28.9674L131.466 27.9675L129.962 27.9925L130.566 29.3697L131.482 28.9674ZM143.171 30.4294L143.196 29.4297L142.824 29.4207L142.536 29.6572L143.171 30.4294ZM150.231 30.6001L151.17 30.9436L151.649 29.6341L150.256 29.6004L150.231 30.6001ZM146.09 34.9895L146.535 35.8849L146.539 35.8827L146.09 34.9895ZM127.897 34.3557L127.36 35.1993L127.369 35.2052L127.897 34.3557ZM127.584 19.4908L127.015 18.6681L127.012 18.6707L127.584 19.4908ZM147.133 19.418L146.501 20.1934L146.505 20.1968L147.133 19.418ZM131.413 24.7199L130.477 24.368L129.959 25.7442L131.429 25.7198L131.413 24.7199ZM143.399 24.5208L143.416 25.5206L144.618 25.5007L144.38 24.3224L143.399 24.5208ZM149.512 27.9837L149.524 28.6676L151.523 28.6344L151.512 27.9505L149.512 27.9837ZM150.507 27.6511L131.466 27.9675L131.498 29.9672L150.54 29.6509L150.507 27.6511ZM130.566 29.3697C131.669 31.8804 134.428 32.835 138.061 32.7746L138.028 30.7749C134.606 30.8317 132.99 29.9147 132.398 28.5651L130.566 29.3697ZM138.061 32.7746C140.509 32.7339 142.499 32.2768 143.806 31.2015L142.536 29.6572C141.759 30.2968 140.332 30.7366 138.028 30.7749L138.061 32.7746ZM143.147 31.4291L150.206 31.5998L150.256 29.6004L143.196 29.4297L143.147 31.4291ZM149.292 30.2567C148.703 31.8644 147.523 33.149 145.64 34.0963L146.539 35.8827C148.8 34.745 150.38 33.1033 151.17 30.9436L149.292 30.2567ZM145.645 34.0941C143.775 35.0239 141.28 35.5455 138.107 35.5982L138.139 37.598C141.492 37.5423 144.309 36.9915 146.535 35.8849L145.645 34.0941ZM138.107 35.5982C133.922 35.6678 130.726 34.9354 128.425 33.5061L127.369 35.2052C130.112 36.9086 133.733 37.6712 138.139 37.598L138.107 35.5982ZM128.434 33.5121C126.259 32.127 125.118 29.999 125.068 26.9496L123.069 26.9828C123.128 30.6045 124.539 33.4029 127.36 35.1992L128.434 33.5121ZM125.068 26.9496C125.019 23.919 126.071 21.7648 128.155 20.3109L127.012 18.6707C124.302 20.561 123.01 23.3904 123.069 26.9828L125.068 26.9496ZM128.152 20.3135C130.356 18.7912 133.437 17.9454 137.495 17.8779L137.462 15.8782C133.169 15.9495 129.654 16.8455 127.015 18.6681L128.152 20.3135ZM137.495 17.8779C141.65 17.8089 144.594 18.6392 146.501 20.1933L147.765 18.6428C145.342 16.6683 141.85 15.8053 137.462 15.8782L137.495 17.8779ZM146.505 20.1968C148.382 21.7086 149.451 24.2209 149.512 27.9837L151.512 27.9505C151.445 23.8423 150.262 20.6552 147.761 18.6393L146.505 20.1968ZM137.541 20.7016C134.052 20.7595 131.437 21.8184 130.477 24.368L132.349 25.0718C132.862 23.7084 134.342 22.755 137.573 22.7013L137.541 20.7016ZM131.429 25.7198L143.416 25.5206L143.383 23.5209L131.397 23.7201L131.429 25.7198ZM144.38 24.3224C144.115 23.0152 143.305 22.053 142.08 21.462C140.905 20.8948 139.362 20.6713 137.541 20.7016L137.573 22.7013C139.255 22.6734 140.438 22.8907 141.21 23.2633C141.933 23.612 142.292 24.0886 142.419 24.7192L144.38 24.3224Z" fill="black"/>
<path d="M153.338 23.1111L153.487 17.209L177.851 17.825L177.702 23.7271L169.101 23.5096L168.773 36.4655L161.612 36.2844L161.939 23.3285L153.338 23.1111Z" fill="#C27690"/>
<path d="M153.338 23.1111L152.338 23.0858L152.313 24.0855L153.313 24.1108L153.338 23.1111ZM153.487 17.209L153.512 16.2093L152.513 16.184L152.487 17.1837L153.487 17.209ZM177.851 17.825L178.851 17.8502L178.876 16.8505L177.876 16.8253L177.851 17.825ZM177.702 23.7271L177.677 24.7268L178.676 24.752L178.702 23.7523L177.702 23.7271ZM169.101 23.5096L169.126 22.5099L168.126 22.4847L168.101 23.4843L169.101 23.5096ZM168.773 36.4655L168.748 37.4652L169.748 37.4904L169.773 36.4907L168.773 36.4655ZM161.612 36.2844L160.612 36.2591L160.587 37.2588L161.586 37.2841L161.612 36.2844ZM161.939 23.3285L162.939 23.3538L162.964 22.3541L161.964 22.3289L161.939 23.3285ZM154.337 23.1364L154.487 17.2342L152.487 17.1837L152.338 23.0858L154.337 23.1364ZM153.462 18.2086L177.826 18.8246L177.876 16.8253L153.512 16.2093L153.462 18.2086ZM176.851 17.7997L176.702 23.7018L178.702 23.7523L178.851 17.8502L176.851 17.7997ZM177.727 22.7274L169.126 22.5099L169.075 24.5093L177.677 24.7268L177.727 22.7274ZM168.101 23.4843L167.774 36.4402L169.773 36.4907L170.1 23.5349L168.101 23.4843ZM168.799 35.4658L161.637 35.2847L161.586 37.2841L168.748 37.4652L168.799 35.4658ZM162.611 36.3097L162.939 23.3538L160.939 23.3033L160.612 36.2591L162.611 36.3097ZM161.964 22.3289L153.363 22.1114L153.313 24.1108L161.914 24.3282L161.964 22.3289Z" fill="black"/>
<path d="M180.649 42.2586L181.325 30.1094L189.089 30.5513L188.849 34.8646L183.812 42.4386L180.649 42.2586Z" fill="#C27690"/>
<path d="M180.649 42.2586L179.651 42.2017L179.595 43.2002L180.594 43.257L180.649 42.2586ZM181.325 30.1094L181.381 29.1109L180.383 29.0541L180.327 30.0525L181.325 30.1094ZM189.089 30.5513L190.087 30.6082L190.143 29.6097L189.144 29.5529L189.089 30.5513ZM188.849 34.8646L189.682 35.4192L189.832 35.1929L189.847 34.9215L188.849 34.8646ZM183.812 42.4386L183.757 43.4371L184.328 43.4696L184.645 42.9932L183.812 42.4386ZM181.648 42.3154L182.324 30.1662L180.327 30.0525L179.651 42.2017L181.648 42.3154ZM181.27 31.1078L189.033 31.5498L189.144 29.5529L181.381 29.1109L181.27 31.1078ZM188.09 30.4945L187.85 34.8078L189.847 34.9215L190.087 30.6082L188.09 30.4945ZM188.016 34.3101L182.979 41.8841L184.645 42.9932L189.682 35.4192L188.016 34.3101ZM183.868 41.4402L180.705 41.2601L180.594 43.257L183.757 43.4371L183.868 41.4402Z" fill="black"/>
<path d="M222.738 21.1208C226.746 21.5656 229.813 22.7753 231.94 24.75C234.094 26.7035 235.002 29.2431 234.663 32.3687C234.323 35.4944 232.892 37.7864 230.368 39.2449C227.846 40.6795 224.534 41.1692 220.431 40.7139C217.092 40.3432 214.358 39.3999 212.229 37.8838C210.126 36.3465 208.973 34.4075 208.768 32.0666L215.916 32.6063C216.667 34.1385 218.366 35.0515 221.014 35.3454C223.829 35.6577 225.79 35.0424 226.899 33.4993L219.35 32.6614L219.816 28.3666L227.151 29.1807C226.278 27.6591 224.613 26.762 222.156 26.4893C219.651 26.2113 217.849 26.6875 216.75 27.9178L209.701 26.8094C210.371 24.6381 211.894 23.0565 214.271 22.0646C216.648 21.0727 219.47 20.7581 222.738 21.1208Z" fill="#C27690"/>
<path d="M231.94 24.75L231.261 25.4826L231.27 25.4904L231.94 24.75ZM230.368 39.2449L230.864 40.1147L230.869 40.1114L230.368 39.2449ZM212.229 37.8838L211.64 38.691L211.65 38.6983L212.229 37.8838ZM208.768 32.0666L208.841 31.0692L207.67 30.9808L207.772 32.1514L208.768 32.0666ZM215.916 32.6063L216.813 32.1676L216.56 31.652L215.988 31.6089L215.916 32.6063ZM226.899 33.4993L227.711 34.0845L228.711 32.6942L227.007 32.5051L226.899 33.4993ZM219.35 32.6614L218.356 32.5511L218.248 33.5453L219.242 33.6556L219.35 32.6614ZM219.816 28.3666L219.924 27.3725L218.93 27.2622L218.822 28.2563L219.816 28.3666ZM227.151 29.1807L227.043 30.1748L228.997 30.3917L228.017 28.6843L227.151 29.1807ZM216.75 27.9178L216.597 28.9059L217.134 28.9903L217.496 28.5854L216.75 27.9178ZM209.701 26.8094L208.745 26.5122L208.404 27.6177L209.548 27.7975L209.701 26.8094ZM214.271 22.0646L213.884 21.1413L213.884 21.1413L214.271 22.0646ZM222.63 22.115C226.506 22.5451 229.343 23.7014 231.261 25.4825L232.619 24.0174C230.283 21.8491 226.985 20.586 222.846 20.1267L222.63 22.115ZM231.27 25.4904C233.164 27.2083 233.977 29.4208 233.669 32.2584L235.656 32.479C236.027 29.0653 235.025 26.1987 232.611 24.0096L231.27 25.4904ZM233.669 32.2584C233.361 35.0962 232.091 37.0928 229.866 38.3784L230.869 40.1114C233.692 38.4801 235.286 35.8926 235.656 32.479L233.669 32.2584ZM229.872 38.3751C227.596 39.6701 224.518 40.1612 220.539 39.7197L220.324 41.708C224.55 42.1771 228.097 41.689 230.864 40.1147L229.872 38.3751ZM220.539 39.7197C217.322 39.3626 214.763 38.4619 212.807 37.0694L211.65 38.6983C213.953 40.3378 216.862 41.3239 220.324 41.708L220.539 39.7197ZM212.817 37.0767C210.92 35.6896 209.941 34.0015 209.764 31.9818L207.772 32.1514C208.005 34.8135 209.332 37.0035 211.64 38.6909L212.817 37.0767ZM208.695 33.064L215.843 33.6037L215.988 31.6089L208.841 31.0692L208.695 33.064ZM215.018 33.045C215.992 35.0315 218.119 36.0302 220.906 36.3395L221.122 34.3512C218.613 34.0728 217.341 33.2455 216.813 32.1676L215.018 33.045ZM220.906 36.3395C223.887 36.6704 226.3 36.0487 227.711 34.0845L226.087 32.9141C225.281 34.0361 223.77 34.6451 221.122 34.3512L220.906 36.3395ZM227.007 32.5051L219.458 31.6673L219.242 33.6556L226.791 34.4935L227.007 32.5051ZM220.344 32.7717L220.81 28.4769L218.822 28.2563L218.356 32.5511L220.344 32.7717ZM219.708 29.3608L227.043 30.1748L227.258 28.1865L219.924 27.3725L219.708 29.3608ZM228.017 28.6843C226.926 26.7825 224.899 25.7876 222.264 25.4951L222.048 27.4835C224.326 27.7364 225.629 28.5357 226.284 29.6771L228.017 28.6843ZM222.264 25.4951C219.613 25.201 217.413 25.6727 216.004 27.2502L217.496 28.5854C218.285 27.7023 219.689 27.2217 222.048 27.4835L222.264 25.4951ZM216.903 26.9296L209.854 25.8213L209.548 27.7975L216.597 28.9059L216.903 26.9296ZM210.656 27.1066C211.226 25.2581 212.513 23.883 214.658 22.9879L213.884 21.1413C211.276 22.23 209.515 24.0181 208.745 26.5122L210.656 27.1066ZM214.658 22.9879C216.841 22.0767 219.485 21.766 222.63 22.115L222.846 20.1267C219.455 19.7503 216.455 20.0687 213.884 21.1413L214.658 22.9879Z" fill="black"/>
<path d="M238.003 29.3425L238.878 23.5037L262.968 27.195L262.094 33.0339L253.589 31.7307L251.669 44.5477L244.588 43.4627L246.508 30.6457L238.003 29.3425Z" fill="#C27690"/>
<path d="M238.003 29.3425L237.014 29.1911L236.866 30.18L237.855 30.3315L238.003 29.3425ZM238.878 23.5037L239.026 22.5147L238.037 22.3632L237.889 23.3522L238.878 23.5037ZM262.968 27.195L263.957 27.3465L264.105 26.3575L263.117 26.2061L262.968 27.195ZM262.094 33.0339L261.946 34.0228L262.934 34.1743L263.082 33.1853L262.094 33.0339ZM253.589 31.7307L253.737 30.7418L252.749 30.5903L252.601 31.5793L253.589 31.7307ZM251.669 44.5477L251.521 45.5367L252.509 45.6881L252.657 44.6992L251.669 44.5477ZM244.588 43.4627L243.599 43.3112L243.451 44.3002L244.439 44.4516L244.588 43.4627ZM246.508 30.6457L247.496 30.7971L247.644 29.8082L246.656 29.6567L246.508 30.6457ZM238.991 29.494L239.866 23.6551L237.889 23.3522L237.014 29.1911L238.991 29.494ZM238.729 24.4926L262.82 28.184L263.117 26.2061L239.026 22.5147L238.729 24.4926ZM261.98 27.0436L261.105 32.8824L263.082 33.1853L263.957 27.3465L261.98 27.0436ZM262.242 32.0449L253.737 30.7418L253.441 32.7197L261.946 34.0228L262.242 32.0449ZM252.601 31.5793L250.681 44.3963L252.657 44.6992L254.577 31.8822L252.601 31.5793ZM251.817 43.5587L244.736 42.4737L244.439 44.4516L251.521 45.5367L251.817 43.5587ZM245.576 43.6141L247.496 30.7971L245.519 30.4942L243.599 43.3112L245.576 43.6141ZM246.656 29.6567L238.151 28.3536L237.855 30.3315L246.359 31.6346L246.656 29.6567Z" fill="black"/>
<path d="M266.527 44.9103C264.456 42.7174 263.712 40.1008 264.297 37.0605C264.882 34.0202 266.538 31.8878 269.266 30.6632C271.999 29.4151 275.379 29.1871 279.406 29.979C283.433 30.771 286.482 32.2634 288.553 34.4562C290.629 36.6255 291.374 39.2304 290.79 42.2707C290.205 45.311 288.546 47.4552 285.814 48.7033C283.085 49.9278 279.708 50.1441 275.681 49.3522C271.654 48.5602 268.603 47.0796 266.527 44.9103ZM273.514 35.6445C272.244 36.2753 271.491 37.2035 271.256 38.429C271.02 39.6546 271.374 40.8004 272.318 41.8666C273.261 42.9327 274.722 43.6603 276.7 44.0493C278.679 44.4383 280.303 44.3174 281.572 43.6866C282.842 43.0559 283.595 42.1277 283.831 40.9021C284.066 39.6766 283.712 38.5307 282.769 37.4646C281.825 36.3985 280.364 35.6709 278.386 35.2819C276.408 34.8929 274.784 35.0137 273.514 35.6445Z" fill="#C27690"/>
<path d="M266.527 44.9103L265.802 45.5966L265.807 45.6013L266.527 44.9103ZM269.266 30.6632L269.678 31.5768L269.684 31.5741L269.266 30.6632ZM288.553 34.4562L287.828 35.1425L287.833 35.1472L288.553 34.4562ZM285.814 48.7033L286.225 49.6169L286.231 49.6142L285.814 48.7033ZM273.514 35.6445L273.067 34.7476L273.067 34.7476L273.514 35.6445ZM272.318 41.8666L271.571 42.5288L271.571 42.5288L272.318 41.8666ZM281.572 43.6866L281.126 42.7897L281.572 43.6866ZM282.769 37.4646L282.022 38.1269L282.769 37.4646ZM267.252 44.224C265.41 42.274 264.753 39.9877 265.278 37.2535L263.316 36.8675C262.672 40.214 263.502 43.1609 265.802 45.5966L267.252 44.224ZM265.278 37.2535C265.804 34.5197 267.257 32.6634 269.678 31.5768L268.855 29.7497C265.819 31.1122 263.959 33.5207 263.316 36.8675L265.278 37.2535ZM269.684 31.5741C272.169 30.439 275.322 30.195 279.217 30.961L279.595 28.997C275.436 28.1791 271.829 28.3913 268.849 29.7524L269.684 31.5741ZM279.217 30.961C283.112 31.727 285.944 33.1481 287.828 35.1425L289.277 33.77C287.019 31.3786 283.753 29.8149 279.595 28.997L279.217 30.961ZM287.833 35.1472C289.675 37.0722 290.334 39.3439 289.808 42.0777L291.771 42.4636C292.414 39.1168 291.582 36.1789 289.273 33.7652L287.833 35.1472ZM289.808 42.0777C289.283 44.8119 287.826 46.6825 285.396 47.7924L286.231 49.6142C289.266 48.2279 291.127 45.8101 291.771 42.4636L289.808 42.0777ZM285.402 47.7897C282.92 48.9038 279.767 49.1366 275.87 48.3702L275.492 50.3342C279.648 51.1516 283.251 50.9518 286.225 49.6168L285.402 47.7897ZM275.87 48.3702C271.972 47.6037 269.136 46.1929 267.247 44.2193L265.807 45.6013C268.07 47.9663 271.336 49.5168 275.492 50.3342L275.87 48.3702ZM273.067 34.7476C271.563 35.4948 270.578 36.6598 270.275 38.2361L272.237 38.622C272.405 37.7472 272.925 37.0559 273.961 36.5415L273.067 34.7476ZM270.275 38.2361C269.971 39.8124 270.453 41.266 271.571 42.5288L273.064 41.2043C272.295 40.3349 272.069 39.4968 272.237 38.622L270.275 38.2361ZM271.571 42.5288C272.711 43.8165 274.406 44.6172 276.512 45.0313L276.889 43.0673C275.039 42.7034 273.812 42.0489 273.064 41.2043L271.571 42.5288ZM276.512 45.0313C278.617 45.4455 280.485 45.3454 282.019 44.5836L281.126 42.7897C280.12 43.2895 278.74 43.4312 276.889 43.0673L276.512 45.0313ZM282.019 44.5836C283.523 43.8364 284.509 42.6714 284.812 41.0951L282.85 40.7092C282.681 41.584 282.161 42.2753 281.126 42.7897L282.019 44.5836ZM284.812 41.0951C285.115 39.5188 284.633 38.0652 283.515 36.8024L282.022 38.1269C282.792 38.9963 283.018 39.8344 282.85 40.7092L284.812 41.0951ZM283.515 36.8024C282.376 35.5147 280.681 34.714 278.575 34.2999L278.197 36.2639C280.048 36.6278 281.275 37.2822 282.022 38.1269L283.515 36.8024ZM278.575 34.2999C276.469 33.8857 274.601 33.9857 273.067 34.7476L273.961 36.5415C274.967 36.0417 276.347 35.9 278.197 36.2639L278.575 34.2999Z" fill="black"/>
</g>
<g filter="url(#filter1_d)">
<path d="M65.7067 76.1196C67.8071 75.8476 69.456 75.9408 70.6534 76.3992C71.8509 76.8576 72.5952 77.7919 72.8865 79.2022C73.0127 79.8133 73.0259 80.4114 72.9262 80.9967C72.8217 81.5584 72.5366 82.1951 72.0709 82.9067C71.6238 83.5898 70.8027 84.2416 69.6075 84.862C68.4309 85.454 66.9268 85.9434 65.0953 86.3303L50.4074 89.4331L46.592 70.959L60.6107 67.9976C63.7103 67.3428 66.0074 67.3113 67.5019 67.9032C69.02 68.4901 69.9198 69.4652 70.2013 70.8284C70.6625 73.0613 69.1643 74.825 65.7067 76.1196ZM54.5989 74.3083L55.0503 76.4942L61.2143 75.1921C62.858 74.8449 63.6046 74.3069 63.4542 73.5783C63.3037 72.8497 62.3127 72.6788 60.4811 73.0657L54.5989 74.3083ZM63.1819 81.6937C65.037 81.3018 65.8772 80.6828 65.7024 79.8367C65.5277 78.9906 64.4423 78.7783 62.4464 79.1999L55.8949 80.5839L56.4192 83.1223L63.1819 81.6937Z" fill="#C27690"/>
<path d="M65.7067 76.1196L65.3603 75.1822L65.8307 77.1122L65.7067 76.1196ZM70.6534 76.3992L71.0134 75.464L70.6534 76.3992ZM72.9262 80.9967L73.9084 81.1762L73.9098 81.1686L73.9111 81.1611L72.9262 80.9967ZM72.0709 82.9067L71.236 82.3603L72.0709 82.9067ZM69.6075 84.862L70.0529 85.7562L70.0642 85.7503L69.6075 84.862ZM50.4074 89.4331L49.429 89.6398L49.6312 90.6191L50.6097 90.4124L50.4074 89.4331ZM46.592 70.959L46.3898 69.9796L45.4114 70.1863L45.6136 71.1656L46.592 70.959ZM67.5019 67.9032L67.1313 68.8343L67.1389 68.8372L67.5019 67.9032ZM54.5989 74.3083L54.3966 73.329L53.4182 73.5357L53.6205 74.515L54.5989 74.3083ZM55.0503 76.4942L54.0719 76.7009L54.2742 77.6802L55.2526 77.4735L55.0503 76.4942ZM55.8949 80.5839L55.6927 79.6046L54.7143 79.8113L54.9165 80.7906L55.8949 80.5839ZM56.4192 83.1223L55.4408 83.329L55.643 84.3083L56.6214 84.1017L56.4192 83.1223ZM65.8307 77.1122C67.8615 76.8493 69.3191 76.9614 70.2934 77.3344L71.0134 75.464C69.5928 74.9202 67.7526 74.8459 65.5826 75.127L65.8307 77.1122ZM70.2934 77.3344C71.1315 77.6552 71.6757 78.284 71.9081 79.4088L73.8649 78.9955C73.5147 77.2999 72.5703 76.06 71.0134 75.464L70.2934 77.3344ZM71.9081 79.4088C72.0104 79.9043 72.019 80.3765 71.9414 80.8323L73.9111 81.1611C74.0328 80.4463 74.015 79.7222 73.8649 78.9955L71.9081 79.4088ZM71.9441 80.8171C71.8728 81.2005 71.6611 81.7108 71.236 82.3603L72.9057 83.453C73.412 82.6794 73.7707 81.9163 73.9084 81.1762L71.9441 80.8171ZM71.236 82.3603C70.9264 82.8335 70.2814 83.3868 69.1507 83.9737L70.0642 85.7503C71.324 85.0964 72.3212 84.3462 72.9057 83.453L71.236 82.3603ZM69.1621 83.968C68.0874 84.5086 66.6726 84.9751 64.893 85.351L65.2975 87.3097C67.181 86.9118 68.7744 86.3994 70.0529 85.7561L69.1621 83.968ZM64.893 85.351L50.2051 88.4538L50.6097 90.4124L65.2975 87.3097L64.893 85.351ZM51.3858 89.2264L47.5705 70.7523L45.6136 71.1656L49.429 89.6398L51.3858 89.2264ZM46.7943 71.9383L60.8129 68.9769L60.4084 67.0182L46.3898 69.9796L46.7943 71.9383ZM60.8129 68.9769C63.8751 68.33 65.924 68.3561 67.1313 68.8342L67.8725 66.9722C66.0907 66.2665 63.5455 66.3555 60.4084 67.0182L60.8129 68.9769ZM67.1389 68.8372C68.4046 69.3265 69.0225 70.0648 69.2229 71.0351L71.1798 70.6217C70.8171 68.8656 69.6354 67.6537 67.865 66.9692L67.1389 68.8372ZM69.2229 71.0351C69.3901 71.8445 69.2155 72.5296 68.6638 73.179C68.0729 73.8746 67.0151 74.5626 65.3603 75.1822L66.053 77.057C67.8558 76.382 69.2759 75.5409 70.1833 74.4727C71.1298 73.3584 71.4737 72.0452 71.1798 70.6217L69.2229 71.0351ZM53.6205 74.515L54.0719 76.7009L56.0287 76.2875L55.5773 74.1016L53.6205 74.515ZM55.2526 77.4735L61.4165 76.1714L61.012 74.2128L54.8481 75.5149L55.2526 77.4735ZM61.4165 76.1714C62.2803 75.989 63.043 75.7327 63.5882 75.34C63.871 75.1362 64.1355 74.8669 64.3022 74.5128C64.4755 74.1445 64.511 73.7515 64.4326 73.3716L62.4757 73.785C62.4725 73.7695 62.4711 73.7169 62.4955 73.6652C62.5131 73.6277 62.5164 73.6513 62.4259 73.7165C62.2245 73.8616 61.792 74.048 61.012 74.2128L61.4165 76.1714ZM64.4326 73.3716C64.3485 72.9647 64.1345 72.6097 63.8034 72.3487C63.4906 72.1023 63.123 71.9779 62.7714 71.9173C62.0863 71.7992 61.2307 71.8853 60.2788 72.0864L60.6833 74.0451C61.5631 73.8592 62.1187 73.8374 62.4246 73.8901C62.5686 73.9149 62.5914 73.9457 62.564 73.9241C62.5182 73.888 62.4845 73.8276 62.4757 73.785L64.4326 73.3716ZM60.2788 72.0864L54.3966 73.329L54.8011 75.2877L60.6833 74.0451L60.2788 72.0864ZM63.3842 82.6731C64.3554 82.4679 65.1984 82.1792 65.7931 81.741C66.1014 81.5139 66.3799 81.2195 66.5523 80.8401C66.7303 80.4482 66.764 80.0327 66.6808 79.63L64.724 80.0434C64.7282 80.0638 64.7224 80.043 64.7341 80.0173C64.7401 80.0042 64.7254 80.0477 64.6136 80.1301C64.3681 80.3109 63.8635 80.5277 62.9797 80.7144L63.3842 82.6731ZM66.6808 79.63C66.5941 79.2101 66.3819 78.8363 66.0444 78.5528C65.7213 78.2815 65.3348 78.1352 64.9527 78.0605C64.2105 77.9154 63.2814 78.0015 62.2441 78.2206L62.6486 80.1793C63.6072 79.9768 64.2188 79.9582 64.562 80.0253C64.7226 80.0567 64.7649 80.0958 64.7568 80.089C64.7343 80.0701 64.7234 80.0403 64.724 80.0434L66.6808 79.63ZM62.2441 78.2206L55.6927 79.6046L56.0972 81.5632L62.6486 80.1793L62.2441 78.2206ZM54.9165 80.7906L55.4408 83.329L57.3976 82.9156L56.8733 80.3772L54.9165 80.7906ZM56.6214 84.1017L63.3842 82.6731L62.9797 80.7144L56.2169 82.143L56.6214 84.1017Z" fill="black"/>
<path d="M90.1899 63.1162L100.457 61.6748L103.022 80.3636L96.2487 81.3145L94.3641 67.5832L87.657 82.5207L77.3897 83.9621L74.8246 65.2733L81.5982 64.3224L83.4828 78.0537L90.1899 63.1162Z" fill="#C27690"/>
<path d="M90.1899 63.1162L90.054 62.1255L89.5055 62.2025L89.2784 62.7084L90.1899 63.1162ZM100.457 61.6748L101.448 61.5357L101.312 60.545L100.321 60.6841L100.457 61.6748ZM103.022 80.3636L103.158 81.3543L104.149 81.2152L104.013 80.2245L103.022 80.3636ZM96.2487 81.3145L95.2585 81.4535L95.3944 82.4442L96.3847 82.3052L96.2487 81.3145ZM94.3641 67.5832L95.3544 67.4442L94.8809 63.9944L93.4526 67.1754L94.3641 67.5832ZM87.657 82.5207L87.793 83.5114L88.3414 83.4344L88.5686 82.9285L87.657 82.5207ZM77.3897 83.9621L76.3994 84.1012L76.5354 85.0919L77.5257 84.9528L77.3897 83.9621ZM74.8246 65.2733L74.6886 64.2826L73.6983 64.4217L73.8343 65.4124L74.8246 65.2733ZM81.5982 64.3224L82.5885 64.1834L82.4525 63.1927L81.4622 63.3317L81.5982 64.3224ZM83.4828 78.0537L82.4925 78.1927L82.966 81.6425L84.3944 78.4615L83.4828 78.0537ZM90.3259 64.1069L100.593 62.6655L100.321 60.6841L90.054 62.1255L90.3259 64.1069ZM99.467 61.8138L102.032 80.5026L104.013 80.2245L101.448 61.5357L99.467 61.8138ZM102.886 79.3728L96.1128 80.3238L96.3847 82.3052L103.158 81.3543L102.886 79.3728ZM97.239 81.1755L95.3544 67.4442L93.3738 67.7223L95.2585 81.4535L97.239 81.1755ZM93.4526 67.1754L86.7455 82.1129L88.5686 82.9285L95.2756 67.9911L93.4526 67.1754ZM87.521 81.53L77.2537 82.9714L77.5257 84.9528L87.793 83.5114L87.521 81.53ZM78.38 83.8231L75.8149 65.1343L73.8343 65.4124L76.3994 84.1012L78.38 83.8231ZM74.9606 66.2641L81.7342 65.3131L81.4622 63.3317L74.6886 64.2826L74.9606 66.2641ZM80.6079 64.4614L82.4925 78.1927L84.4731 77.9146L82.5885 64.1834L80.6079 64.4614ZM84.3944 78.4615L91.1015 63.524L89.2784 62.7084L82.5713 77.6458L84.3944 78.4615Z" fill="black"/>
<path d="M109.672 60.9946L130.539 59.5578L131.806 78.3792L124.659 78.8713L123.789 65.9406L116.21 66.4624C116.209 66.7993 116.193 67.2815 116.164 67.909C116.096 69.7661 116.032 71.1297 115.97 72C115.908 72.8703 115.739 73.9284 115.462 75.1744C115.209 76.4187 114.837 77.3224 114.346 77.8855C113.853 78.4246 113.153 78.9299 112.247 79.4013C111.34 79.8726 110.205 80.1553 108.84 80.2493C107.978 80.3086 107.003 80.3036 105.916 80.2341L105.522 74.3793C106.1 74.3877 106.521 74.3828 106.784 74.3646C108.197 74.2674 109.043 73.6197 109.323 72.4216C109.603 71.2235 109.725 68.3885 109.689 63.9164C109.677 62.6663 109.671 61.6924 109.672 60.9946Z" fill="#C27690"/>
<path d="M109.672 60.9946L109.605 59.9969L108.674 60.061L108.673 60.9945L109.672 60.9946ZM130.539 59.5578L131.537 59.4891L131.47 58.4913L130.472 58.56L130.539 59.5578ZM131.806 78.3792L131.873 79.3769L132.871 79.3082L132.804 78.3105L131.806 78.3792ZM124.659 78.8713L123.661 78.94L123.729 79.9378L124.726 79.8691L124.659 78.8713ZM123.789 65.9406L124.786 65.8719L124.719 64.8741L123.721 64.9428L123.789 65.9406ZM116.21 66.4624L116.143 65.4647L115.214 65.5286L115.211 66.4598L116.21 66.4624ZM116.164 67.909L115.165 67.8629L115.164 67.8743L116.164 67.909ZM115.97 72L114.972 71.9308L115.97 72ZM115.462 75.1744L114.486 74.9588L114.484 74.9676L114.482 74.9765L115.462 75.1744ZM114.346 77.8855L115.083 78.5598L115.091 78.5512L115.098 78.5424L114.346 77.8855ZM112.247 79.4013L111.786 78.5141L112.247 79.4013ZM105.916 80.2341L104.919 80.3028L104.977 81.1763L105.851 81.2322L105.916 80.2341ZM105.522 74.3793L105.538 73.3794L104.451 73.3637L104.524 74.448L105.522 74.3793ZM109.689 63.9164L110.689 63.9067L110.689 63.9053L109.689 63.9164ZM109.74 61.9924L130.606 60.5555L130.472 58.56L109.605 59.9969L109.74 61.9924ZM129.541 59.6265L130.808 78.4479L132.804 78.3105L131.537 59.4891L129.541 59.6265ZM131.739 77.3814L124.592 77.8736L124.726 79.8691L131.873 79.3769L131.739 77.3814ZM125.657 78.8026L124.786 65.8719L122.791 66.0093L123.661 78.94L125.657 78.8026ZM123.721 64.9428L116.143 65.4647L116.278 67.4601L123.856 66.9383L123.721 64.9428ZM115.211 66.4598C115.209 66.7748 115.194 67.2398 115.165 67.8629L117.162 67.9552C117.192 67.3232 117.209 66.8238 117.21 66.465L115.211 66.4598ZM115.164 67.8743C115.097 69.7296 115.033 71.0788 114.972 71.9308L116.967 72.0692C117.03 71.1807 117.095 69.8025 117.163 67.9438L115.164 67.8743ZM114.972 71.9308C114.915 72.735 114.757 73.7411 114.486 74.9588L116.438 75.39C116.721 74.1157 116.901 73.0056 116.967 72.0692L114.972 71.9308ZM114.482 74.9765C114.242 76.1553 113.916 76.8583 113.593 77.2286L115.098 78.5424C115.758 77.7866 116.175 76.6821 116.442 75.3723L114.482 74.9765ZM113.608 77.2112C113.219 77.6366 112.627 78.0769 111.786 78.5141L112.707 80.2884C113.679 79.7829 114.486 79.2126 115.083 78.5598L113.608 77.2112ZM111.786 78.5141C111.036 78.9043 110.044 79.164 108.773 79.2515L108.907 81.247C110.365 81.1466 111.644 80.8409 112.707 80.2884L111.786 78.5141ZM108.773 79.2515C107.964 79.3072 107.035 79.3034 105.982 79.236L105.851 81.2322C106.971 81.3038 107.991 81.3101 108.907 81.247L108.773 79.2515ZM106.914 80.1654L106.52 74.3107L104.524 74.448L104.919 80.3028L106.914 80.1654ZM105.506 75.3793C106.087 75.3877 106.543 75.3836 106.851 75.3624L106.717 73.3669C106.498 73.382 106.113 73.3876 105.538 73.3794L105.506 75.3793ZM106.851 75.3624C107.69 75.3046 108.462 75.0766 109.085 74.5999C109.721 74.1136 110.112 73.4361 110.297 72.648L108.35 72.1952C108.254 72.6052 108.082 72.8505 107.871 73.0119C107.648 73.1829 107.291 73.3274 106.717 73.3669L106.851 75.3624ZM110.297 72.648C110.46 71.9495 110.563 70.8587 110.624 69.4382C110.686 67.9969 110.707 66.1513 110.689 63.9067L108.689 63.9261C108.707 66.1535 108.686 67.9616 108.626 69.3553C108.565 70.7699 108.466 71.6957 108.35 72.1952L110.297 72.648ZM110.689 63.9053C110.677 62.6565 110.671 61.6869 110.672 60.9947L108.673 60.9945C108.671 61.6978 108.677 62.6761 108.689 63.9275L110.689 63.9053Z" fill="black"/>
<path d="M151.919 59.5064L162.287 59.5303L162.256 78.3943L155.416 78.3785L155.439 64.5185L146.74 78.3585L136.372 78.3346L136.403 59.4706L143.243 59.4864L143.22 73.3464L151.919 59.5064Z" fill="#C27690"/>
<path d="M151.919 59.5064L151.921 58.5064L151.367 58.5051L151.073 58.9738L151.919 59.5064ZM162.287 59.5303L163.287 59.5326L163.289 58.5326L162.289 58.5303L162.287 59.5303ZM162.256 78.3943L162.254 79.3943L163.254 79.3966L163.256 78.3966L162.256 78.3943ZM155.416 78.3785L154.416 78.3762L154.414 79.3762L155.414 79.3785L155.416 78.3785ZM155.439 64.5185L156.439 64.5208L156.445 61.0386L154.592 63.986L155.439 64.5185ZM146.74 78.3585L146.738 79.3585L147.292 79.3598L147.586 78.891L146.74 78.3585ZM136.372 78.3346L135.372 78.3323L135.37 79.3323L136.37 79.3346L136.372 78.3346ZM136.403 59.4706L136.405 58.4706L135.405 58.4683L135.403 59.4683L136.403 59.4706ZM143.243 59.4864L144.243 59.4887L144.245 58.4887L143.245 58.4864L143.243 59.4864ZM143.22 73.3464L142.22 73.344L142.214 76.8262L144.067 73.8789L143.22 73.3464ZM151.918 60.5064L162.286 60.5303L162.289 58.5303L151.921 58.5064L151.918 60.5064ZM161.287 59.528L161.256 78.392L163.256 78.3966L163.287 59.5326L161.287 59.528ZM162.257 77.3943L155.417 77.3785L155.414 79.3785L162.254 79.3943L162.257 77.3943ZM156.416 78.3808L156.439 64.5208L154.439 64.5162L154.416 78.3762L156.416 78.3808ZM154.592 63.986L145.893 77.8259L147.586 78.891L156.286 65.0511L154.592 63.986ZM146.741 77.3585L136.373 77.3346L136.37 79.3346L146.738 79.3585L146.741 77.3585ZM137.372 78.3369L137.403 59.4729L135.403 59.4683L135.372 78.3323L137.372 78.3369ZM136.402 60.4706L143.242 60.4864L143.245 58.4864L136.405 58.4706L136.402 60.4706ZM142.243 59.4841L142.22 73.344L144.22 73.3487L144.243 59.4887L142.243 59.4841ZM144.067 73.8789L152.766 60.0389L151.073 58.9738L142.373 72.8138L144.067 73.8789Z" fill="black"/>
<path d="M191.885 73.3895C191.335 75.7321 189.877 77.4921 187.508 78.6694C185.142 79.8227 182.247 80.2764 178.823 80.0304C174.706 79.7345 171.534 78.6523 169.308 76.7839C167.083 74.8916 166.081 72.3773 166.301 69.241C166.521 66.1047 167.852 63.7701 170.294 62.2372C172.761 60.682 176.005 60.049 180.027 60.338C183.354 60.5771 186.109 61.4248 188.293 62.881C190.476 64.3372 191.666 66.2274 191.864 68.5516L184.906 68.4486C184.55 67.7011 183.907 67.0895 182.978 66.6136C182.051 66.1139 180.941 65.8176 179.648 65.7247C177.829 65.5939 176.352 65.8969 175.218 66.6334C174.083 67.37 173.469 68.4087 173.375 69.7494C173.28 71.0901 173.755 72.207 174.799 73.1001C175.843 73.9932 177.311 74.5077 179.202 74.6436C180.638 74.7468 181.839 74.6046 182.805 74.2168C183.794 73.8307 184.507 73.2684 184.944 72.5298L191.885 73.3895Z" fill="#C27690"/>
<path d="M191.885 73.3895L192.858 73.6194L193.113 72.5341L192.006 72.397L191.885 73.3895ZM187.508 78.6694L187.947 79.5686L187.954 79.5651L187.508 78.6694ZM169.308 76.7839L168.661 77.5454L168.666 77.5497L169.308 76.7839ZM170.294 62.2372L170.826 63.0845L170.828 63.0835L170.294 62.2372ZM188.293 62.881L187.739 63.7128L188.293 62.881ZM191.864 68.5516L191.851 69.5516L192.954 69.5679L192.86 68.4684L191.864 68.5516ZM184.906 68.4486L184.004 68.878L184.272 69.4394L184.893 69.4486L184.906 68.4486ZM182.978 66.6136L182.505 67.4939L182.514 67.4989L182.523 67.5037L182.978 66.6136ZM175.218 66.6334L174.672 65.7943L174.672 65.7943L175.218 66.6334ZM174.799 73.1001L174.15 73.8597L174.15 73.8597L174.799 73.1001ZM182.805 74.2168L182.44 73.2849L182.431 73.2886L182.805 74.2168ZM184.944 72.5298L185.066 71.5373L184.416 71.4568L184.083 72.0196L184.944 72.5298ZM190.912 73.1596C190.437 75.1815 189.194 76.7137 187.062 77.7736L187.954 79.5651C190.559 78.2705 192.234 76.2827 192.858 73.6194L190.912 73.1596ZM187.069 77.7702C184.901 78.8265 182.193 79.2699 178.894 79.0328L178.753 81.0279C182.3 81.2828 185.382 80.8188 187.947 79.5686L187.069 77.7702ZM178.894 79.0328C174.901 78.7459 171.959 77.7046 169.95 76.0182L168.666 77.5497C171.109 79.6 174.511 80.7231 178.753 81.0279L178.894 79.0328ZM169.955 76.0225C167.993 74.3544 167.098 72.1601 167.298 69.3127L165.303 69.1693C165.063 72.5945 166.172 75.4288 168.661 77.5454L169.955 76.0225ZM167.298 69.3127C167.499 66.4613 168.681 64.4311 170.826 63.0845L169.761 61.3899C167.023 63.1092 165.544 65.7482 165.303 69.1693L167.298 69.3127ZM170.828 63.0835C173.057 61.6779 176.068 61.0561 179.956 61.3355L180.097 59.3404C175.942 59.0418 172.464 59.6861 169.759 61.3909L170.828 63.0835ZM179.956 61.3355C183.157 61.5655 185.734 62.3755 187.739 63.7128L188.846 62.0492C186.485 60.474 183.551 59.5886 180.097 59.3404L179.956 61.3355ZM187.739 63.7128C189.704 65.0237 190.699 66.6549 190.868 68.6347L192.86 68.4684C192.633 65.8 191.248 63.6507 188.846 62.0492L187.739 63.7128ZM191.877 67.5516L184.919 67.4486L184.893 69.4486L191.851 69.5516L191.877 67.5516ZM185.808 68.0191C185.335 67.0264 184.506 66.2732 183.433 65.7236L182.523 67.5037C183.308 67.9057 183.764 68.3758 184.004 68.878L185.808 68.0191ZM183.451 65.7334C182.374 65.1528 181.12 64.8279 179.718 64.7271L179.578 66.7222C180.761 66.8073 181.727 67.075 182.505 67.4939L183.451 65.7334ZM179.718 64.7271C177.757 64.5862 176.043 64.9042 174.672 65.7943L175.763 67.4726C176.661 66.8895 177.901 66.6017 179.578 66.7222L179.718 64.7271ZM174.672 65.7943C173.277 66.7001 172.494 68.0216 172.377 69.6777L174.372 69.821C174.444 68.7957 174.889 68.04 175.763 67.4726L174.672 65.7943ZM172.377 69.6777C172.26 71.3427 172.871 72.7654 174.15 73.8597L175.449 72.3405C174.64 71.6485 174.301 70.8374 174.372 69.821L172.377 69.6777ZM174.15 73.8597C175.408 74.9363 177.107 75.4957 179.132 75.6412L179.272 73.6461C177.515 73.5198 176.278 73.0502 175.449 72.3405L174.15 73.8597ZM179.132 75.6412C180.665 75.7513 182.029 75.6066 183.179 75.1449L182.431 73.2886C181.649 73.6025 180.612 73.7424 179.272 73.6461L179.132 75.6412ZM183.169 75.1486C184.316 74.7011 185.23 74.0127 185.805 73.04L184.083 72.0196C183.785 72.5241 183.272 72.9603 182.44 73.285L183.169 75.1486ZM184.823 73.5223L191.764 74.382L192.006 72.397L185.066 71.5373L184.823 73.5223Z" fill="black"/>
<path d="M197.857 79.2715C195.673 77.1932 194.793 74.6207 195.217 71.5539C195.641 68.487 197.183 66.2691 199.844 64.9002C202.508 63.5074 205.871 63.0984 209.935 63.673C213.999 64.2476 217.122 65.574 219.306 67.6523C221.494 69.7067 222.375 72.2674 221.951 75.3342C221.527 78.4011 219.983 80.6308 217.32 82.0236C214.659 83.3926 211.297 83.7897 207.233 83.2151C203.17 82.6405 200.044 81.326 197.857 79.2715ZM204.349 69.6456C203.113 70.3435 202.41 71.3106 202.239 72.5468C202.068 73.7831 202.482 74.9081 203.481 75.9219C204.479 76.9357 205.977 77.5837 207.973 77.866C209.969 78.1483 211.585 77.9404 212.82 77.2425C214.055 76.5446 214.758 75.5775 214.929 74.3412C215.1 73.105 214.686 71.98 213.688 70.9662C212.689 69.9524 211.192 69.3044 209.196 69.0221C207.199 68.7398 205.584 68.9477 204.349 69.6456Z" fill="#C27690"/>
<path d="M197.857 79.2715L197.17 79.9955L197.174 80L197.857 79.2715ZM199.844 64.9002L200.303 65.7902L200.309 65.7872L199.844 64.9002ZM219.306 67.6523L218.619 68.3763L218.623 68.3808L219.306 67.6523ZM217.32 82.0236L217.779 82.9136L217.784 82.9106L217.32 82.0236ZM204.349 69.6456L203.855 68.774L203.855 68.774L204.349 69.6456ZM203.481 75.9219L202.77 76.6232L202.77 76.6232L203.481 75.9219ZM212.82 77.2425L212.327 76.371L212.82 77.2425ZM213.688 70.9662L212.977 71.6675L213.688 70.9662ZM198.545 78.5474C196.603 76.6993 195.826 74.4519 196.207 71.6939L194.227 71.4139C193.76 74.7895 194.744 77.6871 197.17 79.9955L198.545 78.5474ZM196.207 71.6939C196.589 68.9362 197.942 67.0049 200.303 65.7902L199.385 64.0102C196.425 65.5333 194.694 68.0379 194.227 71.4139L196.207 71.6939ZM200.309 65.7872C202.732 64.5205 205.868 64.1078 209.798 64.6636L210.072 62.6824C205.875 62.089 202.284 62.4944 199.379 64.0131L200.309 65.7872ZM209.798 64.6636C213.729 65.2193 216.632 66.4862 218.619 68.3763L219.994 66.9282C217.612 64.6619 214.269 63.2758 210.072 62.6824L209.798 64.6636ZM218.623 68.3808C220.564 70.2038 221.342 72.4365 220.961 75.1942L222.941 75.4742C223.408 72.0982 222.423 69.2096 219.989 66.9237L218.623 68.3808ZM220.961 75.1942C220.58 77.9522 219.223 79.8981 216.855 81.1366L217.784 82.9106C220.743 81.3636 222.475 78.8499 222.941 75.4742L220.961 75.1942ZM216.86 81.1336C214.44 82.379 211.303 82.7807 207.37 82.2245L207.096 84.2057C211.291 84.7988 214.878 84.4061 217.779 82.9136L216.86 81.1336ZM207.37 82.2245C203.437 81.6684 200.53 80.4121 198.54 78.543L197.174 80C199.559 82.2398 202.902 83.6126 207.096 84.2057L207.37 82.2245ZM203.855 68.774C202.392 69.6007 201.469 70.8168 201.249 72.4068L203.229 72.6869C203.351 71.8044 203.835 71.0863 204.842 70.5171L203.855 68.774ZM201.249 72.4068C201.029 73.9969 201.587 75.4223 202.77 76.6232L204.192 75.2206C203.377 74.3939 203.108 73.5693 203.229 72.6869L201.249 72.4068ZM202.77 76.6232C203.976 77.8476 205.711 78.5561 207.836 78.8566L208.11 76.8754C206.243 76.6114 204.983 76.0238 204.192 75.2206L202.77 76.6232ZM207.836 78.8566C209.961 79.1571 211.821 78.957 213.313 78.114L212.327 76.371C211.348 76.9239 209.977 77.1394 208.11 76.8754L207.836 78.8566ZM213.313 78.114C214.776 77.2874 215.699 76.0713 215.919 74.4813L213.939 74.2012C213.817 75.0837 213.334 75.8018 212.327 76.371L213.313 78.114ZM215.919 74.4813C216.139 72.8912 215.581 71.4658 214.398 70.2649L212.977 71.6675C213.791 72.4942 214.061 73.3188 213.939 74.2012L215.919 74.4813ZM214.398 70.2649C213.192 69.0405 211.458 68.332 209.332 68.0315L209.059 70.0127C210.926 70.2767 212.186 70.8643 212.977 71.6675L214.398 70.2649ZM209.332 68.0315C207.207 67.731 205.347 67.9311 203.855 68.774L204.842 70.5171C205.82 69.9642 207.191 69.7486 209.059 70.0127L209.332 68.0315Z" fill="black"/>
<path d="M242.907 79.4034C244.939 80.0044 246.413 80.7574 247.329 81.6622C248.245 82.5671 248.558 83.7246 248.266 85.1348C248.14 85.7459 247.916 86.2995 247.593 86.7954C247.274 87.2678 246.761 87.7359 246.053 88.1995C245.373 88.6445 244.362 88.9094 243.021 88.9941C241.709 89.0602 240.137 88.8998 238.305 88.5129L223.617 85.4102L227.433 66.936L241.451 69.8974C244.551 70.5522 246.669 71.4533 247.804 72.6007C248.963 73.7531 249.401 75.0109 249.12 76.3742C248.659 78.607 246.588 79.6168 242.907 79.4034ZM233.445 73.2468L232.993 75.4327L239.157 76.7348C240.801 77.082 241.698 76.8913 241.848 76.1627C241.999 75.4341 241.158 74.8763 239.327 74.4894L233.445 73.2468ZM238.387 83.4894C240.242 83.8813 241.257 83.6541 241.432 82.808C241.606 81.9619 240.696 81.328 238.7 80.9063L232.149 79.5224L231.624 82.0608L238.387 83.4894Z" fill="#C27690"/>
<path d="M242.907 79.4034L242.96 78.4042L242.628 80.3633L242.907 79.4034ZM247.329 81.6622L248.029 80.951L247.329 81.6622ZM247.593 86.7954L248.422 87.3575L248.426 87.3512L248.43 87.3447L247.593 86.7954ZM246.053 88.1995L245.504 87.3608L246.053 88.1995ZM243.021 88.9941L243.076 89.9938L243.088 89.993L243.021 88.9941ZM223.617 85.4102L222.639 85.2035L222.437 86.1828L223.415 86.3895L223.617 85.4102ZM227.433 66.936L227.635 65.9567L226.657 65.75L226.454 66.7294L227.433 66.936ZM247.804 72.6007L247.096 73.3039L247.102 73.3096L247.804 72.6007ZM233.445 73.2468L233.647 72.2675L232.668 72.0608L232.466 73.0401L233.445 73.2468ZM232.993 75.4327L232.015 75.226L231.812 76.2053L232.791 76.412L232.993 75.4327ZM232.149 79.5224L232.351 78.543L231.372 78.3363L231.17 79.3157L232.149 79.5224ZM231.624 82.0608L230.646 81.8541L230.444 82.8334L231.422 83.0401L231.624 82.0608ZM242.628 80.3633C244.593 80.9444 245.884 81.6372 246.629 82.3735L248.029 80.951C246.943 79.8775 245.286 79.0645 243.186 78.4435L242.628 80.3633ZM246.629 82.3735C247.27 83.0067 247.52 83.8033 247.288 84.9281L249.245 85.3415C249.595 83.6459 249.22 82.1274 248.029 80.951L246.629 82.3735ZM247.288 84.9281C247.186 85.4237 247.007 85.8599 246.755 86.2461L248.43 87.3447C248.824 86.739 249.095 86.0682 249.245 85.3415L247.288 84.9281ZM246.764 86.2333C246.546 86.5557 246.151 86.9376 245.504 87.3608L246.602 89.0381C247.372 88.5341 248.002 87.98 248.422 87.3575L246.764 86.2333ZM245.504 87.3608C245.033 87.669 244.223 87.915 242.954 87.9951L243.088 89.993C244.502 89.9037 245.712 89.62 246.602 89.0381L245.504 87.3608ZM242.967 87.9944C241.768 88.0548 240.287 87.9095 238.508 87.5336L238.103 89.4923C239.987 89.8901 241.65 90.0656 243.076 89.9937L242.967 87.9944ZM238.508 87.5336L223.82 84.4308L223.415 86.3895L238.103 89.4923L238.508 87.5336ZM224.596 85.6169L228.411 67.1427L226.454 66.7294L222.639 85.2035L224.596 85.6169ZM227.231 67.9154L241.249 70.8767L241.654 68.9181L227.635 65.9567L227.231 67.9154ZM241.249 70.8767C244.311 71.5236 246.179 72.377 247.096 73.3039L248.512 71.8976C247.158 70.5296 244.791 69.5808 241.654 68.9181L241.249 70.8767ZM247.102 73.3096C248.068 74.2705 248.342 75.1972 248.141 76.1675L250.098 76.5809C250.461 74.8247 249.858 73.2357 248.506 71.8918L247.102 73.3096ZM248.141 76.1675C247.974 76.9769 247.543 77.534 246.781 77.9058C245.964 78.304 244.722 78.5063 242.96 78.4042L242.853 80.4026C244.772 80.5139 246.407 80.318 247.661 79.7065C248.969 79.0685 249.804 78.0043 250.098 76.5809L248.141 76.1675ZM232.466 73.0401L232.015 75.226L233.972 75.6394L234.423 73.4535L232.466 73.0401ZM232.791 76.412L238.955 77.7141L239.359 75.7554L233.195 74.4533L232.791 76.412ZM238.955 77.7141C239.819 77.8966 240.619 77.9706 241.274 77.8313C241.614 77.7591 241.963 77.6194 242.256 77.3624C242.56 77.095 242.748 76.7492 242.827 76.3694L240.87 75.956C240.873 75.9405 240.893 75.8917 240.935 75.8542C240.966 75.827 240.96 75.8499 240.851 75.873C240.609 75.9245 240.139 75.9202 239.359 75.7554L238.955 77.7141ZM242.827 76.3694C242.911 75.9625 242.855 75.5505 242.655 75.1773C242.466 74.8249 242.178 74.562 241.88 74.3641C241.299 73.9785 240.481 73.7111 239.529 73.5101L239.125 75.4687C240.004 75.6546 240.522 75.8595 240.782 76.0317C240.904 76.1127 240.912 76.1501 240.896 76.1192C240.868 76.0676 240.861 75.9986 240.87 75.956L242.827 76.3694ZM239.529 73.5101L233.647 72.2675L233.242 74.2261L239.125 75.4687L239.529 73.5101ZM238.185 84.4687C239.156 84.6739 240.043 84.7506 240.761 84.5898C241.134 84.5065 241.505 84.3495 241.813 84.0715C242.132 83.7845 242.327 83.4173 242.41 83.0147L240.453 82.6013C240.449 82.6217 240.452 82.6003 240.473 82.5815C240.484 82.5719 240.453 82.6059 240.318 82.6361C240.021 82.7024 239.473 82.6968 238.589 82.5101L238.185 84.4687ZM242.41 83.0147C242.497 82.5947 242.45 82.1664 242.253 81.7699C242.065 81.3904 241.768 81.1 241.448 80.8768C240.825 80.4433 239.94 80.1461 238.902 79.927L238.498 81.8857C239.456 82.0882 240.024 82.3187 240.312 82.5191C240.447 82.6129 240.47 82.6659 240.465 82.6564C240.452 82.63 240.454 82.5982 240.453 82.6013L242.41 83.0147ZM238.902 79.927L232.351 78.543L231.946 80.5017L238.498 81.8857L238.902 79.927ZM231.17 79.3157L230.646 81.8541L232.603 82.2675L233.127 79.729L231.17 79.3157ZM231.422 83.0401L238.185 84.4687L238.589 82.5101L231.827 81.0815L231.422 83.0401Z" fill="black"/>
</g>
<defs>
<filter id="filter0_d" x="4.26562" y="15.8739" width="289.715" height="39.5712" filterUnits="userSpaceOnUse" color-interpolation-filters="sRGB">
<feFlood flood-opacity="0" result="BackgroundImageFix"/>
<feColorMatrix in="SourceAlpha" type="matrix" values="0 0 0 0 0 0 0 0 0 0 0 0 0 0 0 0 0 0 127 0"/>
<feOffset dx="2" dy="2"/>
<feColorMatrix type="matrix" values="0 0 0 0 0.28151 0 0 0 0 0.309417 0 0 0 0 0.979167 0 0 0 1 0"/>
<feBlend mode="normal" in2="BackgroundImageFix" result="effect1_dropShadow"/>
<feBlend mode="normal" in="SourceGraphic" in2="effect1_dropShadow" result="shape"/>
</filter>
<filter id="filter1_d" x="45.4111" y="58.4683" width="206.79" height="34.1508" filterUnits="userSpaceOnUse" color-interpolation-filters="sRGB">
<feFlood flood-opacity="0" result="BackgroundImageFix"/>
<feColorMatrix in="SourceAlpha" type="matrix" values="0 0 0 0 0 0 0 0 0 0 0 0 0 0 0 0 0 0 127 0"/>
<feOffset dx="2" dy="2"/>
<feColorMatrix type="matrix" values="0 0 0 0 0.28151 0 0 0 0 0.309417 0 0 0 0 0.979167 0 0 0 1 0"/>
<feBlend mode="normal" in2="BackgroundImageFix" result="effect1_dropShadow"/>
<feBlend mode="normal" in="SourceGraphic" in2="effect1_dropShadow" result="shape"/>
</filter>
</defs>
</svg>
