<svg width="869" height="295" viewBox="0 0 869 295" fill="none" xmlns="http://www.w3.org/2000/svg">
<g filter="url(#filter0_d)">
<path d="M185.822 201.554C191.468 201.31 195.835 201.933 198.925 203.423C202.014 204.912 203.797 207.562 204.275 211.372C204.482 213.023 204.391 214.614 204.003 216.145C203.606 217.613 202.713 219.238 201.324 221.021C199.991 222.733 197.669 224.276 194.358 225.651C191.103 226.955 186.998 227.912 182.044 228.522L142.312 233.416L136.055 183.502L173.976 178.832C182.361 177.799 188.479 178.239 192.33 180.15C196.246 182.054 198.434 184.847 198.896 188.53C199.652 194.563 195.294 198.904 185.822 201.554ZM156.651 194.217L157.392 200.123L174.066 198.069C178.512 197.522 180.612 196.263 180.365 194.295C180.118 192.326 177.518 191.647 172.563 192.257L156.651 194.217ZM177.93 215.777C182.949 215.159 185.314 213.707 185.028 211.421C184.741 209.135 181.898 208.325 176.499 208.99L158.777 211.172L159.637 218.031L177.93 215.777Z" fill="#C27690"/>
<path d="M185.822 201.554L185.279 199.629L185.913 203.552L185.822 201.554ZM198.925 203.423L199.791 201.622L198.925 203.423ZM204.003 216.145L205.934 216.67L205.938 216.655L205.942 216.641L204.003 216.145ZM201.324 221.021L199.745 219.791L201.324 221.021ZM194.358 225.651L195.106 227.508L195.118 227.503L195.129 227.498L194.358 225.651ZM142.312 233.416L140.327 233.66L140.576 235.645L142.561 235.4L142.312 233.416ZM136.055 183.502L135.806 181.518L133.821 181.762L134.069 183.747L136.055 183.502ZM192.33 180.15L191.444 181.941L191.451 181.944L191.458 181.948L192.33 180.15ZM156.651 194.217L156.402 192.233L154.417 192.477L154.666 194.461L156.651 194.217ZM157.392 200.123L155.407 200.367L155.655 202.352L157.64 202.107L157.392 200.123ZM158.777 211.172L158.528 209.188L156.543 209.432L156.792 211.417L158.777 211.172ZM159.637 218.031L157.652 218.275L157.9 220.26L159.885 220.015L159.637 218.031ZM185.913 203.552C191.418 203.314 195.401 203.942 198.058 205.223L199.791 201.622C196.27 199.924 191.518 199.307 185.732 199.557L185.913 203.552ZM198.058 205.223C200.452 206.377 201.885 208.385 202.29 211.617L206.26 211.128C205.71 206.739 203.575 203.447 199.791 201.622L198.058 205.223ZM202.29 211.617C202.468 213.033 202.388 214.373 202.063 215.65L205.942 216.641C206.395 214.856 206.496 213.013 206.26 211.128L202.29 211.617ZM202.071 215.62C201.769 216.738 201.043 218.124 199.745 219.791L202.904 222.251C204.384 220.352 205.443 218.487 205.934 216.67L202.071 215.62ZM199.745 219.791C198.719 221.108 196.764 222.485 193.587 223.805L195.129 227.498C198.574 226.067 201.263 224.358 202.904 222.251L199.745 219.791ZM193.611 223.795C190.567 225.014 186.644 225.941 181.795 226.538L182.293 230.507C187.352 229.883 191.639 228.896 195.106 227.508L193.611 223.795ZM181.795 226.538L142.063 231.431L142.561 235.4L182.293 230.507L181.795 226.538ZM144.297 233.171L138.04 183.258L134.069 183.747L140.327 233.66L144.297 233.171ZM136.303 185.487L174.225 180.816L173.727 176.847L135.806 181.518L136.303 185.487ZM174.225 180.816C182.533 179.793 188.147 180.305 191.444 181.941L193.217 178.36C188.81 176.173 182.188 175.805 173.727 176.847L174.225 180.816ZM191.458 181.948C194.886 183.614 196.549 185.888 196.911 188.775L200.881 188.286C200.319 183.807 197.606 180.493 193.203 178.352L191.458 181.948ZM196.911 188.775C197.211 191.169 196.529 193.152 194.781 194.893C192.947 196.72 189.863 198.346 185.279 199.629L186.365 203.48C191.253 202.112 195.084 200.243 197.609 197.729C200.218 195.129 201.337 191.924 200.881 188.286L196.911 188.775ZM154.666 194.461L155.407 200.367L159.377 199.878L158.636 193.973L154.666 194.461ZM157.64 202.107L174.314 200.054L173.817 196.085L157.143 198.138L157.64 202.107ZM174.314 200.054C176.623 199.769 178.594 199.277 180.007 198.43C180.734 197.994 181.399 197.414 181.846 196.636C182.308 195.832 182.462 194.943 182.35 194.05L178.38 194.539C178.392 194.631 178.376 194.638 178.375 194.64C178.358 194.669 178.266 194.806 177.944 194.999C177.257 195.411 175.955 195.821 173.817 196.085L174.314 200.054ZM182.35 194.05C182.231 193.103 181.808 192.256 181.1 191.598C180.426 190.971 179.586 190.598 178.731 190.375C177.058 189.937 174.865 189.959 172.314 190.273L172.812 194.242C175.216 193.946 176.8 194.001 177.728 194.243C178.173 194.36 178.34 194.488 178.378 194.523C178.381 194.526 178.375 194.503 178.38 194.539L182.35 194.05ZM172.314 190.273L156.402 192.233L156.9 196.201L172.812 194.242L172.314 190.273ZM178.179 217.762C180.777 217.442 182.966 216.882 184.518 215.929C185.317 215.439 186.025 214.797 186.494 213.954C186.976 213.087 187.133 212.136 187.013 211.177L183.043 211.666C183.066 211.85 183.034 211.937 182.996 212.005C182.945 212.097 182.803 212.285 182.419 212.52C181.605 213.02 180.102 213.495 177.682 213.793L178.179 217.762ZM187.013 211.177C186.888 210.183 186.466 209.283 185.739 208.564C185.04 207.872 184.154 207.441 183.226 207.176C181.412 206.659 179.03 206.663 176.25 207.005L176.748 210.974C179.367 210.651 181.106 210.728 182.135 211.021C182.629 211.162 182.845 211.321 182.927 211.403C182.983 211.458 183.024 211.517 183.043 211.666L187.013 211.177ZM176.25 207.005L158.528 209.188L159.026 213.157L176.748 210.974L176.25 207.005ZM156.792 211.417L157.652 218.275L161.622 217.786L160.762 210.928L156.792 211.417ZM159.885 220.015L178.179 217.762L177.682 213.793L159.388 216.046L159.885 220.015Z" fill="#1E1E1E"/>
<path d="M261.726 170.227L289.282 167.97L293.458 218.101L275.279 219.59L272.21 182.757L252.22 221.478L224.664 223.735L220.488 173.605L238.667 172.116L241.736 208.948L261.726 170.227Z" fill="#C27690"/>
<path d="M261.726 170.227L261.56 168.234L260.456 168.325L259.948 169.308L261.726 170.227ZM289.282 167.97L291.275 167.807L291.109 165.814L289.116 165.977L289.282 167.97ZM293.458 218.101L293.624 220.094L295.617 219.93L295.451 217.937L293.458 218.101ZM275.279 219.59L273.286 219.753L273.452 221.746L275.445 221.583L275.279 219.59ZM272.21 182.757L274.204 182.594L273.626 175.654L270.433 181.838L272.21 182.757ZM252.22 221.478L252.386 223.471L253.49 223.381L253.998 222.397L252.22 221.478ZM224.664 223.735L222.671 223.898L222.837 225.892L224.83 225.728L224.664 223.735ZM220.488 173.605L220.322 171.612L218.329 171.775L218.495 173.768L220.488 173.605ZM238.667 172.116L240.661 171.953L240.494 169.96L238.501 170.123L238.667 172.116ZM241.736 208.948L239.742 209.112L240.321 216.052L243.513 209.867L241.736 208.948ZM261.892 172.22L289.448 169.963L289.116 165.977L261.56 168.234L261.892 172.22ZM287.288 168.133L291.465 218.264L295.451 217.937L291.275 167.807L287.288 168.133ZM293.292 216.107L275.113 217.596L275.445 221.583L293.624 220.094L293.292 216.107ZM277.272 219.426L274.204 182.594L270.217 182.92L273.286 219.753L277.272 219.426ZM270.433 181.838L250.442 220.559L253.998 222.397L273.988 183.676L270.433 181.838ZM252.054 219.485L224.498 221.742L224.83 225.728L252.386 223.471L252.054 219.485ZM226.658 223.572L222.481 173.442L218.495 173.768L222.671 223.898L226.658 223.572ZM220.654 175.598L238.833 174.109L238.501 170.123L220.322 171.612L220.654 175.598ZM236.674 172.279L239.742 209.112L243.729 208.785L240.661 171.953L236.674 172.279ZM243.513 209.867L263.504 171.146L259.948 169.308L239.958 208.029L243.513 209.867Z" fill="#1E1E1E"/>
<path d="M322.661 166.177L378.393 163.953L380.431 214.215L361.342 214.977L359.942 180.446L339.702 181.254C339.675 182.152 339.599 183.436 339.474 185.106C339.162 190.05 338.893 193.68 338.667 195.995C338.44 198.31 337.913 201.117 337.086 204.416C336.323 207.714 335.267 210.094 333.917 211.557C332.565 212.956 330.664 214.248 328.214 215.435C325.764 216.622 322.716 217.288 319.071 217.433C316.769 217.525 314.171 217.437 311.278 217.168L310.644 201.533C312.184 201.599 313.306 201.619 314.009 201.591C317.782 201.44 320.085 199.779 320.917 196.607C321.749 193.435 322.276 185.888 322.497 173.966C322.554 170.633 322.609 168.037 322.661 166.177Z" fill="#C27690"/>
<path d="M322.661 166.177L322.58 164.179L320.715 164.254L320.662 166.119L322.661 166.177ZM378.393 163.953L380.391 163.873L380.31 161.875L378.312 161.954L378.393 163.953ZM380.431 214.215L380.512 216.214L382.511 216.134L382.429 214.136L380.431 214.215ZM361.342 214.977L359.344 215.057L359.425 217.056L361.423 216.976L361.342 214.977ZM359.942 180.446L361.94 180.366L361.859 178.368L359.861 178.447L359.942 180.446ZM339.702 181.254L339.621 179.255L337.76 179.33L337.703 181.191L339.702 181.254ZM339.474 185.106L337.48 184.956L337.479 184.967L337.478 184.979L339.474 185.106ZM338.667 195.995L336.676 195.799L338.667 195.995ZM337.086 204.416L335.146 203.929L335.142 203.947L335.138 203.964L337.086 204.416ZM333.917 211.557L335.356 212.947L335.372 212.93L335.388 212.913L333.917 211.557ZM328.214 215.435L327.341 213.635L328.214 215.435ZM311.278 217.168L309.28 217.248L309.35 218.997L311.094 219.159L311.278 217.168ZM310.644 201.533L310.729 199.535L308.557 199.441L308.646 201.613L310.644 201.533ZM322.497 173.966L324.497 174.005L324.497 174.002L322.497 173.966ZM322.742 168.176L378.474 165.951L378.312 161.954L322.58 164.179L322.742 168.176ZM376.395 164.033L378.433 214.295L382.429 214.136L380.391 163.873L376.395 164.033ZM380.35 212.217L361.261 212.979L361.423 216.976L380.512 216.214L380.35 212.217ZM363.341 214.898L361.94 180.366L357.944 180.526L359.344 215.057L363.341 214.898ZM359.861 178.447L339.621 179.255L339.783 183.252L360.023 182.444L359.861 178.447ZM337.703 181.191C337.677 182.045 337.603 183.295 337.48 184.956L341.469 185.256C341.594 183.577 341.672 182.258 341.701 181.317L337.703 181.191ZM337.478 184.979C337.166 189.92 336.899 193.52 336.676 195.799L340.657 196.191C340.887 193.839 341.158 190.181 341.47 185.233L337.478 184.979ZM336.676 195.799C336.463 197.982 335.959 200.686 335.146 203.929L339.027 204.904C339.868 201.548 340.418 198.637 340.657 196.191L336.676 195.799ZM335.138 203.964C334.405 207.131 333.45 209.113 332.447 210.2L335.388 212.913C337.084 211.075 338.242 208.296 339.035 204.869L335.138 203.964ZM332.479 210.166C331.34 211.344 329.657 212.513 327.341 213.635L329.086 217.235C331.67 215.984 333.789 214.567 335.356 212.947L332.479 210.166ZM327.341 213.635C325.207 214.669 322.449 215.297 318.99 215.435L319.152 219.432C322.984 219.279 326.32 218.575 329.086 217.235L327.341 213.635ZM318.99 215.435C316.795 215.523 314.289 215.439 311.462 215.177L311.094 219.159C314.054 219.434 316.742 219.528 319.152 219.432L318.99 215.435ZM313.276 217.088L312.642 201.453L308.646 201.613L309.28 217.248L313.276 217.088ZM310.559 203.531C312.105 203.598 313.298 203.621 314.09 203.589L313.928 199.592C313.314 199.617 312.263 199.601 310.729 199.535L310.559 203.531ZM314.09 203.589C316.242 203.503 318.178 202.979 319.737 201.854C321.321 200.711 322.337 199.077 322.851 197.116L318.982 196.099C318.665 197.309 318.113 198.092 317.395 198.61C316.651 199.146 315.549 199.528 313.928 199.592L314.09 203.589ZM322.851 197.116C323.319 195.333 323.667 192.488 323.931 188.709C324.198 184.888 324.386 179.983 324.497 174.005L320.497 173.928C320.387 179.872 320.201 184.702 319.941 188.428C319.678 192.195 319.347 194.71 318.982 196.099L322.851 197.116ZM324.497 174.002C324.554 170.671 324.608 168.084 324.661 166.235L320.662 166.119C320.609 167.99 320.554 170.595 320.497 173.931L324.497 174.002Z" fill="#1E1E1E"/>
<path d="M443.309 163.456L470.957 163.508L470.849 213.812L452.609 213.778L452.688 176.818L429.473 213.735L401.826 213.683L401.933 163.379L420.173 163.413L420.094 200.373L443.309 163.456Z" fill="#C27690"/>
<path d="M443.309 163.456L443.313 161.456L442.206 161.454L441.616 162.392L443.309 163.456ZM470.957 163.508L472.957 163.512L472.961 161.512L470.961 161.508L470.957 163.508ZM470.849 213.812L470.845 215.812L472.845 215.816L472.849 213.816L470.849 213.812ZM452.609 213.778L450.609 213.774L450.605 215.774L452.605 215.778L452.609 213.778ZM452.688 176.818L454.688 176.822L454.703 169.857L450.995 175.754L452.688 176.818ZM429.473 213.735L429.469 215.735L430.577 215.737L431.166 214.799L429.473 213.735ZM401.826 213.683L399.826 213.679L399.821 215.679L401.821 215.683L401.826 213.683ZM401.933 163.379L401.937 161.379L399.937 161.375L399.933 163.375L401.933 163.379ZM420.173 163.413L422.173 163.417L422.177 161.417L420.177 161.413L420.173 163.413ZM420.094 200.373L418.094 200.369L418.079 207.334L421.787 201.437L420.094 200.373ZM443.305 165.456L470.953 165.508L470.961 161.508L443.313 161.456L443.305 165.456ZM468.957 163.504L468.849 213.808L472.849 213.816L472.957 163.512L468.957 163.504ZM470.854 211.812L452.614 211.778L452.605 215.778L470.845 215.812L470.854 211.812ZM454.609 213.782L454.688 176.822L450.688 176.814L450.609 213.774L454.609 213.782ZM450.995 175.754L427.78 212.67L431.166 214.799L454.381 177.882L450.995 175.754ZM429.478 211.735L401.83 211.683L401.821 215.683L429.469 215.735L429.478 211.735ZM403.826 213.687L403.933 163.383L399.933 163.375L399.826 213.679L403.826 213.687ZM401.929 165.379L420.169 165.413L420.177 161.413L401.937 161.379L401.929 165.379ZM418.173 163.409L418.094 200.369L422.094 200.377L422.173 163.417L418.173 163.409ZM421.787 201.437L445.002 164.521L441.616 162.392L418.401 199.309L421.787 201.437Z" fill="#1E1E1E"/>
<path d="M559.675 198.154C558.373 204.44 554.605 209.241 548.373 212.558C542.144 215.811 534.458 217.239 525.314 216.842C514.317 216.365 505.785 213.721 499.719 208.909C493.656 204.034 490.809 197.408 491.178 189.032C491.547 180.656 494.933 174.333 501.335 170.063C507.804 165.731 516.41 163.798 527.151 164.264C536.039 164.65 543.444 166.701 549.366 170.417C555.288 174.133 558.593 179.081 559.282 185.261L540.725 185.513C539.722 183.547 537.966 181.966 535.457 180.768C532.95 179.506 529.97 178.8 526.517 178.65C521.658 178.44 517.742 179.359 514.769 181.408C511.795 183.457 510.23 186.271 510.072 189.852C509.914 193.433 511.258 196.374 514.103 198.675C516.949 200.977 520.897 202.237 525.948 202.456C529.785 202.623 532.977 202.152 535.524 201.046C538.135 199.942 539.997 198.389 541.11 196.388L559.675 198.154Z" fill="#C27690"/>
<path d="M559.675 198.154L561.633 198.558L562.086 196.374L559.865 196.163L559.675 198.154ZM548.373 212.558L549.298 214.33L549.305 214.327L549.312 214.323L548.373 212.558ZM499.719 208.909L498.465 210.468L498.475 210.476L499.719 208.909ZM501.335 170.063L502.444 171.726L502.447 171.724L501.335 170.063ZM549.366 170.417L548.302 172.111L549.366 170.417ZM559.282 185.261L559.308 187.261L561.514 187.231L561.27 185.038L559.282 185.261ZM540.725 185.513L538.943 186.422L539.508 187.529L540.751 187.512L540.725 185.513ZM535.457 180.768L534.556 182.554L534.575 182.564L534.594 182.573L535.457 180.768ZM514.769 181.408L513.634 179.761L513.634 179.761L514.769 181.408ZM514.103 198.675L512.845 200.23L514.103 198.675ZM535.524 201.046L534.746 199.204L534.737 199.208L534.728 199.212L535.524 201.046ZM541.11 196.388L541.301 194.397L539.999 194.273L539.363 195.417L541.11 196.388ZM557.716 197.75C556.548 203.39 553.201 207.723 547.435 210.792L549.312 214.323C556.01 210.758 560.197 205.489 561.633 198.558L557.716 197.75ZM547.448 210.785C541.612 213.833 534.298 215.23 525.402 214.844L525.226 218.84C534.617 219.248 542.676 217.788 549.298 214.33L547.448 210.785ZM525.402 214.844C514.654 214.378 506.585 211.802 500.962 207.342L498.475 210.476C504.984 215.639 513.979 218.352 525.226 218.84L525.402 214.844ZM500.973 207.35C495.449 202.908 492.832 196.916 493.176 189.119L489.18 188.945C488.785 197.9 491.863 205.159 498.465 210.468L500.973 207.35ZM493.176 189.119C493.52 181.314 496.626 175.607 502.444 171.726L500.226 168.399C493.24 173.059 489.574 179.999 489.18 188.945L493.176 189.119ZM502.447 171.724C508.45 167.705 516.588 165.808 527.063 166.262L527.24 162.266C516.231 161.789 507.159 163.757 500.223 168.401L502.447 171.724ZM527.063 166.262C535.697 166.637 542.743 168.623 548.302 172.111L550.43 168.723C544.145 164.779 536.381 162.663 527.24 162.266L527.063 166.262ZM548.302 172.111C553.781 175.549 556.682 179.991 557.294 185.484L561.27 185.038C560.505 178.172 556.795 172.717 550.43 168.723L548.302 172.111ZM559.256 183.261L540.699 183.513L540.751 187.512L559.308 187.261L559.256 183.261ZM542.507 184.603C541.258 182.154 539.121 180.3 536.319 178.963L534.594 182.573C536.812 183.632 538.187 184.941 538.943 186.422L542.507 184.603ZM536.357 178.981C533.546 177.567 530.277 176.812 526.605 176.652L526.429 180.648C529.663 180.789 532.354 181.446 534.556 182.554L536.357 178.981ZM526.605 176.652C521.461 176.429 517.072 177.392 513.634 179.761L515.903 183.054C518.411 181.325 521.855 180.45 526.429 180.648L526.605 176.652ZM513.634 179.761C510.149 182.163 508.26 185.553 508.074 189.765L512.07 189.939C512.2 186.99 513.442 184.75 515.903 183.054L513.634 179.761ZM508.074 189.765C507.888 193.996 509.519 197.54 512.845 200.23L515.362 197.12C512.997 195.207 511.941 192.87 512.07 189.939L508.074 189.765ZM512.845 200.23C516.129 202.886 520.541 204.223 525.86 204.454L526.037 200.458C521.253 200.25 517.769 199.067 515.362 197.12L512.845 200.23ZM525.86 204.454C529.891 204.629 533.409 204.145 536.32 202.88L534.728 199.212C532.545 200.16 529.679 200.616 526.037 200.458L525.86 204.454ZM536.302 202.888C539.224 201.652 541.48 199.836 542.858 197.359L539.363 195.417C538.514 196.942 537.046 198.232 534.746 199.204L536.302 202.888ZM540.92 198.379L559.484 200.145L559.865 196.163L541.301 194.397L540.92 198.379Z" fill="#1E1E1E"/>
<path d="M585.234 213.032C579.133 207.831 576.44 201.118 577.154 192.893C577.868 184.668 581.676 178.533 588.58 174.489C595.489 170.38 604.396 168.784 615.302 169.7C626.208 170.615 634.711 173.674 640.812 178.874C646.919 184.011 649.615 190.692 648.901 198.917C648.187 207.142 644.376 213.309 637.467 217.417C630.563 221.462 621.658 223.026 610.753 222.111C599.847 221.195 591.341 218.169 585.234 213.032ZM601.226 186.437C598.029 188.48 596.287 191.16 595.999 194.475C595.712 197.791 596.967 200.722 599.765 203.269C602.563 205.816 606.641 207.315 611.998 207.765C617.355 208.214 621.632 207.417 624.829 205.374C628.025 203.33 629.768 200.65 630.055 197.335C630.343 194.019 629.088 191.088 626.29 188.541C623.492 185.994 619.414 184.496 614.057 184.046C608.7 183.596 604.423 184.393 601.226 186.437Z" fill="#C27690"/>
<path d="M585.234 213.032L583.934 214.555L583.944 214.563L585.234 213.032ZM588.58 174.489L589.588 176.213L589.599 176.206L588.58 174.489ZM640.812 178.874L639.512 180.397L639.521 180.406L640.812 178.874ZM637.467 217.417L638.475 219.142L638.486 219.135L637.467 217.417ZM601.226 186.437L600.151 184.753L600.151 184.753L601.226 186.437ZM599.765 203.269L598.416 204.749L599.765 203.269ZM624.829 205.374L623.754 203.69L624.829 205.374ZM626.29 188.541L624.941 190.021L626.29 188.541ZM586.535 211.509C580.941 206.74 578.487 200.664 579.147 193.06L575.161 192.726C574.393 201.572 577.326 208.922 583.934 214.555L586.535 211.509ZM579.147 193.06C579.807 185.457 583.268 179.916 589.588 176.213L587.572 172.764C580.085 177.15 575.929 183.879 575.161 192.726L579.147 193.06ZM589.599 176.206C596.039 172.377 604.491 170.799 615.129 171.692L615.475 167.707C604.301 166.769 594.939 168.384 587.561 172.771L589.599 176.206ZM615.129 171.692C625.767 172.585 633.825 175.55 639.512 180.397L642.113 177.351C635.597 171.798 626.648 168.645 615.475 167.707L615.129 171.692ZM639.521 180.406C645.112 185.109 647.568 191.147 646.908 198.75L650.894 199.085C651.662 190.238 648.725 182.914 642.103 177.343L639.521 180.406ZM646.908 198.75C646.248 206.354 642.783 211.933 636.447 215.7L638.486 219.135C645.969 214.686 650.126 207.931 650.894 199.085L646.908 198.75ZM636.459 215.693C630.022 219.464 621.568 221.012 610.926 220.118L610.58 224.103C621.748 225.041 631.104 223.46 638.475 219.142L636.459 215.693ZM610.926 220.118C600.283 219.224 592.219 216.29 586.525 211.5L583.944 214.563C590.464 220.047 599.411 223.165 610.58 224.103L610.926 220.118ZM600.151 184.753C596.512 187.079 594.356 190.281 594.006 194.308L597.992 194.643C598.218 192.039 599.546 189.881 602.301 188.12L600.151 184.753ZM594.006 194.308C593.657 198.335 595.23 201.85 598.416 204.749L601.114 201.789C598.703 199.595 597.766 197.247 597.992 194.643L594.006 194.308ZM598.416 204.749C601.65 207.693 606.208 209.285 611.825 209.757L612.171 205.772C607.073 205.344 603.476 203.939 601.114 201.789L598.416 204.749ZM611.825 209.757C617.442 210.229 622.209 209.419 625.903 207.057L623.754 203.69C621.056 205.415 617.269 206.2 612.171 205.772L611.825 209.757ZM625.903 207.057C629.542 204.731 631.699 201.529 632.048 197.502L628.062 197.168C627.836 199.771 626.509 201.929 623.754 203.69L625.903 207.057ZM632.048 197.502C632.398 193.475 630.824 189.96 627.639 187.061L624.941 190.021C627.352 192.216 628.289 194.564 628.062 197.168L632.048 197.502ZM627.639 187.061C624.405 184.117 619.846 182.525 614.23 182.053L613.884 186.038C618.981 186.466 622.578 187.871 624.941 190.021L627.639 187.061ZM614.23 182.053C608.613 181.582 603.846 182.391 600.151 184.753L602.301 188.12C604.999 186.395 608.786 185.61 613.884 186.038L614.23 182.053Z" fill="#1E1E1E"/>
<path d="M716.187 205.658C721.718 206.804 725.795 208.478 728.417 210.678C731.039 212.878 732.106 215.882 731.619 219.691C731.408 221.342 730.923 222.861 730.165 224.25C729.415 225.574 728.144 226.931 726.354 228.318C724.635 229.65 722 230.577 718.449 231.098C714.97 231.564 710.754 231.486 705.801 230.863L666.081 225.871L672.464 175.974L710.374 180.738C718.756 181.792 724.575 183.716 727.831 186.512C731.15 189.316 732.574 192.559 732.103 196.241C731.331 202.272 726.026 205.411 716.187 205.658ZM689.75 191.402L688.995 197.306L705.664 199.401C710.109 199.959 712.457 199.255 712.709 197.287C712.961 195.319 710.61 194.023 705.657 193.401L689.75 191.402ZM704.993 217.506C710.01 218.137 712.664 217.309 712.956 215.024C713.249 212.738 710.696 211.257 705.299 210.578L687.582 208.352L686.705 215.208L704.993 217.506Z" fill="#C27690"/>
<path d="M716.187 205.658L716.141 203.659L715.777 207.615L716.187 205.658ZM728.417 210.678L729.705 209.145L728.417 210.678ZM730.165 224.25L731.905 225.232L731.913 225.218L731.92 225.205L730.165 224.25ZM726.354 228.318L725.13 226.739L726.354 228.318ZM718.449 231.098L718.71 233.08L718.723 233.078L718.736 233.076L718.449 231.098ZM666.081 225.871L664.097 225.622L663.843 227.606L665.827 227.855L666.081 225.871ZM672.464 175.974L672.718 173.99L670.734 173.741L670.48 175.725L672.464 175.974ZM727.831 186.512L726.525 188.03L726.531 188.035L726.537 188.04L727.831 186.512ZM689.75 191.402L690.004 189.418L688.02 189.169L687.766 191.152L689.75 191.402ZM688.995 197.306L687.011 197.056L686.757 199.04L688.741 199.29L688.995 197.306ZM687.582 208.352L687.836 206.368L685.851 206.119L685.598 208.102L687.582 208.352ZM686.705 215.208L684.72 214.958L684.467 216.942L686.451 217.192L686.705 215.208ZM715.777 207.615C721.17 208.734 724.873 210.318 727.129 212.21L729.705 209.145C726.717 206.638 722.266 204.875 716.597 203.7L715.777 207.615ZM727.129 212.21C729.16 213.915 730.048 216.211 729.635 219.442L733.603 219.941C734.165 215.554 732.917 211.841 729.705 209.145L727.129 212.21ZM729.635 219.442C729.453 220.858 729.042 222.137 728.409 223.294L731.92 225.205C732.804 223.586 733.362 221.825 733.603 219.941L729.635 219.442ZM728.424 223.268C727.853 224.277 726.803 225.442 725.13 226.739L727.577 229.897C729.485 228.419 730.976 226.872 731.905 225.232L728.424 223.268ZM725.13 226.739C723.807 227.764 721.569 228.62 718.162 229.12L718.736 233.076C722.43 232.534 725.462 231.536 727.577 229.897L725.13 226.739ZM718.188 229.116C714.934 229.552 710.902 229.489 706.054 228.879L705.547 232.847C710.605 233.483 715.005 233.576 718.71 233.08L718.188 229.116ZM706.054 228.879L666.335 223.888L665.827 227.855L705.547 232.847L706.054 228.879ZM668.065 226.121L674.449 176.223L670.48 175.725L664.097 225.622L668.065 226.121ZM672.211 177.958L710.12 182.722L710.628 178.755L672.718 173.99L672.211 177.958ZM710.12 182.722C718.426 183.766 723.739 185.637 726.525 188.03L729.136 184.994C725.411 181.796 719.086 179.817 710.628 178.755L710.12 182.722ZM726.537 188.04C729.443 190.495 730.487 193.105 730.118 195.991L734.087 196.49C734.66 192.012 732.857 188.137 729.124 184.984L726.537 188.04ZM730.118 195.991C729.812 198.385 728.657 200.139 726.529 201.398C724.296 202.719 720.903 203.539 716.141 203.659L716.233 207.656C721.31 207.529 725.489 206.656 728.561 204.838C731.738 202.958 733.622 200.127 734.087 196.49L730.118 195.991ZM687.766 191.152L687.011 197.056L690.979 197.555L691.735 191.651L687.766 191.152ZM688.741 199.29L705.41 201.384L705.918 197.417L689.249 195.322L688.741 199.29ZM705.41 201.384C707.718 201.674 709.751 201.68 711.331 201.206C712.145 200.962 712.934 200.562 713.56 199.918C714.208 199.252 714.579 198.428 714.694 197.536L710.725 197.037C710.713 197.129 710.696 197.132 710.694 197.133C710.671 197.158 710.548 197.268 710.188 197.376C709.419 197.607 708.055 197.685 705.918 197.417L705.41 201.384ZM714.694 197.536C714.815 196.589 714.616 195.665 714.094 194.853C713.597 194.081 712.876 193.513 712.104 193.088C710.591 192.254 708.461 191.738 705.911 191.417L705.403 195.385C707.807 195.687 709.328 196.129 710.166 196.591C710.569 196.813 710.699 196.977 710.726 197.021C710.729 197.024 710.729 197 710.725 197.037L714.694 197.536ZM705.911 191.417L690.004 189.418L689.497 193.386L705.403 195.385L705.911 191.417ZM704.739 219.49C707.336 219.816 709.597 219.81 711.338 219.267C712.235 218.988 713.082 218.539 713.746 217.837C714.429 217.115 714.818 216.232 714.941 215.273L710.972 214.774C710.948 214.959 710.896 215.036 710.842 215.092C710.77 215.168 710.585 215.316 710.154 215.45C709.241 215.735 707.667 215.826 705.247 215.522L704.739 219.49ZM714.941 215.273C715.068 214.28 714.883 213.304 714.359 212.43C713.853 211.587 713.102 210.953 712.269 210.469C710.641 209.524 708.331 208.944 705.552 208.594L705.045 212.562C707.664 212.891 709.329 213.391 710.254 213.928C710.696 214.185 710.866 214.392 710.926 214.491C710.966 214.559 710.991 214.625 710.972 214.774L714.941 215.273ZM705.552 208.594L687.836 206.368L687.328 210.336L705.045 212.562L705.552 208.594ZM685.598 208.102L684.72 214.958L688.689 215.457L689.566 208.601L685.598 208.102ZM686.451 217.192L704.739 219.49L705.247 215.522L686.959 213.224L686.451 217.192Z" fill="#1E1E1E"/>
</g>
<g filter="url(#filter1_d)">
<path d="M23.234 135.856L14.1286 86.3828L77.8974 74.8682L87.0028 124.341L68.2028 127.736L61.9472 93.7468L35.7784 98.4721L42.034 132.461L23.234 135.856Z" fill="#C27690"/>
<path d="M23.234 135.856L21.2658 136.211L21.6279 138.178L23.596 137.823L23.234 135.856ZM14.1286 86.3828L13.7666 84.4158L11.7984 84.7712L12.1604 86.7382L14.1286 86.3828ZM77.8974 74.8682L79.8655 74.5128L79.5035 72.5458L77.5353 72.9012L77.8974 74.8682ZM87.0028 124.341L87.3648 126.308L89.3329 125.953L88.9709 123.986L87.0028 124.341ZM68.2028 127.736L66.2346 128.091L66.5966 130.058L68.5648 129.703L68.2028 127.736ZM61.9472 93.7468L63.9153 93.3914L63.5533 91.4244L61.5851 91.7798L61.9472 93.7468ZM35.7784 98.4721L35.4163 96.5051L33.4482 96.8605L33.8102 98.8275L35.7784 98.4721ZM42.034 132.461L42.396 134.428L44.3642 134.073L44.0022 132.106L42.034 132.461ZM25.2022 135.5L16.0968 86.0274L12.1604 86.7382L21.2658 136.211L25.2022 135.5ZM14.4906 88.3498L78.2594 76.8351L77.5353 72.9012L13.7666 84.4158L14.4906 88.3498ZM75.9292 75.2236L85.0346 124.697L88.9709 123.986L79.8655 74.5128L75.9292 75.2236ZM86.6407 122.374L67.8408 125.769L68.5648 129.703L87.3648 126.308L86.6407 122.374ZM70.171 127.381L63.9153 93.3914L59.979 94.1022L66.2346 128.091L70.171 127.381ZM61.5851 91.7798L35.4163 96.5051L36.1404 100.439L62.3092 95.7138L61.5851 91.7798ZM33.8102 98.8275L40.0658 132.817L44.0022 132.106L37.7465 98.1167L33.8102 98.8275ZM41.672 130.494L22.872 133.889L23.596 137.823L42.396 134.428L41.672 130.494Z" fill="#1E1E1E"/>
<path d="M141.163 64.651C149.785 63.4613 157.152 64.8353 163.264 68.7729C169.43 72.6384 173.078 78.5956 174.209 86.6445C175.341 94.6934 173.51 101.439 168.716 106.881C163.914 112.26 157.234 115.54 148.675 116.721C139.165 118.033 131.59 116.332 125.952 111.619L129.599 137.572L110.674 140.183L101.001 71.3553L118.595 68.9278L119.797 77.4837C123.453 70.3894 130.575 66.1119 141.163 64.651ZM128.148 101.722C131.43 103.465 135.607 103.987 140.679 103.288C145.751 102.588 149.594 100.959 152.208 98.4021C154.885 95.8361 155.974 92.7786 155.475 89.2294C154.976 85.6803 153.085 83.0339 149.803 81.2902C146.584 79.5378 142.438 79.0115 137.366 79.7113C132.294 80.4111 128.42 82.044 125.743 84.6099C123.129 87.1671 122.072 90.2203 122.571 93.7694C123.069 97.3186 124.928 99.9693 128.148 101.722Z" fill="#C27690"/>
<path d="M163.264 68.7729L162.182 70.4525L162.193 70.4592L162.203 70.4658L163.264 68.7729ZM168.716 106.881L170.211 108.214L170.22 108.204L168.716 106.881ZM125.952 111.619L127.233 110.087L123.249 106.756L123.97 111.892L125.952 111.619ZM129.599 137.572L129.877 139.552L131.859 139.279L131.58 137.298L129.599 137.572ZM110.674 140.183L108.693 140.456L108.971 142.437L110.953 142.163L110.674 140.183ZM101.001 71.3553L100.723 69.3747L98.7417 69.6481L99.0201 71.6286L101.001 71.3553ZM118.595 68.9278L120.576 68.6544L120.298 66.6739L118.316 66.9473L118.595 68.9278ZM119.797 77.4837L117.816 77.7571L118.693 83.9972L121.576 78.4025L119.797 77.4837ZM128.148 101.722L127.194 103.477L127.203 103.482L127.212 103.487L128.148 101.722ZM152.208 98.4021L150.821 96.9576L150.813 96.9647L150.806 96.9718L152.208 98.4021ZM149.803 81.2902L148.849 83.0454L148.858 83.0503L148.867 83.0551L149.803 81.2902ZM125.743 84.6099L124.356 83.1655L124.349 83.1726L124.341 83.1797L125.743 84.6099ZM141.441 66.6316C149.688 65.4937 156.55 66.8239 162.182 70.4525L164.345 67.0934C157.754 62.8468 149.883 61.429 140.885 62.6705L141.441 66.6316ZM162.203 70.4658C167.805 73.9773 171.168 79.3765 172.228 86.9179L176.191 86.3712C174.988 77.8148 171.055 71.2995 164.324 67.08L162.203 70.4658ZM172.228 86.9179C173.289 94.4671 171.573 100.608 167.213 105.558L170.22 108.204C175.446 102.27 177.392 94.9198 176.191 86.3712L172.228 86.9179ZM167.222 105.548C162.795 110.507 156.582 113.611 148.396 114.74L148.953 118.701C157.885 117.469 165.034 114.013 170.211 108.214L167.222 105.548ZM148.396 114.74C139.264 116 132.315 114.334 127.233 110.087L124.67 113.151C130.866 118.33 139.066 120.066 148.953 118.701L148.396 114.74ZM123.97 111.892L127.618 137.845L131.58 137.298L127.933 111.345L123.97 111.892ZM129.321 135.591L110.396 138.202L110.953 142.163L129.877 139.552L129.321 135.591ZM112.656 139.91L102.983 71.0819L99.0201 71.6286L108.693 140.456L112.656 139.91ZM101.28 73.3358L118.873 70.9083L118.316 66.9473L100.723 69.3747L101.28 73.3358ZM116.613 69.2012L117.816 77.7571L121.778 77.2104L120.576 68.6544L116.613 69.2012ZM121.576 78.4025C124.84 72.0698 131.259 68.0364 141.441 66.6316L140.885 62.6705C129.891 64.1873 122.067 68.709 118.018 76.5649L121.576 78.4025ZM127.212 103.487C130.984 105.49 135.623 106.004 140.958 105.268L140.401 101.307C135.592 101.971 131.876 101.44 129.083 99.9569L127.212 103.487ZM140.958 105.268C146.289 104.533 150.59 102.787 153.609 99.8323L150.806 96.9718C148.599 99.1318 145.214 100.643 140.401 101.307L140.958 105.268ZM153.594 99.8465C156.714 96.8559 158.048 93.1671 157.456 88.9561L153.494 89.5028C153.899 92.3901 153.055 94.8163 150.821 96.9576L153.594 99.8465ZM157.456 88.9561C156.864 84.7451 154.564 81.5576 150.738 79.5253L148.867 83.0551C151.606 84.5102 153.088 86.6156 153.494 89.5028L157.456 88.9561ZM150.757 79.535C147.037 77.5104 142.419 76.9952 137.088 77.7307L137.644 81.6918C142.457 81.0278 146.13 81.5652 148.849 83.0454L150.757 79.535ZM137.088 77.7307C131.753 78.4668 127.432 80.2167 124.356 83.1655L127.129 86.0544C129.407 83.8712 132.835 82.3554 137.644 81.6918L137.088 77.7307ZM124.341 83.1797C121.286 86.1689 120 89.8497 120.589 94.0428L124.552 93.4961C124.144 90.591 124.972 88.1654 127.144 86.0401L124.341 83.1797ZM120.589 94.0428C121.179 98.2359 123.431 101.429 127.194 103.477L129.101 99.9666C126.426 98.5102 124.96 96.4012 124.552 93.4961L120.589 94.0428Z" fill="#1E1E1E"/>
<path d="M233.868 55.4209L261.392 52.8097L266.226 102.881L248.067 104.604L244.516 67.8146L225.034 106.789L197.51 109.4L192.677 59.3287L210.835 57.606L214.386 94.395L233.868 55.4209Z" fill="#C27690"/>
<path d="M233.868 55.4209L233.676 53.4302L232.573 53.5348L232.078 54.5248L233.868 55.4209ZM261.392 52.8097L263.383 52.6208L263.191 50.63L261.2 50.8189L261.392 52.8097ZM266.226 102.881L266.418 104.872L268.409 104.683L268.217 102.692L266.226 102.881ZM248.067 104.604L246.076 104.793L246.268 106.783L248.259 106.594L248.067 104.604ZM244.516 67.8146L246.507 67.6257L245.838 60.6936L242.726 66.9185L244.516 67.8146ZM225.034 106.789L225.227 108.779L226.329 108.675L226.824 107.685L225.034 106.789ZM197.51 109.4L195.519 109.589L195.711 111.58L197.702 111.391L197.51 109.4ZM192.677 59.3287L192.485 57.3379L190.494 57.5268L190.686 59.5176L192.677 59.3287ZM210.835 57.606L212.826 57.4171L212.634 55.4264L210.643 55.6153L210.835 57.606ZM214.386 94.395L212.395 94.5839L213.064 101.516L216.176 95.2912L214.386 94.395ZM234.06 57.4117L261.584 54.8004L261.2 50.8189L233.676 53.4302L234.06 57.4117ZM259.401 52.9986L264.234 103.07L268.217 102.692L263.383 52.6208L259.401 52.9986ZM266.033 100.89L247.875 102.613L248.259 106.594L266.418 104.872L266.033 100.89ZM250.058 104.415L246.507 67.6257L242.525 68.0035L246.076 104.793L250.058 104.415ZM242.726 66.9185L223.245 105.893L226.824 107.685L246.306 68.7108L242.726 66.9185ZM224.842 104.798L197.318 107.409L197.702 111.391L225.227 108.779L224.842 104.798ZM199.501 109.211L194.668 59.1398L190.686 59.5176L195.519 109.589L199.501 109.211ZM192.869 61.3194L211.027 59.5968L210.643 55.6153L192.485 57.3379L192.869 61.3194ZM208.844 57.7949L212.395 94.5839L216.377 94.2061L212.826 57.4171L208.844 57.7949ZM216.176 95.2912L235.657 56.3171L232.078 54.5248L212.597 93.4988L216.176 95.2912Z" fill="#1E1E1E"/>
<path d="M333.113 72.6046C338.762 72.7493 343.074 73.6709 346.052 75.3693C349.029 77.0678 350.622 79.8342 350.832 83.6684C350.923 85.3299 350.721 86.9111 350.226 88.4118C349.728 89.8487 348.723 91.4089 347.213 93.0925C345.763 94.7088 343.339 96.089 339.94 97.2333C336.602 98.3103 332.441 98.9829 327.456 99.2511L287.482 101.402L284.735 51.1734L322.888 49.1202C331.324 48.6662 337.395 49.5252 341.104 51.697C344.876 53.8655 346.863 56.8029 347.066 60.5094C347.398 66.5803 342.747 70.612 333.113 72.6046ZM304.529 63.2792L304.854 69.2223L321.63 68.3195C326.104 68.0788 328.286 66.9679 328.178 64.9868C328.07 63.0058 325.523 62.1494 320.538 62.4177L304.529 63.2792ZM324.245 86.2529C329.294 85.9812 331.755 84.695 331.63 82.3945C331.504 80.0939 328.725 79.0898 323.293 79.3822L305.463 80.3417L305.84 87.2434L324.245 86.2529Z" fill="#C27690"/>
<path d="M333.113 72.6046L332.707 70.6462L333.064 74.6039L333.113 72.6046ZM346.052 75.3693L347.042 73.6325L346.052 75.3693ZM350.226 88.4118L352.116 89.0685L352.121 89.054L352.126 89.0395L350.226 88.4118ZM347.213 93.0925L345.724 91.7564L347.213 93.0925ZM339.94 97.2333L340.556 99.1367L340.568 99.1328L340.58 99.1287L339.94 97.2333ZM287.482 101.402L285.485 101.51L285.594 103.507L287.591 103.399L287.482 101.402ZM284.735 51.1734L284.626 49.1764L282.629 49.2839L282.738 51.2809L284.735 51.1734ZM341.104 51.697L340.094 53.4225L340.101 53.4266L340.108 53.4306L341.104 51.697ZM304.529 63.2792L304.42 61.2822L302.423 61.3897L302.532 63.3867L304.529 63.2792ZM304.854 69.2223L302.857 69.3298L302.967 71.3268L304.964 71.2193L304.854 69.2223ZM305.463 80.3417L305.353 78.3447L303.356 78.4522L303.465 80.4492L305.463 80.3417ZM305.84 87.2434L303.843 87.3509L303.952 89.3479L305.949 89.2404L305.84 87.2434ZM333.064 74.6039C338.572 74.7449 342.5 75.6451 345.062 77.1062L347.042 73.6325C343.648 71.6966 338.952 70.7536 333.163 70.6054L333.064 74.6039ZM345.062 77.1062C347.368 78.4223 348.657 80.5236 348.835 83.7759L352.829 83.5609C352.587 79.1447 350.689 75.7133 347.042 73.6325L345.062 77.1062ZM348.835 83.7759C348.913 85.2017 348.739 86.5326 348.326 87.7842L352.126 89.0395C352.702 87.2896 352.933 85.4582 352.829 83.5609L348.835 83.7759ZM348.336 87.7552C347.957 88.8499 347.135 90.1829 345.724 91.7564L348.702 94.4286C350.312 92.6349 351.499 90.8475 352.116 89.0685L348.336 87.7552ZM345.724 91.7564C344.608 93 342.562 94.24 339.301 95.3379L340.58 99.1287C344.116 97.9381 346.918 96.4175 348.702 94.4286L345.724 91.7564ZM339.325 95.33C336.203 96.3369 332.225 96.9916 327.347 97.2541L327.565 101.248C332.656 100.974 337.001 100.284 340.556 99.1367L339.325 95.33ZM327.347 97.2541L287.372 99.4054L287.591 103.399L327.565 101.248L327.347 97.2541ZM289.479 101.295L286.732 51.066L282.738 51.2809L285.485 101.51L289.479 101.295ZM284.844 53.1705L322.997 51.1172L322.779 47.1232L284.626 49.1764L284.844 53.1705ZM322.997 51.1172C331.356 50.6673 336.92 51.5637 340.094 53.4225L342.113 49.9716C337.871 47.4866 331.291 46.6651 322.779 47.1232L322.997 51.1172ZM340.108 53.4306C343.41 55.3287 344.91 57.7116 345.069 60.6168L349.063 60.4019C348.816 55.8942 346.342 52.4022 342.099 49.9634L340.108 53.4306ZM345.069 60.6168C345.2 63.0262 344.381 64.9574 342.516 66.5748C340.559 68.2713 337.369 69.6818 332.707 70.6462L333.52 74.5631C338.491 73.5348 342.444 71.9332 345.138 69.5979C347.923 67.1836 349.263 64.0634 349.063 60.4019L345.069 60.6168ZM302.532 63.3867L302.857 69.3298L306.852 69.1148L306.527 63.1717L302.532 63.3867ZM304.964 71.2193L321.739 70.3165L321.521 66.3225L304.745 67.2253L304.964 71.2193ZM321.739 70.3165C324.062 70.1915 326.063 69.8354 327.531 69.0882C328.287 68.7031 328.991 68.1695 329.491 67.4245C330.008 66.6536 330.224 65.7777 330.175 64.8793L326.181 65.0943C326.186 65.1864 326.17 65.1923 326.168 65.1944C326.15 65.2224 326.048 65.353 325.714 65.5233C324.999 65.887 323.672 66.2067 321.521 66.3225L321.739 70.3165ZM330.175 64.8793C330.123 63.9258 329.76 63.0523 329.1 62.3463C328.471 61.6746 327.66 61.2446 326.823 60.9632C325.184 60.4122 322.995 60.2826 320.429 60.4206L320.648 64.4147C323.066 64.2845 324.643 64.449 325.551 64.7543C325.987 64.9011 326.144 65.0399 326.18 65.0776C326.183 65.0809 326.179 65.0573 326.181 65.0943L330.175 64.8793ZM320.429 60.4206L304.42 61.2822L304.639 65.2762L320.648 64.4147L320.429 60.4206ZM324.355 88.2499C326.968 88.1093 329.191 87.7007 330.805 86.8572C331.637 86.4229 332.389 85.8307 332.915 85.022C333.457 84.1904 333.68 83.2519 333.627 82.287L329.633 82.502C329.643 82.6874 329.605 82.7724 329.563 82.8374C329.505 82.9253 329.35 83.1031 328.95 83.3118C328.103 83.7544 326.571 84.1248 324.136 84.2559L324.355 88.2499ZM333.627 82.287C333.572 81.2869 333.214 80.3598 332.54 79.5926C331.89 78.8538 331.037 78.3631 330.129 78.0352C328.357 77.3947 325.98 77.2346 323.184 77.3851L323.402 81.3792C326.038 81.2373 327.766 81.4331 328.773 81.7968C329.255 81.9709 329.459 82.1443 329.536 82.2317C329.588 82.2907 329.624 82.3518 329.633 82.502L333.627 82.287ZM323.184 77.3851L305.353 78.3447L305.572 82.3387L323.402 81.3792L323.184 77.3851ZM303.465 80.4492L303.843 87.3509L307.837 87.1359L307.46 80.2342L303.465 80.4492ZM305.949 89.2404L324.355 88.2499L324.136 84.2559L305.731 85.2464L305.949 89.2404Z" fill="#1E1E1E"/>
<path d="M438.392 75.0328L438.417 76.8566L387.638 77.549C389.886 82.7028 395.713 85.2156 405.12 85.0873C411.456 85.001 416.016 83.8187 418.8 81.5405L437.625 82.0519C435.774 87.0696 432.084 90.9603 426.554 93.7239C421.087 96.4227 414.001 97.8314 405.298 97.9501C393.843 98.1063 384.758 96.086 378.044 91.8891C371.392 87.6274 368.005 81.049 367.882 72.1539C367.759 63.3227 370.9 56.6873 377.303 52.2475C383.77 47.807 392.571 45.5108 403.706 45.3589C415.097 45.2036 423.674 47.4869 429.435 52.2088C435.261 56.9298 438.247 64.5378 438.392 75.0328ZM403.884 58.2217C394.925 58.3439 389.457 61.0106 387.481 66.2221L419.446 65.7862C418.415 60.6158 413.227 58.0943 403.884 58.2217Z" fill="#C27690"/>
<path d="M438.417 76.8566L438.445 78.8564L440.445 78.8291L440.417 76.8293L438.417 76.8566ZM387.638 77.549L387.61 75.5492L384.602 75.5902L385.805 78.3481L387.638 77.549ZM418.8 81.5405L418.854 79.5412L418.11 79.521L417.534 79.9924L418.8 81.5405ZM437.625 82.0519L439.502 82.7443L440.467 80.1283L437.679 80.0526L437.625 82.0519ZM426.554 93.7239L427.439 95.5174L427.448 95.513L426.554 93.7239ZM378.044 91.8891L376.965 93.5731L376.974 93.5791L376.984 93.5851L378.044 91.8891ZM377.303 52.2475L376.171 50.5987L376.163 50.6039L377.303 52.2475ZM429.435 52.2088L428.168 53.7556L428.176 53.7625L429.435 52.2088ZM387.481 66.2221L385.611 65.5127L384.569 68.262L387.509 68.2219L387.481 66.2221ZM419.446 65.7862L419.474 67.786L421.878 67.7532L421.408 65.3953L419.446 65.7862ZM436.392 75.06L436.418 76.8839L440.417 76.8293L440.392 75.0055L436.392 75.06ZM438.39 74.8568L387.61 75.5492L387.666 79.5488L438.445 78.8564L438.39 74.8568ZM385.805 78.3481C388.559 84.6645 395.53 87.2183 405.148 87.0872L405.092 83.0875C395.896 83.2129 391.212 80.7412 389.471 76.7498L385.805 78.3481ZM405.148 87.0872C411.628 86.9988 416.752 85.8008 420.067 83.0886L417.534 79.9924C415.28 81.8365 411.283 83.0031 405.092 83.0875L405.148 87.0872ZM418.746 83.5397L437.571 84.0511L437.679 80.0526L418.854 79.5412L418.746 83.5397ZM435.749 81.3594C434.101 85.8257 430.811 89.3605 425.659 91.9348L427.448 95.513C433.357 92.56 437.448 88.3134 439.502 82.7443L435.749 81.3594ZM425.668 91.9305C420.557 94.4535 413.794 95.8341 405.27 95.9503L405.326 99.9499C414.208 99.8288 421.616 98.3919 427.439 95.5173L425.668 91.9305ZM405.27 95.9503C394.037 96.1035 385.377 94.1146 379.103 90.1932L376.984 93.5851C384.139 98.0574 393.649 100.109 405.326 99.9499L405.27 95.9503ZM379.122 90.2052C373.116 86.3566 369.997 80.4494 369.881 72.1266L365.882 72.1811C366.013 81.6486 369.669 88.8983 376.965 93.5731L379.122 90.2052ZM369.881 72.1266C369.767 63.8572 372.666 57.8963 378.443 53.8912L376.163 50.6039C369.133 55.4782 365.752 62.7882 365.882 72.1811L369.881 72.1266ZM378.435 53.8964C384.467 49.7548 392.835 47.5073 403.734 47.3587L403.679 43.3591C392.307 43.5142 383.073 45.8592 376.171 50.5987L378.435 53.8964ZM403.734 47.3587C414.892 47.2066 422.921 49.4555 428.168 53.7556L430.703 50.662C424.426 45.5183 415.302 43.2006 403.679 43.3591L403.734 47.3587ZM428.176 53.7625C433.378 57.9775 436.252 64.9104 436.392 75.06L440.392 75.0055C440.242 64.1651 437.145 55.882 430.694 50.655L428.176 53.7625ZM403.857 56.2219C394.64 56.3476 388.037 59.1164 385.611 65.5127L389.351 66.9315C390.878 62.9049 395.21 60.3401 403.912 60.2215L403.857 56.2219ZM387.509 68.2219L419.474 67.786L419.419 63.7864L387.454 64.2223L387.509 68.2219ZM421.408 65.3953C420.757 62.1331 418.752 59.7232 415.656 58.2186C412.66 56.762 408.668 56.1563 403.857 56.2219L403.912 60.2215C408.443 60.1597 411.717 60.751 413.908 61.816C416 62.8329 417.104 64.2689 417.485 66.1772L421.408 65.3953Z" fill="#1E1E1E"/>
<path d="M454.442 61.8485L454.86 46.1101L519.832 47.6994L519.414 63.4378L496.477 62.8768L495.56 97.4246L476.462 96.9574L477.379 62.4096L454.442 61.8485Z" fill="#C27690"/>
<path d="M454.442 61.8485L452.443 61.7996L452.389 63.7989L454.389 63.8478L454.442 61.8485ZM454.86 46.1101L454.913 44.1108L452.913 44.0619L452.86 46.0612L454.86 46.1101ZM519.832 47.6994L521.832 47.7483L521.885 45.749L519.885 45.7001L519.832 47.6994ZM519.414 63.4378L519.361 65.4371L521.361 65.486L521.414 63.4867L519.414 63.4378ZM496.477 62.8768L496.53 60.8775L494.531 60.8286L494.478 62.8279L496.477 62.8768ZM495.56 97.4246L495.507 99.4239L497.507 99.4728L497.56 97.4735L495.56 97.4246ZM476.462 96.9574L474.463 96.9085L474.41 98.9078L476.409 98.9567L476.462 96.9574ZM477.379 62.4096L479.378 62.4585L479.432 60.4592L477.432 60.4103L477.379 62.4096ZM456.441 61.8974L456.859 46.159L452.86 46.0612L452.443 61.7996L456.441 61.8974ZM454.807 48.1094L519.779 49.6987L519.885 45.7001L454.913 44.1108L454.807 48.1094ZM517.833 47.6505L517.415 63.3889L521.414 63.4867L521.832 47.7483L517.833 47.6505ZM519.468 61.4385L496.53 60.8775L496.424 64.8761L519.361 65.4371L519.468 61.4385ZM494.478 62.8279L493.561 97.3757L497.56 97.4735L498.477 62.9257L494.478 62.8279ZM495.613 95.4253L476.515 94.9581L476.409 98.9567L495.507 99.4239L495.613 95.4253ZM478.462 97.0063L479.378 62.4585L475.38 62.3607L474.463 96.9085L478.462 97.0063ZM477.432 60.4103L454.495 59.8492L454.389 63.8478L477.326 64.4089L477.432 60.4103Z" fill="#1E1E1E"/>
<path d="M535.279 112.929L537.057 80.5296L557.763 81.63L557.132 93.1327L543.715 113.377L535.279 112.929Z" fill="#C27690"/>
<path d="M535.279 112.929L533.282 112.823L533.172 114.82L535.169 114.926L535.279 112.929ZM537.057 80.5296L537.166 78.5326L535.169 78.4264L535.059 80.4234L537.057 80.5296ZM557.763 81.63L559.761 81.7361L559.87 79.7391L557.873 79.633L557.763 81.63ZM557.132 93.1327L558.799 94.2353L559.1 93.7817L559.129 93.2388L557.132 93.1327ZM543.715 113.377L543.605 115.374L544.749 115.435L545.382 114.48L543.715 113.377ZM537.276 113.035L539.054 80.6357L535.059 80.4234L533.282 112.823L537.276 113.035ZM536.947 82.5265L557.654 83.627L557.873 79.633L537.166 78.5326L536.947 82.5265ZM555.766 81.5238L555.135 93.0265L559.129 93.2388L559.761 81.7361L555.766 81.5238ZM555.466 92.03L542.048 112.274L545.382 114.48L558.799 94.2353L555.466 92.03ZM543.825 111.38L535.389 110.932L535.169 114.926L543.605 115.374L543.825 111.38Z" fill="#1E1E1E"/>
<path d="M648.826 55.5285C659.524 56.5964 667.726 59.7305 673.43 64.9308C679.205 70.0737 681.662 76.815 680.801 85.1547C679.94 93.4944 676.153 99.6446 669.439 103.605C662.732 107.502 653.901 108.904 642.947 107.811C634.032 106.921 626.723 104.487 621.021 100.509C615.39 96.4738 612.284 91.34 611.705 85.1076L630.784 86.3367C632.809 90.3979 637.357 92.7814 644.426 93.487C651.94 94.237 657.166 92.5397 660.103 88.3949L639.947 86.3831L641.13 74.9239L660.713 76.8786C658.362 72.8492 653.907 70.5071 647.347 69.8524C640.661 69.185 635.86 70.5066 632.944 73.8174L614.119 71.0701C615.876 65.2639 619.919 61.0044 626.247 58.2915C632.575 55.5786 640.101 54.6576 648.826 55.5285Z" fill="#C27690"/>
<path d="M673.43 64.9308L672.079 66.4098L672.088 66.4176L672.096 66.4253L673.43 64.9308ZM669.439 103.605L670.44 105.333L670.452 105.326L669.439 103.605ZM621.021 100.509L619.852 102.135L619.862 102.142L619.872 102.15L621.021 100.509ZM611.705 85.1076L611.84 83.1125L609.496 82.9614L609.713 85.299L611.705 85.1076ZM630.784 86.3367L632.575 85.44L632.064 84.4152L630.919 84.3415L630.784 86.3367ZM660.103 88.3949L661.735 89.5468L663.719 86.746L660.308 86.4055L660.103 88.3949ZM639.947 86.3831L637.957 86.1844L637.752 88.1738L639.742 88.3725L639.947 86.3831ZM641.13 74.9239L641.335 72.9345L639.345 72.7358L639.14 74.7253L641.13 74.9239ZM660.713 76.8786L660.507 78.868L664.42 79.2586L662.442 75.8674L660.713 76.8786ZM632.944 73.8174L632.649 75.7958L633.725 75.9528L634.444 75.1354L632.944 73.8174ZM614.119 71.0701L612.204 70.497L611.533 72.7141L613.824 73.0484L614.119 71.0701ZM626.247 58.2915L625.463 56.4545L626.247 58.2915ZM648.62 57.5179C659.055 58.5595 666.794 61.5919 672.079 66.4098L674.781 63.4517C668.658 57.8691 659.994 54.6333 649.031 53.5391L648.62 57.5179ZM672.096 66.4253C677.349 71.1031 679.612 77.1928 678.811 84.9561L682.791 85.3534C683.711 76.4373 681.061 69.0443 674.764 63.4362L672.096 66.4253ZM678.811 84.9561C678.01 92.7197 674.543 98.2758 668.426 101.884L670.452 105.326C677.763 101.014 681.871 94.2692 682.791 85.3534L678.811 84.9561ZM668.438 101.878C662.22 105.49 653.858 106.89 643.153 105.821L642.742 109.8C653.944 110.918 663.243 109.515 670.44 105.333L668.438 101.878ZM643.153 105.821C634.481 104.956 627.524 102.603 622.17 98.8685L619.872 102.15C625.922 106.371 633.582 108.886 642.742 109.8L643.153 105.821ZM622.191 98.8829C616.972 95.1433 614.217 90.5072 613.697 84.9163L609.713 85.299C610.352 92.1727 613.808 97.8042 619.852 102.135L622.191 98.8829ZM611.57 87.1028L630.648 88.3318L630.919 84.3415L611.84 83.1125L611.57 87.1028ZM628.993 87.2333C631.469 92.1976 636.873 94.743 644.22 95.4764L644.631 91.4975C637.841 90.8197 634.15 88.5983 632.575 85.44L628.993 87.2333ZM644.22 95.4764C652.069 96.2598 658.197 94.5398 661.735 89.5468L658.472 87.2431C656.136 90.5396 651.812 92.2143 644.631 91.4975L644.22 95.4764ZM660.308 86.4055L640.153 84.3936L639.742 88.3725L659.898 90.3844L660.308 86.4055ZM641.937 86.5817L643.12 75.1226L639.14 74.7253L637.957 86.1844L641.937 86.5817ZM640.925 76.9134L660.507 78.868L660.918 74.8892L641.335 72.9345L640.925 76.9134ZM662.442 75.8674C659.651 71.083 654.469 68.5534 647.553 67.863L647.142 71.8418C653.344 72.4609 657.073 74.6154 658.983 77.8898L662.442 75.8674ZM647.553 67.863C640.574 67.1664 634.976 68.4879 631.444 72.4994L634.444 75.1354C636.743 72.5253 640.747 71.2035 647.142 71.8418L647.553 67.863ZM633.24 71.8391L614.414 69.0917L613.824 73.0484L632.649 75.7958L633.24 71.8391ZM616.034 71.6431C617.595 66.4844 621.166 62.6428 627.03 60.1285L625.463 56.4545C618.672 59.366 614.157 64.0434 612.204 70.497L616.034 71.6431ZM627.03 60.1285C632.972 57.5811 640.142 56.6716 648.62 57.5179L649.031 53.5391C640.06 52.6436 632.177 53.5761 625.463 56.4545L627.03 60.1285Z" fill="#1E1E1E"/>
<path d="M698.345 77.5709L700.559 61.9834L764.927 70.9647L762.713 86.5523L739.989 83.3816L735.129 117.598L716.209 114.958L721.069 80.7416L698.345 77.5709Z" fill="#C27690"/>
<path d="M698.345 77.5709L696.364 77.2945L696.083 79.2747L698.063 79.551L698.345 77.5709ZM700.559 61.9834L700.84 60.0032L698.859 59.7269L698.578 61.707L700.559 61.9834ZM764.927 70.9647L766.908 71.2411L767.189 69.261L765.208 68.9846L764.927 70.9647ZM762.713 86.5523L762.432 88.5324L764.413 88.8088L764.694 86.8286L762.713 86.5523ZM739.989 83.3816L740.271 81.4015L738.29 81.1251L738.009 83.1052L739.989 83.3816ZM735.129 117.598L734.848 119.578L736.829 119.855L737.11 117.875L735.129 117.598ZM716.209 114.958L714.228 114.682L713.946 116.662L715.927 116.938L716.209 114.958ZM721.069 80.7416L723.049 81.018L723.331 79.0378L721.35 78.7615L721.069 80.7416ZM700.326 77.8473L702.54 62.2598L698.578 61.707L696.364 77.2945L700.326 77.8473ZM700.278 63.9635L764.646 72.9448L765.208 68.9846L700.84 60.0032L700.278 63.9635ZM762.946 70.6883L760.732 86.2759L764.694 86.8286L766.908 71.2411L762.946 70.6883ZM762.994 84.5721L740.271 81.4015L739.708 85.3617L762.432 88.5324L762.994 84.5721ZM738.009 83.1052L733.148 117.322L737.11 117.875L741.97 83.658L738.009 83.1052ZM735.41 115.618L716.49 112.978L715.927 116.938L734.848 119.578L735.41 115.618ZM718.189 115.235L723.049 81.018L719.088 80.4652L714.228 114.682L718.189 115.235ZM721.35 78.7615L698.626 75.5908L698.063 79.551L720.787 82.7217L721.35 78.7615Z" fill="#1E1E1E"/>
<path d="M782.875 118.696C777.292 112.946 775.245 106.01 776.733 97.8891C778.221 89.7684 782.594 84.0194 789.849 80.642C797.116 77.2017 806.136 76.4498 816.907 78.3863C827.678 80.3228 835.855 84.1664 841.438 89.917C847.032 95.6046 849.085 102.509 847.597 110.629C846.109 118.75 841.731 124.531 834.463 127.971C827.208 131.348 818.194 132.069 807.423 130.132C796.652 128.196 788.469 124.384 782.875 118.696ZM801.31 93.7244C797.935 95.4584 795.947 97.9621 795.347 101.236C794.747 104.509 795.719 107.545 798.264 110.344C800.81 113.142 804.728 115.017 810.019 115.968C815.31 116.92 819.644 116.528 823.02 114.794C826.395 113.06 828.383 110.556 828.983 107.283C829.583 104.01 828.611 100.974 826.066 98.175C823.52 95.3765 819.602 93.5016 814.311 92.5504C809.02 91.5991 804.686 91.9904 801.31 93.7244Z" fill="#C27690"/>
<path d="M782.875 118.696L781.436 120.09L781.445 120.099L782.875 118.696ZM789.849 80.642L790.69 82.4533L790.702 82.4477L789.849 80.642ZM841.438 89.917L839.999 91.3108L840.008 91.32L841.438 89.917ZM834.463 127.971L835.304 129.782L835.316 129.777L834.463 127.971ZM801.31 93.7244L800.4 91.9475L800.4 91.9475L801.31 93.7244ZM798.264 110.344L796.781 111.69L798.264 110.344ZM823.02 114.794L822.109 113.017L823.02 114.794ZM826.066 98.175L824.582 99.5216L826.066 98.175ZM784.313 117.302C779.194 112.029 777.326 105.751 778.702 98.243L774.765 97.5352C773.164 106.269 775.389 113.862 781.436 120.09L784.313 117.302ZM778.702 98.243C780.077 90.7363 784.047 85.5453 790.69 82.4532L789.009 78.8307C781.14 82.4934 776.366 88.8005 774.765 97.5352L778.702 98.243ZM790.702 82.4477C797.476 79.2409 806.04 78.4646 816.547 80.3535L817.268 76.4191C806.232 74.435 796.757 75.1624 788.997 78.8363L790.702 82.4477ZM816.547 80.3535C827.053 82.2425 834.796 85.9505 839.999 91.3107L842.877 88.5232C836.915 82.3823 828.304 78.4032 817.268 76.4191L816.547 80.3535ZM840.008 91.32C845.13 96.5272 847.004 102.769 845.628 110.276L849.565 110.983C851.166 102.249 848.935 94.682 842.868 88.5139L840.008 91.32ZM845.628 110.276C844.253 117.783 840.275 123.011 833.611 126.165L835.316 129.777C843.187 126.051 847.965 119.717 849.565 110.983L845.628 110.276ZM833.623 126.16C826.858 129.309 818.295 130.055 807.784 128.165L807.062 132.1C818.093 134.083 827.557 133.388 835.304 129.782L833.623 126.16ZM807.784 128.165C797.272 126.275 789.52 122.596 784.304 117.293L781.445 120.099C787.418 126.172 796.031 130.116 807.062 132.1L807.784 128.165ZM800.4 91.9475C796.557 93.9214 794.107 96.9056 793.378 100.882L797.315 101.59C797.786 99.0187 799.312 96.9954 802.221 95.5014L800.4 91.9475ZM793.378 100.882C792.649 104.858 793.884 108.504 796.781 111.69L799.748 108.997C797.555 106.586 796.844 104.16 797.315 101.59L793.378 100.882ZM796.781 111.69C799.723 114.925 804.111 116.938 809.658 117.936L810.38 114.001C805.345 113.096 801.896 111.359 799.748 108.997L796.781 111.69ZM809.658 117.936C815.206 118.933 820.028 118.575 823.93 116.571L822.109 113.017C819.259 114.481 815.414 114.906 810.38 114.001L809.658 117.936ZM823.93 116.571C827.773 114.597 830.223 111.613 830.952 107.637L827.015 106.929C826.544 109.5 825.018 111.523 822.109 113.017L823.93 116.571ZM830.952 107.637C831.681 103.661 830.446 100.014 827.549 96.8285L824.582 99.5216C826.775 101.933 827.486 104.358 827.015 106.929L830.952 107.637ZM827.549 96.8285C824.607 93.5939 820.219 91.5805 814.672 90.5831L813.95 94.5176C818.985 95.4228 822.434 97.1591 824.582 99.5216L827.549 96.8285ZM814.672 90.5831C809.124 89.5858 804.302 89.9433 800.4 91.9475L802.221 95.5014C805.071 94.0376 808.916 93.6124 813.95 94.5176L814.672 90.5831Z" fill="#1E1E1E"/>
</g>
<defs>
<filter id="filter0_d" x="133.821" y="161.375" width="600.37" height="78.2692" filterUnits="userSpaceOnUse" color-interpolation-filters="sRGB">
<feFlood flood-opacity="0" result="BackgroundImageFix"/>
<feColorMatrix in="SourceAlpha" type="matrix" values="0 0 0 0 0 0 0 0 0 0 0 0 0 0 0 0 0 0 127 0"/>
<feOffset dy="4"/>
<feColorMatrix type="matrix" values="0 0 0 0 0.28151 0 0 0 0 0.309417 0 0 0 0 0.979167 0 0 0 1 0"/>
<feBlend mode="normal" in2="BackgroundImageFix" result="effect1_dropShadow"/>
<feBlend mode="normal" in="SourceGraphic" in2="effect1_dropShadow" result="shape"/>
</filter>
<filter id="filter1_d" x="11.7983" y="43.3516" width="838.268" height="103.085" filterUnits="userSpaceOnUse" color-interpolation-filters="sRGB">
<feFlood flood-opacity="0" result="BackgroundImageFix"/>
<feColorMatrix in="SourceAlpha" type="matrix" values="0 0 0 0 0 0 0 0 0 0 0 0 0 0 0 0 0 0 127 0"/>
<feOffset dy="4"/>
<feColorMatrix type="matrix" values="0 0 0 0 0.28151 0 0 0 0 0.309417 0 0 0 0 0.979167 0 0 0 1 0"/>
<feBlend mode="normal" in2="BackgroundImageFix" result="effect1_dropShadow"/>
<feBlend mode="normal" in="SourceGraphic" in2="effect1_dropShadow" result="shape"/>
</filter>
</defs>
</svg>
