<?xml version="1.0" standalone="no"?>
<!DOCTYPE svg PUBLIC "-//W3C//DTD SVG 20010904//EN"
 "http://www.w3.org/TR/2001/REC-SVG-20010904/DTD/svg10.dtd">
<svg version="1.0" xmlns="http://www.w3.org/2000/svg"
 width="730.000000pt" height="730.000000pt" viewBox="0 0 730.000000 730.000000"
 preserveAspectRatio="xMidYMid meet">
<metadata>
Created by potrace 1.11, written by Peter Selinger 2001-2013
</metadata>
<g transform="translate(0.000000,730.000000) scale(0.100000,-0.100000)"
fill="#000000" stroke="none">
<path d="M0 3650 l0 -3650 507 2 507 3 18 85 c10 47 39 158 63 247 187 673
508 1336 881 1823 319 416 688 710 1032 823 l101 33 -55 73 c-165 220 -333
573 -430 906 -161 551 -148 1048 35 1328 124 189 392 341 691 393 116 20 365
14 477 -11 227 -50 441 -153 622 -300 93 -75 426 -427 509 -537 219 -293 374
-633 443 -974 29 -147 37 -392 15 -522 -45 -270 -159 -454 -357 -582 -35 -22
-108 -69 -161 -103 -53 -34 -97 -64 -97 -67 0 -3 47 -41 105 -85 245 -186 483
-462 646 -745 210 -367 322 -752 349 -1202 7 -121 22 -240 47 -380 l37 -203
658 -3 657 -2 0 3650 0 3650 -3650 0 -3650 0 0 -3650z"/>
</g>
</svg>
